<?xml version="1.0" encoding="utf-8"?>
<!-- Generator: Adobe Illustrator 18.0.0, SVG Export Plug-In . SVG Version: 6.00 Build 0)  -->
<!DOCTYPE svg PUBLIC "-//W3C//DTD SVG 1.1//EN" "http://www.w3.org/Graphics/SVG/1.1/DTD/svg11.dtd">
<svg version="1.1" id="Layer_1" xmlns="http://www.w3.org/2000/svg" xmlns:xlink="http://www.w3.org/1999/xlink" x="0px" y="0px"
	 viewBox="0 0 612 792" enable-background="new 0 0 612 792" xml:space="preserve">
<path fill="#676767" d="M369.4,704.6c-0.3,0.1-0.6,0.2-0.9,0.2C368.9,704.7,369.2,704.7,369.4,704.6z"/>
<path fill="#676767" d="M331.8,662.3c1.1-1.3,2.4-2,3.7-2.4C334.2,660.3,333,661,331.8,662.3c2.4,3.5,4.9,7.1,7.2,10.6
	C336.7,669.3,334.2,665.8,331.8,662.3z"/>
<path fill="#676767" d="M369.4,704.6c0.1,0,0.3-0.1,0.4-0.1l0,0C369.7,704.5,369.6,704.5,369.4,704.6z"/>
<path fill="#676767" d="M521,400.5c-0.2,0.4-0.3,0.9-0.6,1.1C520.7,401.4,520.8,400.9,521,400.5C521,400.5,521,400.5,521,400.5z"/>
<path fill="#676767" d="M441.5,242.1c0,0.3,0.1,0.6,0.1,0.9h0C441.6,242.8,441.5,242.4,441.5,242.1z"/>
<path fill="#676767" d="M284.8,528.3c0.9-1.6,1.8-3.2,2.6-4.8C286.5,525.1,285.6,526.7,284.8,528.3L284.8,528.3z"/>
<path fill="#676767" d="M336.7,659.6c0.7-0.1,1.5-0.2,2.3-0.1C338.2,659.5,337.4,659.5,336.7,659.6z"/>
<path fill="#676767" d="M453.4,634.1c-0.6,0.5-1.2,0.8-1.9,1.2C452.3,634.9,452.9,634.5,453.4,634.1z"/>
<path fill="#676767" d="M51.2,685.5c0.8,0.1,1.7,0.2,2.5,0.2c0-0.3,0.1-0.7,0.1-1c0,0.4-0.1,0.7-0.1,1
	C52.9,685.7,52.1,685.6,51.2,685.5z"/>
<path fill="#676767" d="M450.8,635.6c-0.5,0.2-1.1,0.4-1.7,0.5c-0.3,0.3-0.7,0.5-1,0.8c0.3-0.3,0.7-0.5,1-0.8
	c-0.1,0.8,0,1.7-0.1,2.4c0.2-0.7,0.1-1.6,0.1-2.4C449.7,636,450.2,635.8,450.8,635.6z"/>
<path fill="#676767" d="M441.3,240.7c0.1,0.5,0.1,1,0.2,1.4C441.4,241.6,441.4,241.1,441.3,240.7z"/>
<path fill="#676767" d="M250.1,12.8h-7.2c-0.3,1.1-0.7,2.2-1,3.3C244.8,15.5,247.5,14.3,250.1,12.8z"/>
<path fill="#676767" d="M586.8,561.6c0.1-2.8-5.1-7.2-8.7-6.4c-4,0.8-7.7,2.8-12.5,4.7c2.6,1.9,4.1,2.9,6.6,4.7
	c-2.1,0.2-3,0.5-3.6,0.2c-2.5-1.3-5-2.7-7.4-4.3c-3.1-2-7.3-1.8-8.7,1.4c-1.9,4.7-4.1,4.4-7.6,0.9v4.1c-7.2,0-23.8-16.7-26-26.9
	c8.2,7.8,15.6,14.9,23,21.9c0.5-0.4,1-0.8,1.5-1.3c-3.8-5.1-7.3-10.4-11.4-15.2c-2.5-2.9-5-5-4.9-9.8c0.1-4.2-1.8-8.9-4.3-12.4
	c-4.9-6.9-5.8-14.8-7.2-22.6c-2.4-12.9-4.3-25.8-6.2-38.8c-0.5-3.7-0.5-7.5-0.5-11.2c0.1-7.8,0-15.6,0.7-23.3
	c0.8-9.7,2.7-19.3,11-25.9c0.3-0.2,0.4-0.7,0.6-1.1c-1.4,0.9-3.2,1.5-4.1,2.8c-2.3,3-5.4,1.6-8.2,1.8c-0.4,0-1.2-1.7-1.4-2.7
	c-0.5-3-0.6-6-1.1-8.9c-0.2-1.3-0.6-2.8-1.3-3.8c-0.6-0.9-2-1.2-3-1.7c-0.4,0.9-1.2,1.9-1.2,2.8c0,5.2,0.2,10.4,0.2,15.7
	c0,2.8-0.4,5.5-0.6,8.3c-0.5,0-0.9,0-1.4,0c-0.6-8.5-1.2-17-1.8-25.5c-0.5,0-1,0.1-1.5,0.1c0,6.9,0.5,13.8-0.2,20.7
	c-0.5,5.2-2.3,10.3-3.7,15.4c-0.2,0.7-1.8,1.6-2.5,1.5c-0.7-0.1-1.4-1.5-1.6-2.4c-0.7-3-1.1-6-1.6-9c-0.6,0-1.2,0-1.8,0
	c-0.4,1.7-0.7,3.4-1.2,5c-0.3,1-1,2.1-1.8,2.5c-0.4,0.2-1.7-0.7-2.3-1.3c-3.9-4.3-3.5-11.7,0.1-16.4c1.1-1.4,1-4.1,0.7-6.1
	c-0.5-3.2-1.8-6.2-2.6-9.3c-0.4-1.4-0.4-3,0.3-4.7c3.1,5.6,6.4,11.1,9.2,16.8c0.7,1.5,0.1,3.7,0.1,5.8c3.8-3.7,3.7,0.4,4.6,2.6
	c2.4-1.9,3.5-3.9,1.5-6.4c-3.9-5-4.9-11.5-9.9-16c-3.1-2.8-3.3-8.6-6-12.1c-3.3-4.2-1.9-8.4-1.9-12.7c0-1,1.1-2,1.7-3
	c0.8,0.8,1.7,1.4,2.4,2.3c1.2,1.4,2.2,2.9,3.3,4.4c0.6-0.3,1.3-0.6,1.9-0.9c-1.3-3-2.5-6-3.9-9c-0.6-1.2-2.2-2.2-2.2-3.3
	c0.1-5.6-3.7-8.4-7.6-11.9c-1.9,3.1-3.6,6-5.7,9.6c-3.2-7-6.1-13.1-0.6-19.9c-1.2-0.1-2,0-2.7-0.3c-0.9-0.3-1.6-1-2.4-1.5
	c-0.5,1.1-1.2,2.1-1.4,3.2c-0.3,1.8,0,3.8-0.5,5.6c-0.2,1-1.4,1.7-2.2,2.6c-0.6-1.1-1.6-2.1-1.8-3.2c-0.2-1.3,0.4-2.7,0.7-4.3
	c-0.8-0.4-1.8-0.8-2.6-1.2c0.6-2.2,1.2-4.2,1.7-6.1l-1.3-0.7c-1.4,2.4-3,4.7-4.1,7.2c-1.1,2.9-1.7,6.1-5.4,6.7
	c-0.8,0.1-1.8-0.2-2.6-0.3c0.5-0.9,0.9-1.9,1.5-2.7c1-1.1,3.1-2.1,3-3.1c-0.1-4,3.4-8.1-0.5-12.7c-2.1,5.7-4,11-6,16.3
	c-0.4-0.1-0.8-0.1-1.2-0.2v-5.7c-5.4,4-6.5,8.2-3.4,13c2,3.1,1,5.9,0,8.9c-0.3,0.8-0.1,1.9-0.1,2.8c0.9-0.3,2.1-0.4,2.8-1
	c2-1.5,3.8-3.4,5.9-4.8c0.6-0.4,2.6,0,2.8,0.5c2.5,6.2,4.7,12.2,2.4,19.2c-1,3,1.2,5.4,4.4,6.6c0.5-3.9,0.9-7.4,1.4-11.9
	c4.3,5.5,4.2,12.8,1.6,17.4c-1.4,2.6-1.2,6.1-1.8,9.2c-1,4.5-2.1,9-3,13.5c-0.2,1.1,0.5,2.4,0.7,3.5c1-0.7,2.6-1.1,3-2.1
	c1.2-3.1,1.9-6.4,3.8-9.7c0.1,1.2,0.4,2.4,0.3,3.6c-1.2,11.2-2.6,22.4-3.9,33.6c-0.7,5.8-1.4,11.6-2,17.5c-0.1,0.8,0.5,1.8,0.7,2.6
	c0.8-0.4,2.1-0.6,2.4-1.2c0.8-1.5,1.3-3.3,1.8-4.9c0.1-0.4-0.1-1,0-1.5c1.6-9.4,3.1-18.9,4.9-28.2c0.5-2.4,2.1-4.5,3.2-6.7
	c0.2-0.4,1.1-0.8,1.3-0.6c1.5,1,3.7,1.8,4.3,3.3c1.6,4,2.9,7.9,6.6,10.7c4.5,3.5,4.3,9.6,0.7,14.1c-1.7,2.1-2.5,4.9-3.4,7.5
	c-2.6,7.6-4.9,15.3-7.5,22.9c-1.1,3-2.7,5.9-3.9,8.9c-2.3,5.8-4.6,11.5-6.6,17.4c-0.8,2.5-0.8,5.2-1.4,7.8c-0.3,1.4-1.2,2.8-1.3,4.2
	c-0.1,1.3,0,2.6-0.2,3.8c-0.4,2.8-1.1,5.5-1.2,8.3c-0.1,4,0.2,8-3.2,11.2c-0.7,0.7-1,1.9-1.3,3c-1.2,4.8-2.4,9.7-3.4,14.5
	c-1,4.9-1.3,9.9-2.7,14.7c-1.3,4.7-2.3,9,0.7,13.4c0.7,1-0.4,3.3-1.7,5c-3.4-5.7-6.7-11.3-10.1-17c-0.3-0.4-0.5-1.1-0.9-1.2
	c-4.7-1.5-3.3-5.3-3.4-8.5c-0.3-8.8-0.7-17.6-0.8-26.4c-0.1-5.6,0.2-11.2,0.1-16.7c0-1.6-0.7-3.2-1.7-4.8c-2.7,3.3-1.9,7.1-1.8,10.8
	c0,3.1-0.3,6.3-0.7,9.4c-0.5,3.9-1.1,7.9-2,11.8c-0.9,4-2.1,7.9-3.2,11.8c-0.7,0-1.3,0-2,0c-1.2-4.1-2.5-8.2-3.8-12.7
	c-0.9,0.9-1.7,1.3-1.7,1.7c-0.1,5.1-2.5,10-0.8,15.2c1.3,4.1,3.3,7.8,5.5,11.5c1.7,3,0.2,8.1-0.4,12.2c-0.3,1.6-2,3-3.5,5.1
	c-0.9-1.8-1.6-3.1-2.7-5.3c-0.4,6.5,2,13.6-6.1,16.7c-0.2-0.7-0.7-1.4-0.6-2c0.5-3.3,1.7-6.6-3.4-7.8c-0.7-0.2-0.6-3.8-1-6.4
	c-4.2-2.6-4.5-8.2-6.3-12.9c-0.4-1-0.2-2.3-0.7-3.3c-0.4-0.7-1.5-1.3-2.3-1.4c-0.5,0-1.7,0.9-1.7,1.5c0,3.7-2.7,7.1-0.9,11.3
	c0.7,1.6-1.5,5-3.2,6.7c-1.6,1.6-1.5,2.7-1.6,4.8c-0.2,3.8-1.8,8-4.1,11c-2.2,3-4.5,5.2-4.1,9.3c0.3,3.2-1.8,5.4-5.6,5.2
	c-0.1,2.6-0.3,5.1-0.4,7.8c-5.8-1.3-10.9-2.6-16-3.7c-0.1-5.8-2.9-8.8-8.1-9.7c-4-0.7-8-1.9-12.1-2.4c-1-0.1-2.2,1.4-3.4,2.2
	c-1.2,0.7-2.4,1.4-3.6,2c-0.2-1.3-0.6-2.5-0.6-3.8c0-1.4,0.5-2.7,0.4-4.1c-0.1-1.2-0.5-2.5-1-3.7c-0.1-0.3-2.1-0.2-2.3,0.2
	c-0.5,1.1-1,2.5-0.8,3.7c0.6,3.6-1.8,7.7-5.5,8.9c0.4-2.2,0.8-4.4,1.2-6.7c-0.3-0.1-0.6-0.3-0.9-0.4c-0.6,0.9-1.1,2.3-2,2.6
	c-2.4,1-5,1.7-7.5,2c-0.6,0.1-1.7-2.3-2.1-3.7c-0.6-2.4-1.8-2.5-3.5-1.4c-0.9,0.6-1.6,1.4-2.9,2.6c-0.5-1.3-1.2-2.2-1.1-3
	c0.1-6.5-3.2-11.6-6.6-16.7c-1.1-1.6-2.8-2.7-4.2-4.1c-0.8-0.8-2.1-1.5-2.2-2.4c-0.7-5.5-5.1-8.3-8.1-12.3c-0.8-1.1-2-2.3-2-3.4
	c0-1.8,0.8-3.6,1.3-5.4c1.6,0.9,3.3,1.6,4.7,2.7c2.1,1.7,3.8,4.3,6.2,5.2c3.7,1.4,5,4.2,6.4,7.3c0.6,1.3,0.8,3.4,1.8,3.9
	c2.1,1,4.9,2.2,6.9,1.7c4.4-1.1,4.3,1.6,4.5,4.2c0.1,2.2,0,4.4,0.9,6c1.4,1.2,3.2,2.2,4.1,3.8c1.9,3.6,7.6,4.3,10.3,1.3
	c1.4-1.5,3.3-2.6,5.1-3.4c2.2-0.9,6.4-7.9,5.9-10.3c-0.3-1.4,0.1-3-0.2-4.4c-0.3-1.2-1-2.4-1.3-3.1c0.7-3.9,1.5-7.4,1.8-11
	c0.1-0.7-1.9-1.6-2.9-2.5c-1.5-1.4-3.9-2.8-4.2-4.5c-0.6-3,1.8-5.1,4.7-5.9c4.4-1.3,8.9-2.3,13.4-3.5c1.9-0.5,4-0.9,5.7-1.8
	c0.8-0.4,1.6-2.7,1.2-3.2c-2.3-2.6-0.6-4.2,1.3-5.4c4.9-3,9.9-5.7,14.8-8.5c5.7-3.3,11.5-6.4,17.2-9.8c0.9-0.5,0.8-2.5,1.6-3.4
	c1.2-1.5,2.8-2.7,4.3-4c0.4,1.3,1.2,2.6,1.3,4c0.2,3.7,0.1,7.3,0.1,11.6c3.1-1.5,4.5-2.7,3.5-5.5c-0.3-1,0.5-2.4,0.9-3.6
	c0.3-0.7,1.2-1.2,1.2-1.8c0.1-5.6,4.2-4.3,7.5-4.6c2.3-0.2,4.5-0.4,7.8-0.7c-0.1,1.1-0.3,2.9-0.5,4.8c-0.1,1.3-0.5,2.7,0,3.8
	c1.3,3.4,3.3,6.5,4.4,9.9c0.5,1.4-0.7,3.3-0.8,5.1c-0.1,1.8,0.2,3.7,0.3,5.5c0.5,0,1,0,1.5,0c0.4-3,0.6-6.1,1.3-9
	c0.7-2.8,1.8-5.5,1.9-8.7c-0.6,1.3-1.3,2.6-1.9,3.8c-0.4,0-0.8,0.1-1.2,0.1c-0.5-3-1-5.9-1.5-8.9c-0.6-3.4-1-6.9-1.9-10.2
	c-0.6-2.4-0.4-3.9,1.6-5.5c3.8-3.2,4.6-6.9,2.1-11.2c-5.5-9.6-13.4-17-23-22.4c-1.6-0.9-3-2.3-4.6-3.1c-5.5-2.6-11.1-4.9-16.5-7.7
	c-3.3-1.7-5.6-4.2-5.7-8.4c0-1.5-1.9-3.5-3.4-4.3c-4-2-6.1-4.6-4.9-9.3c0.5-1.8,0.1-2.8-2.1-3.4c-1.3-0.4-2.2-2.6-2.9-4.2
	c-1.7-3.9-3-4.4-5.1-2.2c-6-3.9-11.8-7.9-17.7-11.6c-1.3-0.8-3.2-0.7-4.8-1c-0.1,1.5-0.5,3.2-0.1,4.6c1.1,3.4,2,6.6,5.4,9.2
	c3.9,3,6.4,8,9.1,12.5c0.8,1.3,0.1,3.6-0.1,5.4c-0.1,1.5-0.5,3.1-0.9,5.2c5.8-2,7.9,1.9,10.2,5.1c1.8,2.5,3.5,4.4,5.9,0.5
	c1.4,1,2.7,1.8,3.7,2.8c5.8,5.4,13.3,7.5,20.3,10.6c0.8,0.4,1.8,0.6,2.3,1.2c0.9,1,1.5,2.2,2.2,3.3c-1.2,0-2.5,0.2-3.7,0.1
	c-3.1-0.4-6.1-0.9-9.1-1.5c-7.2-1.5-14.4-3-21.6-4.5c-0.6-0.1-1.3-0.3-1.7-0.7c-6.5-5.4-12-0.5-18.2,1.5c-2.2-5.1-6.7-1.1-10.3-1.7
	c1.2-6,3.6-8,7.2-6.6c2.6-1.9,5.2-3.4,7.3-5.4c1.5-1.5,3.1-3.7,3.3-5.7c0.3-2.8-1.8-4.1-4.7-4.6c-5.7-1-11.3-2.5-17.1-0.3
	c-0.2,0.1-0.6,0.2-0.7,0.1c-3-4-5.3-0.4-8.2,1.5c-0.3-2-0.5-3.3-0.7-4.8c-2.9,0-5-0.9-4.3-4.4c-0.4,0-0.8,0-0.8,0.1
	c-1.1,8-7.4,10.2-13.7,12.5c-1.1,0.4-2.2,1.3-3,2.2c-2.7,3.2-5.2,2.5-8.1,0.2c-1.8-1.4-4.1-2.3-5.8-3.8c-3-2.7-5.7-5.6-8.4-8.5
	c-0.9-0.9-1.7-2-2.5-3c-0.3,0.2-0.7,0.3-1,0.5c0.5,1.8,1.1,3.5,1.5,5.3c0.2,0.9,0,2,0,3c-1-0.2-2.2-0.1-3.1-0.5
	c-1-0.4-1.8-1.4-2.9-1.7c-2.2-0.6-4.6-1.4-4.4,2.6c0.1,1.2-1.3,2.5-2,3.8c-1-0.7-2-1.5-3-2.1c-0.7-0.4-1.6-1-2.2-0.8
	c-0.8,0.3-1.8,1.2-1.9,1.9c-0.2,1.6,0.1,3.2,0.4,4.8c1.1,5.7,2.6,11.4,3.5,17.2c0.8,5.6,0.4,11.1-2.9,16.2c-1.1,1.7-1.9,4.1-1.6,6
	c1.3,7.3-2,13.4-6.1,21.1c-0.7-1.4-1.4-2.9-2.3-4.2c-0.5-0.8-1.3-2.1-2-2.1c-5.4-0.4-5-4.9-6.8-8.3c-2.4-4.4-2.9-9.7-7.2-13.5
	c-2.4-2.1-2.6-6.7-3.8-10.1c-0.6-1.8-1.1-3.8-2.2-5.1c-1.6-2-2.5-3.5-2.5-6.4c0-2.2-3-4.5-4.7-6.7c-0.2-0.3-0.6-0.4-0.9-0.6
	c-4.2-3-4.4-18.6,1.9-21.7c2.3-1.2,5.6-0.9,8.4-0.7c3.9,0.3,5.9-1.5,7.5-4.8c1.9-4,4-7.9,6.5-11.6c2.3-3.6,7.6-2.9,9.8,0.7
	c0.7,1.2,2.1,2.1,3.4,2.5c0.5,0.2,1.9-1.3,2.4-2.3c0.9-2,1.3-4.2,2-6.3c0.5-1.3,1.1-2.6,2-4.7c3.4,5,2,9.1,1,13.1
	c-0.3,1.2-1.4,2.5-1.1,3.5c0.5,1.9,1.7,3.5,2.7,5.2c1-1.2,2.6-2.3,3-3.7c2.9-9.6,5.6-19.3,8.2-29.1c1.3-4.9,2.2-9.8,3-14.8
	c0.5-2.9,0.5-3,4.5-2.3c-0.8-1.4-1.4-2.4-1.9-3.4c-0.6-1.2-1.5-2.4-1.7-3.7c-0.9-7.1-2.5-14.3-2.1-21.3c0.8-12.1-5.6-22-8-33.1
	c-0.3-1.4-2.9-3.5-3.6-3.3c-2.6,1-6.1,2.4-7,4.5c-3,7.2-2.7,7.7-10.4,6.3c-4.9-0.9-8.8,1.5-13.2,2.6c-3.2,0.8-6.6,1.8-7.4-3.2
	c-0.1-0.5-0.8-1-1.3-1.2c-3.9-1.9-7.9-3.8-11.8-5.7c-1.9-1-3.5-2.1-1.3-4.5c2.1-2.3,0.9-3.7-1.8-3.8c-3.6-0.2-4.3-1.5-1.9-4.3
	c0.5-0.6,1.2-1.8,0.9-2.3c-1.9-3.8-0.5-6.8,1.8-9.8c1.3-1.7,0.6-3.1-1.2-4.6c-3.6-3.1-6.9-6.5-9.9-10.1c-0.7-0.8-0.3-3.2,0.5-4.3
	c2.3-3.1,4.7-6.1,7.5-8.7c2.6-2.4,1.6-4.4,0.1-6.5c-1.7-2.4-3.3-1.6-5.3,0c-1.9,1.5-4.3,2.4-6.6,3.4c-0.5,0.2-1.3-0.1-2-0.2
	c0.2-0.7,0.4-1.5,0.7-2.2c0.6-1.4,1.2-2.9,2.1-4.1c1.7-2.4,3.4-6.2,5.6-6.6c6.3-1,10.4-4.1,13.5-9.3c1.8-3,6.6-3.7,8.8-1
	c1.2,1.4,1.1,3.8,1.7,6.2c2.3-0.8,5.8-1.7,8.9-3.3c1.3-0.7,1.7-2.9,2.5-4.4c-1.4,0.1-3,0-4.3,0.5c-2.9,1.1-9.1-0.8-10.2-3.6
	c-0.3-0.8,0.3-2,0.3-3c-0.1-1.7-0.4-3.4-0.6-5.2c-1.4,0.3-2.9,0.4-4.1,1.1c-2.9,1.7-5.3,2.8-8.3-0.1c-1.8-1.7-5-2-7.1-3.6
	c-2.1-1.6-3.6-3.9-5.4-6c4-2.5,4-2.5,7.8,2.2c0.2-0.9,0.4-1.5,0.5-2.2c0.1-0.7,0.1-1.5,0.1-2.2c0.4,0.2,0.8,0.3,1.1,0.5
	c0.8-1.3,1.9-2.5,2.5-3.9c0.5-1.4,0.7-2.9,0.8-4.4c0.2-2.7,1.4-4.1,4-5.2c2.4-1,4.2-3.2,6.4-4.6c1.1-0.7,3.2-1.4,4-0.9
	c5.8,4.1,12.3,4.9,19.1,5.2c0.6,0,1.6,0,1.7-0.3c2.8-5.2,6.4-2.3,9.4-0.7c5.2,2.9,6.7,2.7,11.1-1.4c1.5-1.4,4-2.3,6.1-2.3
	c3.2-0.1,4.7-0.7,4.4-4.2c-0.1-0.9,1.1-2.8,1.7-2.7c4,0.1,4.4-2.2,3.7-5.1c-0.8-3.1-0.1-4.3,3.2-3.7c1.1,0.2,2.6,0.3,3.3-0.2
	c3.6-3,5.8-1.5,8.4,1.5c2.4,2.8,9.7,2.8,12.4,0.2c0.8-0.8,1.7-3,1.3-3.5c-2.3-2.7-0.3-4.5,0.8-6.6c1-1.9,1.9-3.8,2.6-5.8
	c1.2-3.7,3.4-6,8.6-5.6c-1-3.9-1.8-7.4-2.8-10.9c-1.5-5,0.3-9.2,4.7-9.8c1.3-0.2,3.6,1.2,4,2.4c1.1,3,1.4,6.3,2.1,9.5
	c0.7,3.3,2.4,4,5.4,2.3c3.1-1.8,5.4-3.9,3.9-8.1c-0.4-1,0.4-2.5,0.7-3.8c2,2,3.9,4.9,4.8,4.6c3-1,6.3-2.7,4.7-5.9
	c2.5-1.1,5.1-1.7,6.8-3.2c2.3-2.1,3.2-1.6,4.3,0.9c0.5,1.3,1.6,2.4,2.4,3.6c0.5-0.1,1-0.3,1.5-0.4v-15.8c0.3,0,0.5,0,0.8,0
	c1.5,2.6,3,5.3,5.3,9.1c2.4-3.7,3.9-6.2,5.7-9c1.2,1,2.3,2,3.7,3.2c0.7-1.2,1.2-2.1,1.7-3c1-1.7,1.5-2.7,4.4-2.2
	c2.4,0.4,6.1,1.8,8.9-1.5c1-1.2,4.5-0.2,6.8-0.3c-0.1,0.9-0.2,1.7-0.4,2.6c-0.3,1.2-1.5,3.1-1.1,3.6c5.5,6,5.2,13.8,7,21
	c0.1,0.4,0.5,0.8,0.3,0.6c2.1,0,4.4-0.6,5,0.1c0.9,1.2,0.9,3.4,0.9,5.1c0,6.8-0.7,13.7,2.5,20.1c0.3,0.6,0.4,1.5,0.4,2.2
	c0.2,6.8,0.2,13.7,0.5,20.5c0.2,3.4,0.9,6.7,1.4,10.1c-4.6,0.7-5.7,5.3-3,12.7c0.9-2.7,1.3-4.5,2.1-6.1c0.6-1.2,1.5-2.3,2.3-3.5
	c1.4,1,3.3,1.7,4.2,3.1c1,1.6,1.2,3.8,1.7,5.7c0.7,2.9-1,6.2,2.9,8.7c1.6,1.1,0.7,5.8,1,9.1c0.7-0.3,1.6-0.7,2.4-1
	c0.3,0.2,0.7,0.2,0.7,0.4c1.3,3.2,4.6,4.4,6.6,6.6c3.8,4.2,9.1,4.8,13.3,7.7c5.2,3.5,10.3,7.3,15.6,10.8c2.4,1.6,5.6,2.3,7.4,4.3
	c4.8,5.3,9,11.2,13.5,16.8c2.9,3.7,5.9,7.4,9,11c0.4,0.5,1.3,0.6,2,0.9c4.1,1.2,8.3,2.3,12.4,3.6c2.9,0.9,4.2,2.9,4.3,6.2
	c0.1,3.7,1.2,7.3,1.9,11.8c5.9-9.4,11.5-18.4,17.2-27.4c-0.3-0.2-0.6-0.4-0.8-0.6c-2.5,3.1-5,6.2-7.5,9.3c-0.4-0.2-0.7-0.4-1.1-0.6
	l1.2-3.5c-0.2-0.2-0.4-0.3-0.6-0.5c-1.3,1.9-2.5,3.9-4,5.7c-1.2,1.3-2.7,2.2-4.1,3.3c0-2.1-0.3-4.2,0-6.3c0.2-1.1,1.3-2,2-3.1
	c-1.2-1.5-3-2.8-3.3-4.4c-0.3-1.4,0.9-4.4,1.5-4.4c5.4-0.1,9-2,8.8-8.6c0.4,0.1,0.8,0.3,1.2,0.4c0.6,1.3,1.3,2.5,2.1,4.3
	c1.5-2.6,3-5,4.4-7.5c2.5-4.2,3.9-4.7,6.8-1.6c0.4-2.1,1.3-3.9,0.9-5.2c-1.2-4,0.7-7.3,3.1-9.5c1.7-1.6,5.2-1.3,8-1.8
	c0.2,1,0.7,2.1,0.5,3.1c-0.9,4.6-2.1,9.1-3,13.7c-0.5,2.5-0.5,5.1-0.1,7.8c0.3-1.3,0.3-2.7,1-3.7c0.8-1.2,2-2.6,3.2-2.9
	c3.3-0.8,5.3-3.5,4.5-7c-1-4.2-1.7-8.4,1.1-12.2c0.9-1.3,2.3-2.5,3.8-3.1c3.6-1.5,4.1-4.2,3.5-7.8c-0.8-4.3-0.3-9,0.2-13.4
	c0.4-3.8,1.6-7.5,2.4-11.2c-0.5-0.1-1-0.2-1.5-0.4c-0.9,3.7-1.8,7.5-2.6,11.2c-0.3,0-0.6-0.1-1-0.1c-0.2-1.2-0.4-2.5-0.5-3.6
	c-1.6,1.8-3.3,3.4-4.6,5.2c-2.3,3.2-4.3,0.9-6.5-0.3c-0.8,2.4-1.6,4.6-2.5,7.2c-4.2-3.6-3.8-7.3-1.3-10.8c1.5-2.1,1-3.3-0.7-4.7
	c-2.2-1.8-4.4-3.6-6.4-5.6c-5.3-5.5-6.5-12.8-8.1-19.9c-0.1-0.4,0.6-0.9,1.1-1.6c3.7,5,4.1,12.9,12.7,13.2c0.3-3.6-1.6-5.7-4.3-7.2
	c-1.7-0.9-3.2-1.8-1.6-3.9c1.3-1.7,2.2-1.7,3.8,0.1c1.4,1.7,3.2,1,3.9-1.3c1.2-4.2,3.9-6.7,7.9-8.7c1.7-0.8,1.6-5.1,2.2-7.9
	c0.3-1.5,0.3-3,0.5-5c2.6,1.5,4,1.8,3.7-1.5c-0.2-2.6,0.6-5.3,0.6-7.9c0-1.6-0.6-3.3-1.3-4.7c-0.8-1.6-2.2-2.9-3.2-4.3
	c-3.3-4.9-3.8-11.5-9.3-15.2c-1.1-0.7-1.6-2.4-2.2-3.8c-1.2-2.4-1.7-5.1-5.1-5.8c-1.1-0.2-1.9-2.5-2.8-4c-1-1.7-1.7-3.7-2.9-5.2
	c-0.5-0.6-2.3-1.1-2.8-0.7c-2.9,2.3-4.2,0.5-5-1.8c-0.9-2.6-1.7-4.9-5.1-4.9c-0.6,0-1.4-0.7-1.6-1.3c-1.3-3.6-2.5-7.3-3.8-11.2
	c-3.9,1.4-5.2-0.1-3.3-4.7c-1.5,0.2-2.5,0.4-4.1,0.6c-0.5-2.3-1-4.6-1.6-7.2c-0.9,0.8-1.8,1.6-3.2,2.8c-2.2-3.6-2-6.8-0.8-10.4
	c0.5-1.4,0.4-3.3-0.2-4.6c-3.2-7.7-8.8-13-16.8-15.7c-1.2-0.4-2.7-1-3.8-0.7c-3.9,1-6.3-0.3-8.4-3.7c-2.5-4.2-7.3-5.7-12.4-3.5
	c5.5,3.4,10.7,6.1,15.3,9.6c4.2,3.1,8.9,6.1,10.5,11.7c0.3,0.9,0.8,1.8,1.5,2.5c2.4,2.6,5.1,4.9,7.1,7.7c0.9,1.3,1.4,3.8,0.7,5.2
	c-1.8,4.1-1.7,7.2,1.9,10.3c3,2.5,4.8,6.7,8.1,8.4c3.7,1.9,5.3,5.1,7.7,7.9c0.6,0.7,1.8,0.8,2.6,1.3c3,2.2,5.3,4.3,4.9,9
	c-0.6,6.3-0.6,13,1.1,19c1.6,5.6,2.6,11.6,7.2,16.5c2.1,2.2,1,7.3,1.3,11.1c-0.7,0.2-1.3,0.4-2,0.6c-1-2.2-2.3-4.3-2.9-6.5
	c-1.5-5.2-2.3-10.7-4.2-15.7c-1.3-3.4-4.1-6.3-6.6-10c-1.1,1-2.6,2.2-4.6,4c-1-2.3-1.7-4.5-2.9-6.4c-1.5-2.3-3.2-5-5.4-6.4
	c-2.8-1.7-6.4-2-9.5-3.3c-2.2-1-3.7-2.7-2.9-5.7c0.4-1.5-0.4-3.4-1-5c-0.5-1.2-1.7-2.2-2.1-3.5c-1.1-3.1-3.2-3.2-6-2.7
	c-1.5,0.2-3.4-0.1-4.7-0.7c-2.5-1.2-4.8-3-7.3-4.4c-5.1-2.7-10.4-5-15.3-8.1c-3.7-2.4-7-5.5-10.2-8.7c-0.9-0.9-0.7-2.9-1-4.4
	c1.4,0.2,3.1-0.1,4.3,0.6c3.4,1.9,6.7,4.2,10.2,6.6c1.2-2.4,0.9-3.8-1.5-5.1c-3.9-2.2-7.4-4.9-11.9-7.8c6.8-3.7,10.6,2.4,16,1.1
	c-4.7-3.5-9.4-7.1-14.2-10.4c-1.2-0.8-3-0.7-4.4-1.2c-1.1-0.4-2.1-1.2-3.1-1.8c1.1-0.6,2.3-1.7,3.4-1.7c2.3,0,4.7,0.4,6.8,1.2
	c4.1,1.4,8,3,12,4.7c0.8,0.4,1.3,1.4,1.9,2.2c2.3-1.9,3-6.3,1.2-7.8c-0.7-0.6-2.4-0.1-4.2-0.1c-0.2-0.2-1.2-1.7-2.3-1.8
	c-4.9-0.4-6.2-3.6-6.9-7.7c-0.1-0.8-0.9-1.8-1.7-2.3c-3.6-2.1-7.2-3.9-11.5-6.2c0.8,1.4,1.2,2.7,2.1,3.7c0.9,1,2.3,1.6,3.1,2.7
	c1,1.3,1.6,2.9,2.4,4.4c-2.5,1.1-4.9,3.3-7.9,1.3c-3.6-2.3-6.8-2.9-11-0.6c-2.5,1.4-6,1.2-8.6,3.3c-0.3,0.3-2.1-0.7-2.7-1.5
	c-1.1-1.5-1.5-3.5-2.6-4.8c-1-1.1-2.7-1.5-4.6-2.5c0.1-3.4,2.4-6.5,5.6-9c0.6-0.4,2,0.3,3,0.5c1.5,0.4,2.9,0.9,4.7,0.7
	c-1.8-3.7-3.8-7.2-7.9-7.7c-6.5-0.9-13.1-1.2-19.6-1.7c-5-0.4-10-1-15-0.9c-4.5,0-9.1,0.4-13.5,1.4c-3.4,0.8-5.9,0.9-8.5-1.7
	c-4.5-4.5-10.5-3.2-16-3.6c-2.8-0.2-5.6,0.7-8.5,0.9c-2.9,0.2-3.2-1.6-3.5-3.4c-5.1,0.4-9.8-1.7-13.7-5.6c-2.7-2.7-5.1-6.1-8.1-8.5
	c-8.3,0-16.7,0-25,0c-1.9,1.6-3.8,3.3-5.8,4.7c-4.3,3.2-8.7,5.8-13.4,7.3c0.1,0,0.3,0.1,0.4,0.1c1,0.3,2.7,0.7,2.7,1.1
	c0.1,1.3,0,3.3-0.9,4c-3.2,2.7-7.3,4.4-9.9,7.4c-4.7,5.6-11.5,6.7-17.2,10.1c-3.2,1.8-5.8,4.6-8.8,6.7c-2.3,1.7-4.7,2.5-7.3-0.1
	c-1.6-1.6-3.4-0.8-4.4,1.4c-1.3,3.2-2.8,6.4-4,9.6c-0.8,2.1-1.8,2.3-3.7,1.3c-4.3-2.3-6.1-1.3-6.6,3.8c-0.5,5-1,9.9-1.6,14.9
	c-0.3,2.5-0.4,5.2-4.3,4.3c-0.5-0.1-1.8,1-2,1.7c-0.8,2.9-1,5.9-1.9,8.7c-1.1,3.6-2.5,7.2-3.7,10.6c-1.3-0.2-1.5-0.2-1.6-0.3
	c-1.6-1.1-3.2-2.3-4.8-3.4c-0.2,2.2-0.6,4.4-0.6,6.6c-0.1,4,0.1,7.9-0.1,11.9c-0.1,1.1-1.2,2.2-1.8,3.3c-0.8-0.8-2.1-1.5-2.4-2.5
	c-3-8.5-6.1-17-4.4-26.3c0.1-0.7,0.5-1.6,0.2-2.2c-0.6-1.3-1.5-2.6-2.2-3.8c-0.8,1.1-1.9,2-2.2,3.2c-2.8,9.8-1.6,20-2.6,30
	c-0.8,8.6-1.5,17.3-2.4,26.7c-1.2-5.2-2.2-9.8-3.2-14.5l-2.3,0.4c0.5,4.7,0.8,9.4,1.6,14c1.3,8,2.8,15.9,4.3,23.9
	c0.2,1.3,1,2.6,1.3,3.9c3.2,11.5,6.4,23,9.4,34.5c0.9,3.6-1.9,3.6-3.7,4.1c-1.8,2-3.6,3.9-5.3,5.9c-2.5,2.9-4.7,6.2-7.5,8.9
	c-2.8,2.6-6.2,4.5-9.2,7c-1,0.8-2.3,2.4-2.1,3.3c3.1,12.5,6.3,24.9,9.7,37.3c0.3,1.1,1.1,2.1,2,3.7c0.3-2.9,0.6-5.3,0.7-6.6
	c3.2,0.1,5.7-0.3,8.1,0.3c1.2,0.3,2.9,2.5,2.7,3.6c-0.4,3.2-1.6,6.2-2.7,9.3c-0.2,0.6-1.6,1.5-2,1.3c-0.7-0.3-1.5-1.3-1.6-2.1
	c-0.4-1.7-0.4-3.4-0.6-5.3c-3.6,0.4-4.2,2.7-3.5,5.3c1.1,4.1,1.9,8-1.8,11.5c-0.6,0.6-0.1,3.2,0.8,4.1c2,2.1,2.1,3.5-0.3,5.4
	c-3.5,2.8-3.2,3.1,0.3,5.8c1.4,1,2.7,3.2,2.7,4.9c0.1,5.4-0.2,10.7-0.8,16.1c-0.2,2-1.9,3.8-2.9,5.8c-0.5,1-1,1.9-1.2,3
	c-0.1,0.9,0.1,2,0.5,2.9c2.7,7.4,4.8,14.8,4.4,22.8c-0.2,3.7,1.1,7.1,5.5,8.4c1.1,0.3,1.7,2.1,2.7,2.9c2.5,2,4.8,4.6,7.7,5.8
	c5,2.1,10.1,11.8,8,16.9c-0.1,0.3-0.3,0.7-0.6,0.9c-1.1,0.6-2.3,1.2-3.4,1.8c2.1,3.8-2.5,8.5,2,12.2c2,1.7,2.7,4.8,4,7.3
	c1.4,0.9,3,2,4.7,3.1c1.5,1,3,2.2,4.6,3.1c4.5,2.5,6,6,4.2,10.2c-1-0.2-2.1-0.3-4.4-0.7c2,4.9,3.3,9.4,5.6,13.3c2,3.5,3,6.5-0.1,9.8
	c-0.5,0.5-1.2,1.4-1.1,1.9c1.3,6.7-2.3,14.4,5.1,20.1c4,3,6.2,8.3,9.4,12.5c7.8,10.2,15.7,20.5,23.8,30.5c1.1,1.3,3.5,1.6,5.6,2.5
	c-2.3,5.3,0,11.7,1.2,17.9c0.2,1.1,2.2,2,3.4,2.7c0.9,0.5,2.2,0.4,3.1,0.9c3.7,2.5,3.7,2.5,7.8-0.8c2.6,4,5.4,7.7,7.5,11.8
	c1.8,3.4,2.8,7.2,3.9,10.9c1,3.2,1.2,6.2-2.1,8.6c-3.1,2.2-0.2,4.8,0.6,6.6c4.9,11.4,10.1,22.7,15.6,33.8c2.1,4.2,5.2,7.8,7.7,11.8
	c0.7,1.1,0.6,2.7,0.9,4.7c-1.7-0.7-2.5-1-4.6-1.8c1.1,2.2,1.7,3.6,2.6,4.9c1,1.4,2.1,2.8,3.4,4c0.9,0.8,2,1.6,3.1,1.7
	c1.3,0.2,2.8-0.1,4-0.7c4.9-2.2,9-1,12.4,2.9c1.8,2,3.5,2.6,6.2,1.6c3.3-1.2,6.2,1.5,5.5,4.6c-1.2-0.5-2.5-1.1-3.8-1.6
	c-0.3,1.4-1,2.9-0.8,4.1c0.9,3.9,2.1,7.8,3.4,11.6c0.4,1.3,1.2,2.4,2.1,4.2c-2.3,0.6-4.3,1.2-6.3,1.7c-7.2,1.6-14.2,2.7-21.8,1.4
	c-11.6-2.1-23.2-0.5-34.8,2.2c0.2-0.5,0.2-0.7,0.4-0.9c0.9-1.4,1.8-2.8,2.7-4.2c-2,0.2-4.1-0.1-5.9,0.6c-4.2,1.6-7.9,2.4-12.3,0
	c-5.2-2.8-10.5-3.6-16.3,0.4c-3.9,2.7-8.6,5.2-14.3,3.5c-2.7-0.8-6,0.7-9,1.3c-2.3,0.5-4.6,1.2-6.9,1.8c-4.5,1.3-9,2.5-13.4,4
	c-2.7,0.9-5.3,2.9-8,3c-5.3,0.3-7.4,4.3-10.2,7.4c0.6,2.9,1.5,5.7,2.4,8.5c5.4-2.6,10.9-5.2,16.3-7.8c2-1,4-2.1,5.9-3.1
	c0.3,0.4,0.6,0.8,0.8,1.2c-1.3,1.6-2.9,3-3.6,4.8c-0.6,1.4,0,3.2,0.1,4.8c1.2-0.6,2.5-1.1,3.6-1.7c0.9-0.4,1.7-1,2.8-1.7
	c0.4,1.4,0.6,2.5,0.9,3.6c0.2-0.2,0.4-0.4,0.7-0.6c1.3,1.1,2.5,3,3.9,3.2c1.9,0.3,3.9-0.8,5-1.1c2,0.3,3.6,1,4.8,0.6
	c5.5-1.9,10.9-4.2,16.3-6.4c1.2-0.5,2.4-0.9,4.3-1.6c-21.6,20.5-41.8,41.1-56.9,65.9c0.4,0.3,0.7,0.7,1.1,1c2.2-2.6,4.4-5.3,6.6-7.9
	c15.8-19,32-37.7,51-53.7c2.5-2.1,4.9-5.1,9-4c0.4,0.1,1.3-1.4,2-2.2c0.8-1,1.4-2.8,2.4-3.1c4.9-1.5,9.9-2.6,14.9-3.7
	c0.8-0.2,1.7,0.1,2.9,0.3c-0.4,1.5-0.7,2.7-1,4c2.2-0.1,4.3-0.2,6.4-0.3c-0.1-0.2-0.2-0.4-0.3-0.6c2.1-0.9,4.1-2.4,6.2-2.6
	c4.2-0.4,8.5-0.2,12.7-0.1c0.6,0,1.2,0.3,1.8,0.5c5.1,2.3,10.2,4.7,15,6.9c0.2-0.1-0.6,0.3-1.5,0.5c-0.8,0.2-2.2,0.1-2.5,0.6
	c-1.9,3.8-4.8,6.3-9.4,7c0.3,0.6,0.5,1.2,0.8,1.8c2.3-0.6,5-0.6,6.7-1.9c2.5-1.9,4.6-2.3,7.5-1c3.4,1.5,6.9,2.6,11.5,4.3
	c-3,1.8-5.2,2.9-7.2,4.4c-2.8,2-5.5,4.2-8.1,6.5c-5.5,4.9-8.8,4.8-14.2-0.8c-2.3-2.3-4.4-4.8-6.7-7c-0.9-0.8-2.2-1.2-3.4-1.8
	c-0.3,0.4-0.6,0.8-0.9,1.2c1.8,2.4,3.4,5,5.4,7.3c3.9,4.4,4.1,2.6,0.4,9.6c-1.6-1.2-3-2.5-4.6-3.4c-1-0.6-2.3-0.7-3.5-1
	c0.1,1.5-0.4,3.4,0.3,4.4c1.8,2.4,4.5,4.1,6.1,6.5c1.1,1.7,0.9,4.2,1.3,6.4c0.3,1.7,0,4.1,1.1,5.1c2.9,2.6,6.4,4.6,9.7,6.9
	c0.5,0.3,1.4,0.4,1.6,0.8c2.1,4.4,4.2,8.7,6,13.2c0.3,0.7-0.8,2.2-1.6,3.1c-0.2,0.2-1.6-0.9-2.5-1.1c-1.4-0.3-2.8-0.5-4.2-0.5
	c-2,0-4.6,1-5.8,0.1c-3.2-2.3-6.5-0.5-9.6-1.3c-1.7-0.5-3.6-1-4.8-2.2c-0.6-0.6,0.3-2.6,0.4-3.9c-4.1-0.5-3.9-0.4-5.9,3.3
	c-0.6,1.1-2.8,1.4-4.8,1.8c2.7-6.3-3.4-5.4-5.3-7.6c-0.3-0.4-2.6,0.2-3.2,0.9c-1.7,1.9-2.9,4.2-4.5,6.6c0.6,1.5,1.3,3.5,2,5.4h100.5
	c-0.8-2.4-0.4-3.7,2.5-4.6c3.4-1.1,6.5-3.2,9.8-4.8c6.8-3.5,13.7-6.9,20.5-10.5c2-1.1,3.6-3,5.5-4.5c0.9-0.7,1.6-1.6,2.6-2
	c8.1-3.4,16.3-6.7,24.4-10.2c1.1-0.5,1.7-2,2.5-3.1c-1.1-0.5-2.3-1.4-3.4-1.3c-4.3,0.4-8.5,1.1-13.1,1.3c3.6-2.1,7.4-4,10.9-6.3
	c5.2-3.4,10.1-7.1,15.3-10.5c1.2-0.8,3.1-0.5,4.7-0.8c1.8-0.4,4.4-0.5,5.1-1.6c4.3-7,11.2-10.5,17.9-14.4
	c22.9-13.3,45.3-27.3,66-43.9c0.3-0.2,0.5-0.7,0.9-0.7c10.4-1.7,14.4-11.2,20.8-17.6c6.9-6.8,13.3-14.6,17.9-23
	c3.4-6.3,7.3-12,11.4-17.7c1.9-2.6,3.7-3.3,6.7-2.2c1.1,0.4,2.7,0.2,3.6-0.4c0.5-0.3,0.4-2.3-0.1-3.2c-1.8-3.4-1.2-6.2,1.1-9.2
	c1.7-2.2,2.7-4.9,3.7-7.5c0.9-2.2,1.8-3.6,4.6-3.1c3.3,0.6,6.7,0.7,10,1V570C589.2,569.8,586.5,567,586.8,561.6z M470.4,402.6
	c-0.9-1-2.4-1.9-2.7-3.1c-0.5-1.9-0.1-4-0.1-6l2.1-0.2c0.7,2.8,1.5,5.6,2.2,8.4C471.4,402,470.9,402.3,470.4,402.6z M403.4,477.8
	c2.2,2.6,4.5,5.2,6.4,8.1c0.8,1.3,0.8,3.2,0.7,4.8c0,0.5-2.1,1.4-2.7,1.1c-1.4-0.9-2.9-2.1-3.6-3.5c-1.6-3.6-2.7-7.4-4.4-12.4
	C401.6,476.8,402.7,477.1,403.4,477.8z M199.9,389c4.1-3.1,8-2.1,9.8,2.8c0.2,0.6-1,2.6-1.5,2.5c-4.1-0.1-8.3-0.4-13.4-0.8
	C197.2,391.3,198.5,390.1,199.9,389z M517.8,245.5c0.4-0.1,0.8-0.2,1.2-0.3c1.4,1.9,3,3.7,4.1,5.8c0.3,0.5-1.1,1.8-1.7,2.8
	c-1.4-1.9-3-3.8-4.2-5.9C516.9,247.4,517.6,246.3,517.8,245.5z M512.6,132.9c-0.5-1.8-0.1-3.8-0.1-5.3c1.5,1.3,2.6,3.2,4.1,3.5
	c3.9,0.9,5.6,2.9,4.5,7.1c2.5-0.2,4.5-0.4,6.6-0.6c0.3-0.3,0.7-0.5,1-0.8c2.1,4.8,4.9,9.3,6.3,14.3c1.7,6.2-5,9-7.2,13.5
	c1.5,1.1,2.6,1.9,3.9,2.9c0.5-0.4,1.1-1,1.8-1.6c0.2,0.4,0.5,0.7,0.6,1c0.9,3.3,2,6.7,2.7,10c0.4,1.9,0.6,4.2-2.9,3.4
	c-1.1-0.2-2.6,1.1-3.7,2c-1,0.7-1.7,1.9-2.5,2.8c-0.5,0-1.1-0.1-1.6-0.1c-1.1-5-2.1-10.1-3.3-15.1c-1.7-7-3.3-14-5.2-21
	C516,143.6,514,138.3,512.6,132.9z M486.5,196.7c3.1,2.6,6.2,5.2,9.2,7.9c1.3,1.1,2.4,2.5,3.7,3.7c2.1,1.9,2.6,3.8,1,6.3
	c-1.1,1.8-2.1,2.1-3.9,0.6c-1.1-0.9-2.7-1.3-4.3-2.1c-2.2-5-4.5-10.1-6.9-15.3C485.7,197.4,486.1,197.1,486.5,196.7z M458.8,149.7
	c2.5,3.6,4.3,7.3,2.8,12.1C456.9,152.1,456.9,152.1,458.8,149.7z M452.4,201.5c3.6,3.2,3.5,4.5-0.9,8.3
	C449.7,206.6,450.2,204.1,452.4,201.5z M400.5,136.2c1.4,2.2,2.9,4.5,4.2,6.6c0.1-0.1,0.4-0.5,1.2-1.6c0.9,3,1.7,5.2,2.7,8.4
	C402.9,146.4,398.6,142.6,400.5,136.2z M441.6,243.1c-0.5,0-1,0-1.5,0c-0.3,0-0.7,0-1,0c-0.5,0-0.9-0.2-1.2-0.4
	c-3.1-2-6.4-3.9-8.7-6.6c-1.7-2-2-5.1-3.1-8.2c-0.8,0.9-1.2,1.5-1.7,1.8c-0.6,0.4-1.4,0.5-2.1,0.8c0-0.8-0.3-1.8,0.1-2.4
	c1.3-1.9,2.9-3.7,4.1-5.2c5,5.8,9.7,11.2,14.2,16.7c0.3,0.3,0.4,0.7,0.5,1.2c0.1,0.5,0.1,1,0.2,1.4
	C441.5,242.4,441.6,242.8,441.6,243.1L441.6,243.1z M441.1,195.5c-2.5-2.7-4.7-5.6-7.4-8.1c-1.2-1.1-3.4-1.2-4.9-2
	c-1.2-0.7-2.6-1.6-3-2.8c-0.6-1.6-0.5-3.6-0.5-5.4c0-0.1,1.5-0.7,1.9-0.4c5.6,3.8,12.2,6.6,14.7,13.7c0.5,1.4,0.5,3,0.7,4.4
	C442.1,195.1,441.6,195.3,441.1,195.5z M429.2,139.5c0.7-2.7,3-2.3,3.9-0.1c1.7,4.3,2.8,8.9,4.3,13.4c0.4,1.3,1.4,2.3,2.2,3.4
	c0.9,1.3,1.8,2.6,2.6,3.8c-0.6,0.4-1.1,0.9-1.7,1.3c-1.6-1.5-3.2-3.1-4.9-4.5c-0.6-0.5-1.5-0.4-2.1-0.8c-2-1.3-5.4-2.6-5.6-4.2
	C427.5,147.8,428.2,143.5,429.2,139.5z M443.4,101.7c2.5,0.9,3.8,6.6,2,8.5c-0.5,0.6-1.9,1-2.5,0.7c-6.3-3.4-10.7-8.9-14.8-14.6
	C433.2,98.1,438.4,99.8,443.4,101.7z M422.8,102.1c-0.1,0.9,1.1,2.1,2,2.8c4.6,3.3,9.2,6.6,13.9,9.7c4.6,3,4.8,9.8,0.2,13.2
	c-0.9,0.7-1.9,1.2-3.3,2.1c-1.8-4.5-6.8-7.3-5.7-13.1c0.2-1.2-0.7-2.7-1.2-4c-0.7,1.3-1.5,2.5-2.2,3.8c-0.3,0.5-0.3,1.1-0.5,1.7
	c-3.9-3.5-7.6-6.8-11.2-10.2c-0.8-0.7-1.8-1.6-2.1-2.5c-0.4-1.2-0.6-2.8-0.1-3.8c0.3-0.6,2.1-0.7,3.3-0.7c1.2,0,2.4,0.3,3.6,0.5
	c0.3-0.5,0.5-1,0.8-1.5c-1.1-0.5-2.1-1.5-3.2-1.6c-4.1-0.2-7.6-3.5-7.9-7.6c-0.2-2.6,1.4-3.5,3.2-2.4
	C417.6,91.7,423.6,94.3,422.8,102.1z M406.8,72.7c4.4,0.9,7.7,4.1,7.6,7.4C408.8,78.6,406.3,76.1,406.8,72.7z M394.2,87.2
	c1-2,2.9-3.9,4.9-4.9c1.8-0.9,7.8,3.8,7.9,6.8c-0.9,0.8-2.2,2.8-3.8,3.1C400.3,92.9,393.5,88.7,394.2,87.2z M391.6,83.9
	c0.3,1.2,0.5,2.5,0.8,3.7c0.5,2.1,1,4.2,1.4,6.3c0.2,1-0.1,2.1-0.1,3.1c-1-0.1-2.3,0.1-3.1-0.4c-2-1.3-4.1-2.5-2.2-5.8
	c1.2-2,1.1-4.7,1.5-7.2C390.5,83.8,391.1,83.9,391.6,83.9z M386.7,42.3c0.6-0.2,2.7,2,2.5,2.6c-0.7,2.4-0.8,5.5-4.6,5.9
	c-1.2,0.1-3.4,2.5-3.1,3.3c1.8,6.8-4.4,10.4-5.6,16.5c-2.4-2.7-3.2-4.3-0.7-6.7c1-0.9,0.8-3.9,0.2-5.5c-0.5-1.1-2.6-2-4.1-2.2
	c-2.4-0.4-4.8-0.2-5.5-3.3c-0.6-2.4-0.6-4.3,2.5-5.2C374.3,46.1,380.4,44,386.7,42.3z M353.6,39c4.3-0.8,8.6-1.3,12.9-1.7
	c1.5-0.1,3,0.5,4.6,0.9c0,0.5,0.1,1.1,0.1,1.6c-5.5,1.5-11,3-17.2,4.7c1.5,2.6,3.1,5.4,4.9,8.6c-4.1,0.3-8.4-3.2-9.5-7.1
	C347.7,40.3,347.6,40.1,353.6,39z M150.6,247.1c-1.9,2.6-4.2,4.9-6.5,7.2c-2.6,2.7-2.5,4,0.8,6.2c1.6,1.1,3.3,2.2,4.5,3.7
	c2,2.5,1.3,5.1-0.8,7.4c-2.4,2.5-5,2.1-5.9-1.2c-1.7-6.1-3.3-12.2-4.2-18.5c-0.2-1.5,2.1-3.8,3.7-5c2.7-1.9,5.7-3.2,8.6-4.8
	c0.4,0.1,0.8,0.2,1.3,0.3C151.6,244,151.5,245.8,150.6,247.1z M174.2,408.1c0.2-0.1,0.5-0.2,0.7-0.3c2.2,2.1,4.4,4.2,6.9,6.4
	c-1.6,0.7-3,1.4-5.3,2.4C175.7,413.8,175,410.9,174.2,408.1z M186.4,430.7c-3.4-3.3-8.6-5.1-9.1-10.5c3.6,0.3,6.7,0.5,10.3,0.8
	c-1.1,1.5-1.7,2.4-2.5,3.4C186.8,426.2,190.2,427.5,186.4,430.7z M187.5,372.8c-3.1,2.2-3.5,5.4-3.9,8.5c-0.4,3.7-2.2,5.2-5.7,5.6
	c-1.8,0.2-3.6,0.9-6.6,1.7c-1.5-1.6-3.9-3.3-5.1-5.6c-0.7-1.2,0.1-4.2,1.2-5.2c4.6-4.3,9.5-8.2,14.4-12.2c3.6-2.9,5.2,0.8,6.8,2.6
	C189.4,369.1,188.6,372.1,187.5,372.8z M315.4,492.6c0.4-1,0.8-1.9,1.1-2.9c0.1-0.4,0-0.9,0-2c3.4,3.5,7,5.3,11.4,4.1
	c0.9-0.2,1.9-1.3,2.1-2.2c0.9-3.7,2.9-5.2,6.5-4.7c0.6,0.1,1.4,0.4,1.8,0.1c3.8-2.9,7.1-1.9,10.3,1.1c0.4,0.4,1.4,0.7,1.7,0.4
	c5.1-3.8,9.7-1.1,14.3,1c0.3,0.1,0.7,0.1,1.2,0.1c0.2-0.4,0.3-0.9,0.6-1.3c1.3-1.7,1.7-4.9,5.1-3.3c3.9,1.8,5.9,5.6,4.2,8.7
	c-1.5,2.6-4,2.6-7,2.2c-2.8-0.3-6.8,0.1-8.6,1.9c-3.7,3.7-8.1,3.3-12.4,4.1c-7,1.3-14,2.4-21,3.5c-0.5,0.1-1.1-0.2-3-0.5
	c2.2-1.5,3.4-2.3,5.6-3.8c-3.5,0-5.8-0.1-8.2,0.1c-1.5,0.1-2.9,0.8-4.3,1.1c-5.6,1.5-5.6,1.5-11.5-0.5c1-2.2,2-4.4,3.3-7.5
	c-2.6,1.1-4.5,1.8-7.6,3.1c2.9-3.6,5.1-6.4,7.7-9.7c1.5,1.7,2.8,3.2,4.2,4.6C313.8,491.3,314.6,491.9,315.4,492.6z M307.9,460.1
	c0.5,0.4,1.1,0.5,1.6,0.9c1.3,1.1,2.6,2.1,3.6,3.4c0.2,0.3-1,2.2-1.7,2.4c-1.8,0.3-3.9,0.4-5.5-0.2c-2.2-0.9-4-2.5-6.4-4.1
	C301.2,457.5,303.3,456.8,307.9,460.1z M283.6,493.2c1.4-2.2,3-1.7,5-0.3c0.7,0.5,2.6-0.6,5.1-1.3c0.5,0.1,2.2,0.4,3.7,0.8
	c0.4,1.7,0.8,3.7,1.2,5.8c0.1,0.5,0,1.4-0.3,1.6c-0.5,0.3-1.4,0.4-2,0.2c-3.7-1.9-7.1-0.7-10.6,0.8c-0.8,0.3-2.4,0.1-3-0.6
	C280.2,497.6,282.3,495.3,283.6,493.2z M252.3,533.4c-1,0-1.9-0.2-3.9-0.5c1.3-0.9,1.7-1.4,2.2-1.6c9.3-3.1,18.3-8,28.7-6.5
	c2.5,0.3,5.3-1.1,7.9-1.7c0-0.1,0.1,0.2,0,0.3c-0.8,1.6-1.7,3.2-2.6,4.8c0.2,0,0.5,0.1,0.7,0.1c1.8,0.4,3.6,1.1,5.1,0.7
	c4.2-1,8.2-1.9,12.1-4.8c3.6-2.6,9.3-5,14.7-2.3c0.7,0.3,2.1-0.4,2.9-1c8.6-6.2,18-9.9,28.7-10.5c5.3-0.3,10.8-0.4,15.8-2
	c4.3-1.3,7.9-4.7,11.9-7.1c0.9-0.6,1.9-1,2.9-1.5c0.1,1.2,0.7,3,0.2,3.6c-2,1.9-4.5,3.3-6.7,5c-1.1,0.8-2.7,1.5-3.1,2.5
	c-1.4,3.8-4.9,3.7-7.7,3.8c-6.4,0.2-11.4,3.3-16.1,7c-6.7,5.3-10.7,13.3-19.1,17c-5.1,2.2-10,3.5-15.5,3.5c-3.1,0-6.2,0.1-9.3,0.1
	c-0.8,0-1.9,0-2.5-0.4c-5.6-3.8-11.6-5.7-18.5-4.6c-2.1,0.3-4.2,0-4.8-3c-0.1-0.7-2-1.4-3.1-1.4
	C266.5,533.1,259.4,533.3,252.3,533.4z M254.9,557.6c0.5-0.2,1.1-0.3,1.6-0.5c1.3,4,2.6,8.1,3.9,12.1
	C255.8,566.4,252.8,562.9,254.9,557.6z M268.1,568.9c0.7,3.7,1.4,7.1,2.2,11.6C266.2,577.3,265.2,570.7,268.1,568.9z M319.2,697.6
	c0.3,4.3,0.6,7.8,0.7,11.3c0,0.7-0.9,2-1.6,2c-1.4,0.2-2.8-0.2-5.6-0.5c5.7-3.9,2.4-6.5-0.1-9.6C315,699.7,316.8,698.8,319.2,697.6z
	 M296.7,694.2h18.3C309.8,699.3,304,699.4,296.7,694.2z M300.7,710.4c3.9-2.2,7.7-1,9.9,3.1C303.9,714,302.6,713.5,300.7,710.4z
	 M287.2,758.5c-2.2-1.8-4.9-3.4-6.3-5.7c-1.5-2.3-1.7-5.4-2.8-9.3c5.7,3.8,7.9,9,10.9,13.6C289,757.2,287.4,758.7,287.2,758.5z
	 M295.7,764.4c-1-3.2-1.7-6.5-2.7-9.8c-1.1-3.3-2.5-6.5-3.8-9.9c3.6-1.5,5.4-3.3,1.6-6.4c-0.4-0.4,0.1-3.1,1-3.7
	c5.9-3.9,12.1-7.4,18.1-11.1c1.9-1.1,3.7-2.2,5.7-3.4c2.8,6.4,4.8,12.7,8.1,18.1c2.2,3.6,6.6,5.8,9.8,8.8c1.2,1.1,2.3,2.9,2.3,4.4
	c0,1.3-1.2,3.4-2.4,3.9c-9.6,3.9-19.4,7.7-29.2,11.2c-2,0.7-4.4,0.5-6.6,0.2C296.8,766.7,296,765.3,295.7,764.4z M329.6,769.4
	c-0.8,0.2-1.8,0.2-2.5,0.7c-7.2,5-15.6,5.5-23.9,5.8c-1.2,0.1-2.4,0.4-3.9,0.7c-0.2-3.1,3.2-6.1,7-7.1c4.8-1.3,9.6-2.6,14.3-4.3
	c4.3-1.6,8.4-3.7,12.6-5.5c0.7-0.3,1.4-0.3,2.1-0.4C337.1,765.9,335.9,767.9,329.6,769.4z M357.8,753.4c-1.4,0.7-2.6,1.8-3.9,2.7
	c-3.3,2.4-6.6,4.9-10,7.2c-0.5,0.3-2.1-0.1-2.4-0.6c-1.5-2.5,0.2-6.9,2.9-8c4.5-1.8,8.9-3.8,13.5-5.3c1.5-0.5,3.5,0.2,5.2,0.4
	c0,0.5,0,0.9,0,1.4C361.3,751.9,359.5,752.5,357.8,753.4z M384.3,739.5c-0.3-0.1-0.9,0.4-1.1,0.8c-2.5,4.5-7.1,5.6-11.3,7.5
	c-2.9,1.3-3.5,0.9-6.1-2.4c8-4,15.8-7.9,23.7-11.9c0.2,0.3,0.5,0.7,0.7,1C388.2,736.2,389.2,740.8,384.3,739.5z M392.8,666.5
	c-0.5,0.3-1,1.6-0.8,1.9c3.2,4.2-0.6,7.8-1,11.6c-0.8,6.6-2.7,13.1-4.6,19.6c-0.6,2.1-2,4.2-3.6,5.7c-2.3,2.2-5.1,3.8-8.3,6.2
	c-0.2-2-0.3-3-0.4-4.1c-0.3-0.1-0.6-0.3-0.8-0.4c-1.5,2.4-3,4.8-4.5,7.2c-0.4-0.2-0.7-0.3-1.1-0.5c0.7-2,1.5-4,2.1-6
	c0.2-0.7,0.2-1.6,0.2-2.4c0-0.3,0-0.5,0-0.8c-0.1,0-0.3,0.1-0.4,0.1c-0.3,0.1-0.6,0.2-0.9,0.2c-0.7,0.2-1.4,0.4-1.9,0.8
	c-1,1-1.7,2.4-2.6,3.9c-0.6-0.5-1.3-1.2-2.4-2.1c-1.2,3.5-2.2,6.8-3.3,10c-0.4-0.1-0.9-0.2-1.3-0.4c0.5-4.7,0.9-9.4,1.4-14
	c-0.5-0.2-1-0.5-1.5-0.7c-1.5,2.3-3,4.5-4.7,7c-0.4-1.1-0.5-2.6-1.2-3.5c-0.8-1.1-2.1-1.9-3.3-2.7c-0.7-0.5-1.6-0.8-2.4-1.2
	c0.8-0.7,1.6-1.9,2.4-1.9c3.8-0.2,7.7-0.1,11.6,0c2.3,0.1,3.4-0.4,4-3c0.5-2.4,2.7-4.3,3.8-6.6c1.2-2.6,2-5.5,2.7-8.3
	c0.1-0.5-0.7-1.5-1.3-2c-0.3-0.2-1.4,0.4-1.7,0.9c-2.2,3.3-4.4,6.7-6.2,10.2c-0.5,0.9,0.4,2.5,0.7,3.9c-5.7,1.6-8.8,0-11.8-5.7
	c-2.4-4.5-5.2-8.7-7.9-12.9c-0.8-1.2-1.6-2.4-2.4-3.6c-2.4-3.6-4.8-7.1-7.2-10.6c1.1-1.3,2.4-2,3.7-2.4c0.4-0.1,0.8-0.2,1.2-0.3
	c0.7-0.1,1.5-0.2,2.3-0.1c0.3,0,0.6,0,1,0c2.3,0.1,4.6,0.4,6.7-0.1c5.1-1.2,10.3-1.9,15.2-3.4c2.2-0.7,3.9-3,6.2-4.8
	c-1.8-2.4,0.5-3.1,2.6-4.1c3.2-1.5,6.4-3.1,10.5-4c-0.8,2.2-1.8,4.4-2.4,6.7c-0.4,1.3-0.4,2.7-0.5,4.1c1.3-0.6,3-1,3.9-2
	c2.7-3.3,5-6.8,7.6-10.2c1.1-1.4,2.4-2.6,4.4-4c-2.7,4.9-0.1,7,3.5,8.6c0.6,0.3,1.4,1.2,1.3,1.7C397.4,654.4,399.9,662,392.8,666.5z
	 M506.4,411c-0.3,4.7-0.6,9.4-1,14c0,0.4-0.8,0.8-1.4,0.9c-0.3,0-0.8-0.5-1-0.9C501.4,422.3,502.8,413,506.4,411z M500.5,547.3
	c0.6,2.1,1.6,4.2,1.7,6.4c0.2,5.6,1.1,10.8,3.6,16.1c2.1,4.7,2,10.4,2.4,15.7C498.4,577.1,493.9,556.5,500.5,547.3z M496.3,481.4
	c1.2,18.3,2.2,35.6,3.3,53l-2.1,0.1C490.9,517.3,493.9,499.9,496.3,481.4z M494.5,552.5c-0.2-4.8-0.5-9.6-0.8-15.5
	C498,540.6,498.3,547.7,494.5,552.5z M484.6,497c0.2-0.5,1.2-0.5,1.8-0.8c0.3,0.6,0.8,1.3,0.7,1.9c-0.1,1-0.3,2-0.8,2.8
	c-2.5,4.4-5.1,8.8-7.6,13.2c-0.6-0.4-1.2-0.7-1.8-1.1C479.6,507.7,482,502.3,484.6,497z M412,724.2c6.1-4.3,12.3-8.7,19-13.4
	C429,715.5,424.1,719.1,412,724.2z M408,722.2c-0.3-0.4-0.7-0.9-1-1.3c13.3-9.7,26.6-19.5,40-29.2C436,704.5,421.6,712.9,408,722.2z
	 M444.4,706.2c-0.3-0.4-0.6-0.8-1-1.1c6.2-5.8,12.4-11.6,18.8-17.2c2.9-2.5,6.3-4.5,9.4-6.8c0.7-0.5,1.5-1.1,1.7-1.8
	c2.5-8,10.5-11,14.7-17.5c0.4,0.2,0.9,0.4,1.3,0.7c-0.1,1.1-0.3,2.1-0.3,3.2c0,1,0,2.6,0.5,2.9c1,0.4,2.4,0.3,3.4-0.1
	c1-0.4,1.7-1.4,2.4-2.3c1.3-1.8,2.3-3.4,5.1-1.6c0.8,0.6,3.3-0.6,4.5-1.5c3.3-2.8,6.4-5.9,9.6-8.9c0.7-0.6,1.5-1.2,2.4-2
	c0.7,1.3,1.3,2.2,2,3.5C496.7,676.4,470,690.5,444.4,706.2z M513.9,647.9c1-5.1,8.4-12.6,12.5-11.3
	C522,640.6,518.1,644.2,513.9,647.9z M521.7,612.3c-0.6-1.6-0.7-2.3-1.1-2.7c-0.6-0.6-1.4-1-2.1-1.5c-0.4,0.8-1.3,1.8-1.1,2.5
	c1.9,5.3-1.8,8.1-4.8,11.2c-13.7,14.1-27.4,28.3-41.1,42.4c-5,5.2-10.3,10.1-15.5,15.1c-0.8,0.7-1.8,1.2-3.1,2
	c-0.4-1.8-0.7-3.1-1.1-5.2c-2.4,1.1-4.5,2.2-6.5,3.2c-0.1-0.2-0.2-0.3-0.3-0.5c3.6-3.4,7.1-6.9,10.7-10.3c-0.3-0.4-0.7-0.9-1-1.3
	c-0.7,0.2-1.6,0.2-2.1,0.7c-6.1,5.4-11.5,11.9-18.3,16.1c-6.9,4.3-10.3,11.7-17,15.9c-3.2,2.1-6.1,4.7-9.4,6.8
	c-1.2,0.8-2.9,0.6-4.7,0.3c5.5-7.3,12.8-12.2,20.6-16.9c-2.6-1.3-7.9,1.4-15,6.2c0.6-1.2,0.8-2.7,1.8-3.6
	c10.6-9.6,21.3-19.2,31.9-28.8c2.9-2.6,5.8-5.1,8.6-7.8c1.1-1,1.9-2.4,2.4-4.1c-15,9.2-25.5,23.9-41.3,32.2
	c4.4-4.7,8.7-9.4,13.1-14.1c5.2-5.5,10.6-10.9,15.7-16.5c1.1-1.2,1-3.4,1.5-5.2c0.4-1.2,0.7-2.6,1.4-3.6c1.5-2,3.4-3.7,4.8-5.7
	c0.1-0.1,0.1-0.2,0.2-0.3c0.1-0.1,0.1-0.3,0.1-0.4c0.2-0.7,0.1-1.6,0.1-2.4c-0.3,0.3-0.7,0.5-1,0.8c-2.8,1.2-5.6,2.5-8.4,3.7
	c-0.2-0.1-0.3-0.3-0.5-0.4c4.3-4.7,8.7-9.5,13-14.2c-0.4-0.4-0.7-0.7-1.1-1.1c-8.4,3.8-14.2,11.4-21.6,16.7c-0.4-0.3-0.8-0.7-1.2-1
	c7.8-9.8,15.5-19.7,23.3-29.5c-0.3-0.3-0.6-0.7-0.9-1c-1.8,1-3.7,1.9-5.5,2.9c2.5-4.4,4.7-9,7.6-13c7.3-10,10.5-21.5,13-33.4
	c2.5-11.6,5.9-22.9,8.2-34.5c1.7-8.9,7.3-15.3,12.6-23.5c0.2,2.9,0.2,4.5,0.4,7.5c1.3-2.1,2-3.2,3.2-5c0.3,1.9,0.8,3.3,0.8,4.6
	c-0.1,11.7-0.3,23.5-0.3,35.2c0,1.7,1.3,3.3,1.6,5.1c0.5,2.8,1.1,5.8,0.8,8.6c-0.5,3.6-1.9,7.1-3,10.7c0.5,0.2,1.1,0.3,1.6,0.5
	c0.8-2.5,1.6-5,2.7-8.6c2.2,4.9,3.9,8.8,5.8,12.7c1.6,3.2,3.1,6.5,5.2,9.3c0.8,1.1,3.6,1.7,4.8,1.1c1-0.5,1.7-3.1,1.5-4.7
	c-0.5-3.9-1.6-7.7-2.5-11.6c0.4-0.2,0.9-0.3,1.3-0.5c0.7,1,1.3,2.3,2.3,3.1c1.1,0.9,2.6,1.4,4,2.1c0.7-1.6,2.2-3.4,1.9-4.7
	c-0.8-3.9-2.4-7.5-3.7-11.3c-1.4-3.9-2.8-7.9-4.1-11.8c0.5-0.2,1-0.4,1.4-0.7c2,3.7,3.9,7.3,5.8,11c0.4,0.8,0.3,2,0.9,2.4
	c1.3,0.8,2.8,1.5,4.2,1.5c0.6,0,1.6-2.1,1.6-3.1c-0.1-2.1-0.9-4.2-1.6-7.3c5,4.7,9.3,8.8,13.7,12.9c-0.2,0.3-0.5,0.7-0.7,1
	c-0.6,0-1.2-0.1-1.7,0c-0.9,0.2-1.9,0.4-2.8,0.5c-0.9,0.2-1.9,0.4-2.8,0.6c0.4,0.9,0.8,1.8,1.2,2.8c0.4,0.9,0.8,1.8,1.4,2.7
	c1,1.6,2.2,3,3.5,4.3c2.2,2.2,4.6,4.4-0.8,7c1.8,0.3,2.5,0.4,3.5,0.5C532.7,595,527.6,603,521.7,612.3z M543.2,578.3
	c-2.3-1.8-4.6-3.6-6.4-5.8c-0.4-0.5,0.5-2.3,0.8-3.4c0.8,0.3,1.7,0.6,2.5,1c1.9,1.9,3.8,3.7,5.4,5.7
	C545.6,575.9,543.3,578.4,543.2,578.3z M566.1,584.3c-1.1,0.7-2.5,0.8-3.8,1.1c-0.3-1.6-1.2-3.5-0.6-4.7c0.6-1.3,2.5-2.7,3.9-2.9
	c1.4-0.1,3,1.3,5.5,2.5C568.9,582.1,567.6,583.4,566.1,584.3z"/>
<polygon fill="#676767" points="521,400.3 521,400.3 521.1,400.4 "/>
<path fill="#676767" d="M521,400.3L521,400.3c0,0.1-0.1,0.1-0.1,0.2c0,0,0,0,0,0C521,400.4,521,400.4,521,400.3z"/>
<path fill="#676767" d="M521.1,400.4L521.1,400.4c-0.1,0-0.1,0-0.2,0.1C521,400.5,521.1,400.4,521.1,400.4z"/>
<path fill="#676767" d="M146.9,700.3c-1.3,0.6-2.6,1.1-3.8,1.7c1.3,1.9,2.2,4.4,4,5.6c0.4,0.3,0.9,0.4,1.4,0.4
	C147.8,705.5,147.3,702.9,146.9,700.3z"/>
<path fill="#676767" d="M579.1,733.5c-3.3-0.2-5.6,1.6-5.9,4.6c-0.1,1.5,1.7,3.3,2.9,4.8c0.6,0.8,1.9,1,3,1.6
	c-6.6,2.3-8.8-1.4-11.1-5.7c0.6,5.6-0.3,10.2-6,12.5c4.4,3.7,4.6-3.7,7.7-2.3c-2.6,4.6-5.1,9-7.2,12.8c-0.1-0.2-0.8-1.4-1.5-2.5
	c-0.8,1-1.3,2.4-2.3,2.9c-1.4,0.8-3.4,1.9-4.6,1.4c-3.6-1.2-3.9,0.9-3.9,3.3c0,1.6,0.5,3.2,0.6,4.8c0.2,3.4-2.4,5.2-5.6,4
	c-0.8-0.3-1.8,0.2-3,0.3c0,0-0.3-0.8-0.6-1.5c-2.8,1.4-6.7,1.5-6.1,6c19.8,0,39.5,0,59.3,0c0-17.8,0-35.5,0-53.3
	C591.1,733.4,585.3,734,579.1,733.5z M590.3,743.2c-1.1,0.2-2.3,0.3-3.1,0.4c0,1.9,0,3.8,0,5.7c-0.4,0-0.9,0-1.3-0.1
	c0-0.9,0-1.8,0-3c-0.9,0.1-1.6,0.3-2.3,0.2c-0.8-0.1-1.5-0.5-2.2-0.7c0.5-0.6,1-1.4,1.7-1.9c1.2-1,2.3-2.3,3.7-2.7
	c1.1-0.3,2.5,0.4,3.8,0.7C590.5,742.3,590.4,742.7,590.3,743.2z"/>
<path fill="#676767" d="M228.8,777.4c-0.7-1.3-1.4-2.6-2.2-4.1c-1.1,1.8-2,3.3-3.1,5.1c-1.2-1.5-1.9-2.2-2.9-3.4
	c-0.3,1.4-0.4,2.3-0.6,3.2c-1.8,0-3.5-0.3-5,0.1c-1.3,0.4-2.4,1.7-3.5,2.6c8.5,0,17,0,25.5,0c-0.5-2.3-1-4.5-1.7-7.6
	C233.1,774.6,231,775.9,228.8,777.4z"/>
<path fill="#676767" d="M448.8,638.9c0.1-0.1,0.1-0.3,0.1-0.4C448.9,638.6,448.9,638.8,448.8,638.9z"/>
<path fill="#676767" d="M530.2,572.5c-0.4-0.9-0.8-1.8-1.2-2.8c0.9-0.2,1.9-0.4,2.8-0.6c-0.9,0.2-1.9,0.4-2.8,0.6
	C529.4,570.6,529.8,571.6,530.2,572.5z"/>
<path fill="#676767" d="M338.9,659.5c0.3,0,0.6,0,1,0C339.6,659.5,339.3,659.5,338.9,659.5z"/>
<path fill="#676767" d="M335.5,659.9c0.4-0.1,0.8-0.2,1.2-0.3C336.3,659.7,335.9,659.8,335.5,659.9z"/>
<path fill="#676767" d="M369.9,704.4c0,0.3,0,0.5,0,0.8C369.9,705,369.9,704.7,369.9,704.4L369.9,704.4z"/>
<path fill="#676767" d="M285.5,528.4c-0.3-0.1-0.5-0.1-0.7-0.1v0C285,528.3,285.3,528.4,285.5,528.4z"/>
<path fill="#676767" d="M441.3,240.7c-0.1-0.5-0.2-0.9-0.5-1.2c-4.5-5.5-9.2-10.9-14.2-16.7c-1.2,1.5-2.8,3.3-4.1,5.2
	c-0.4,0.6-0.1,1.6-0.1,2.4c0.7-0.2,1.5-0.4,2.1-0.8c0.6-0.3,0.9-1,1.7-1.8c1.1,3.1,1.4,6.2,3.1,8.2c2.3,2.7,5.6,4.6,8.7,6.6
	c0.3,0.2,0.8,0.3,1.2,0.4c0.3,0,0.6,0,1,0c0.5,0,1,0,1.5,0c-0.1-0.3-0.1-0.6-0.1-0.9C441.4,241.6,441.4,241.1,441.3,240.7z"/>
<path fill="#676767" d="M441.6,243.1L441.6,243.1c-0.5,0-1,0-1.5,0C440.7,243,441.2,243,441.6,243.1z"/>
<path fill="#676767" d="M440.2,243c-0.3,0-0.7,0-1,0C439.5,243,439.8,243,440.2,243z"/>
<path fill="#676767" d="M442.9,110.9c0.6,0.3,2-0.1,2.5-0.7c1.8-1.9,0.5-7.6-2-8.5c-5.1-1.9-10.2-3.6-15.3-5.4
	C432.2,101.9,436.6,107.4,442.9,110.9z"/>
<path fill="#676767" d="M407,720.8c0.3,0.4,0.7,0.9,1,1.3c13.6-9.3,28-17.7,39-30.5C433.6,701.4,420.3,711.1,407,720.8z"/>
<path fill="#676767" d="M99.7,691.4c-0.8-1.7-2-4.3-3.1-4.3c-4.3,0.1-5.8,3-4.5,8.8c1.3-1.9,2.3-3.5,3.4-5.1c0.4,0.3,1,0.5,1,0.7
	c-0.5,3.9,1.7,4.6,4.9,4.3c0.5,0,1,0.8,1.6,0.9c1.7,0.4,3.4,0.8,5.7,1.3C107.5,691,102.1,693.6,99.7,691.4z"/>
<path fill="#676767" d="M407.7,491.7c0.5,0.3,2.6-0.6,2.7-1.1c0.1-1.6,0.1-3.5-0.7-4.8c-1.8-2.9-4.1-5.5-6.4-8.1
	c-0.6-0.7-1.7-1-3.5-2c1.7,5,2.8,8.8,4.4,12.4C404.8,489.7,406.3,490.9,407.7,491.7z"/>
<path fill="#676767" d="M278.1,743.6c1.1,3.9,1.3,7,2.8,9.3c1.5,2.3,4.1,3.9,6.3,5.7c0.1,0.1,1.8-1.3,1.8-1.4
	C286,752.6,283.8,747.4,278.1,743.6z"/>
<path fill="#676767" d="M390.6,96.7c0.8,0.5,2,0.3,3.1,0.4c0.1-1,0.3-2.1,0.1-3.1c-0.4-2.1-0.9-4.2-1.4-6.3
	c-0.3-1.2-0.5-2.4-0.8-3.7c-0.6-0.1-1.2-0.1-1.7-0.2c-0.5,2.4-0.4,5.1-1.5,7.2C386.5,94.2,388.6,95.4,390.6,96.7z"/>
<path fill="#676767" d="M129.4,694.8c-0.1-1-0.1-2-0.2-2.8c-7.7-0.7-5.7,4.9-5.9,8.9c-0.2,5.9,6.4-0.6,6.6,4.9
	c0.4-0.5,0.7-1,1.1-1.4c-1.8-2.6-3.6-5.2-5.8-8.4C126.2,695.6,127.6,695.2,129.4,694.8z"/>
<path fill="#676767" d="M504.1,425.9c0.5-0.1,1.3-0.5,1.4-0.9c0.4-4.7,0.7-9.4,1-14c-3.6,2-5,11.3-3.4,14.1
	C503.3,425.4,503.8,426,504.1,425.9z"/>
<path fill="#676767" d="M536.7,572.5c1.9,2.2,4.2,4,6.4,5.8c0.1,0.1,2.4-2.4,2.3-2.5c-1.7-2-3.6-3.9-5.4-5.7c-0.8-0.3-1.7-0.6-2.5-1
	C537.3,570.3,536.3,572,536.7,572.5z"/>
<path fill="#676767" d="M494.5,552.5c3.7-4.8,3.5-11.9-0.8-15.5C494.1,542.9,494.3,547.7,494.5,552.5z"/>
<path fill="#676767" d="M431,710.8c-6.7,4.7-12.9,9.1-19,13.4C424.1,719.1,429,715.5,431,710.8z"/>
<path fill="#676767" d="M450.8,635.6c0.3-0.1,0.5-0.2,0.8-0.3c0.7-0.3,1.4-0.7,1.9-1.2c1.8-1.5,2.7-3.7,2.5-6.7
	c-3.7,3.1-7,5.9-10.3,8.6c0.1,0.3,0.3,0.6,0.4,0.9c0.7,0,1.3,0,2,0c0.3-0.3,0.7-0.5,1-0.8C449.7,636,450.2,635.8,450.8,635.6z"/>
<path fill="#676767" d="M513.9,647.9c4.2-3.8,8.1-7.3,12.5-11.3C522.3,635.3,514.9,642.8,513.9,647.9z"/>
<path fill="#676767" d="M521.4,253.8c0.6-1,2-2.3,1.7-2.8c-1.1-2.1-2.7-3.9-4.1-5.8c-0.4,0.1-0.8,0.2-1.2,0.3
	c-0.2,0.8-0.9,1.9-0.6,2.4C518.4,249.9,520,251.8,521.4,253.8z"/>
<path fill="#676767" d="M300.7,710.4c1.9,3.1,3.3,3.5,9.9,3.1C308.3,709.4,304.5,708.2,300.7,710.4z"/>
<path fill="#676767" d="M414.4,80.1c0.2-3.3-3.2-6.5-7.6-7.4C406.3,76.1,408.8,78.6,414.4,80.1z"/>
<path fill="#676767" d="M48.4,682.4c-0.1-0.1-0.7-0.9-1.4-1.5c-0.1-0.1-1.5,1.1-1.5,1.2c0.5,0.9,1.1,1.7,1.9,2.5
	c0.3,0.3,0.9,0.6,1.3,0.6c0.8,0.1,1.7,0.2,2.5,0.3c0.8,0.1,1.7,0.2,2.5,0.2c0-0.3,0.1-0.7,0.1-1c0.1-0.6,0.1-1.2,0-1.2
	C52.3,683.1,50.6,682.8,48.4,682.4z"/>
<path fill="#676767" d="M175,407.8c-0.2,0.1-0.5,0.2-0.7,0.3c0.7,2.8,1.5,5.6,2.3,8.6c2.3-1,3.7-1.7,5.3-2.4
	C179.4,412,177.2,409.9,175,407.8z"/>
<path fill="#676767" d="M467.6,393.6c0,2-0.3,4.1,0.1,6c0.3,1.2,1.8,2.1,2.7,3.1c0.5-0.3,1-0.6,1.6-0.9c-0.7-2.8-1.5-5.6-2.2-8.4
	C469,393.4,468.3,393.5,467.6,393.6z"/>
<path fill="#676767" d="M458.8,149.7c-1.9,2.4-1.9,2.4,2.8,12.1C463,157,461.3,153.3,458.8,149.7z"/>
<path fill="#676767" d="M452.4,201.5c-2.2,2.6-2.7,5.1-0.9,8.3C455.8,206,456,204.7,452.4,201.5z"/>
<path fill="#676767" d="M406.7,311.8c-0.1-0.5-1.6-1.1-2.5-1.2c-12.7-2-25.4-4-38.1-5.7c-1.2-0.2-2.8,0.8-3.9,1.7
	c-2.3,1.9-4.3,4.3-6.8,6c-0.6,0.4-2.6-0.3-3.4-1.1c-3.2-2.8-5.5-6.8-11.2-6.4c1.1-1.7,1.6-3,2.5-3.8c2.7-2.2,5.6-4,8.4-6.2
	c5.2-4.1,10.5-5.8,16.1-1.5c1.9-1,3.8-1.7,5.7-1.6c2.7,0.2,5.4,1.2,8.1,1.5c2.4,0.2,5.5,0.9,7.2-0.3c3.6-2.5,7.6-1.3,11.3-2.3
	c1.5-0.4,3.5-0.9,4.1-2c1-2,2.9-4.4-0.1-6.6c-3.4-2.5-6.7-5.2-9.9-8c-3.1-2.7-7-5-5.4-10.4c0.4-1.4-0.5-3.5-1.3-4.9
	c-0.5-0.8-2.7-1.4-3.2-1c-3,2.5-4.9,0.9-7-1.2c-1.2-1.2-2.8-2.5-4.4-2.9c-2.7-0.7-5.6-0.7-9-1c0.1-0.3-0.3,0.3-0.4,1
	c-0.5,3.3-1.7,4.7-5.5,3.8c-2.2-0.5-5.4,0.3-7.4,1.6c-10.9,7.3-21.5,14.9-32.2,22.5c-2.7,1.9-5.2,4.3-7.6,6.6
	c-2.6,2.5-5.1,5.2-7.7,7.6c-0.5,0.4-1.6,0.5-2.3,0.2c-2-0.9-3.9-2.1-5.8-3.1c-0.9,2.1-1.6,4.2-2.7,6.2c-0.9,1.6-2.8,4.5-3.4,4.3
	c-3.7-1.4-3.5,1.6-3.9,3.3c-1.8,6.7-3.4,13.5-5.1,20.3c-0.5,1.9-0.9,3.8-1.6,6.7c2.1-1.6,3.3-2.6,5.2-4c-0.1,13.8-3.2,26.5-5.7,39.2
	c0.4,0.1,0.9,0.1,1.3,0.2c0.5-2,1.1-4,1.6-6c0.1,0.1,0.3,0.1,0.4,0.2c0,6.6,0,13.2,0,19.8c0.2,0,0.3,0.1,0.5,0.1
	c1-7.3,2.1-14.5,3.3-23c1.1,2.2,1.6,3.2,1.9,3.7c3.2-5.6,6.5-11.3,9.8-17.1c0.6,0.1,1.1,0.2,1.7,0.3c1.2,3.7,1.4,8.1,3.6,11
	c4.8,6.4,9.8,12.9,17.6,16.2c1.8,0.8,4.8,1.8,5.2-1.2c0.7-5,3.9-4.6,7.3-4.7c4-0.2,8.1-0.5,12.1-1.3c7.8-1.5,15.5-3.9,23.3-4.9
	c5.6-0.7,9.1-4.5,13.7-6.7c0.2-0.1,0.1-0.9,0.3-2.4c-3.8,1.1-7,2.3-10.3,3c-2.5,0.5-5.1,0.7-7.7,0.6c-2.1-0.1-4.3-0.9-6.4-1.1
	c-1.2-0.1-2.5,0.2-3.7,0.3c-0.1-0.5-0.2-0.9-0.4-1.4c8-3.5,15.9-7.1,24.5-10.9c-7-2.5-7-2.5-4.7-9.3c0.4-1.2,0.4-2.5,1-3.6
	c0.7-1.3,1.6-3,2.9-3.5c3.1-1.3,6.4-2.2,9.6-3c4.3-1.1,8.7-2.1,9.8,5.7c6.3-4.7,11.6-8.7,16.9-12.7
	C409.2,316.8,407.1,315.4,406.7,311.8z M367.6,259.7c0.3-0.4,2.3-0.3,2.5,0.2c0.8,1.7,1.3,3.6,2.2,6.2c-3.2-0.6-4.8-1-7.4-1.5
	C365.9,262.7,366.6,261,367.6,259.7z M338.4,351.2c-3.7,0.1-7.4-3.1-11.1-4.9c0.1-0.4,0.2-0.9,0.3-1.3c3.6-2,7.2-4,10.8-6
	c0.5-0.3,5.6,28,2.1,0.1"/>
<path fill="#676767" d="M567.8,281.8c-0.1-5.5,0-11,0-16.5c-0.4-0.1-0.8-0.1-1.2-0.2c-0.8,3.2-1.7,6.3-2.5,9.5
	c-0.4,0.2-0.8,0.4-1.2,0.6c-0.6-1.2-1.2-2.4-1.8-3.7c-0.5,0.2-0.9,0.4-1.4,0.6c0.2,2.6,0.5,5.2,0.7,7.7c0.3,3.1,0.8,6.3,0.9,9.4
	c0,0.9-1.2,2.5-2,2.7c-0.8,0.2-2.4-1-2.7-1.9c-1.3-4.5-2.3-9-3.3-13.6c0-0.1,0.1-0.2,0.1-0.4c1.2-5.1,1.1-5.7-5.5-8.4
	c-0.8,2.1-1.6,4.2-2.4,6.5c-1.6-0.9-2.7-1.6-3.1-1.8c-0.2,3.5-0.6,7-0.7,10.5c0,0.6,0.5,1.4,0.9,1.9c3.5,4.6,4,9.8,3.3,15.3
	c-0.2,1.2-0.4,2.5-0.4,3.7c-0.2,15.4-0.4,30.8-0.6,46.2c-0.1,4.8,0,9.6,0,14.3c5.7-1.4,6.9-5,5.8-10c-0.5-2-0.9-4-1.1-6
	c-0.1-0.8,0.3-1.9,0.9-2.5c2.6-2.5,5.3-4.9,7.4-6.9c0.5,1.9,1.3,4.9,2.1,7.9c1.5-0.9,2-1.7,2.1-2.4c0.5-6.7,0.9-13.3,1.4-20
	c0.4-5,0.6-10,1.6-14.8c1.2-5.8,4.1-11.2,3.5-17.3C568.1,288.8,567.9,285.3,567.8,281.8z M548.8,296.6c-0.3-4.6-0.5-8-0.8-11.9
	C552.8,287.3,553.2,291.6,548.8,296.6z"/>
<path fill="#676767" d="M521,329.3c-0.9-0.2-1.6-1.5-2.5-2.1c-0.7-0.6-1.6-1.4-2.4-1.4c-6.1,0-10.5-2.6-13.4-8
	c-0.5-0.9-1.3-1.6-1.9-2.4c-0.4,0.1-0.8,0.2-1.1,0.3c-0.2,4.4-1.7,8.7,0.2,13.2c0.6,1.3,0.7,2.9,1.2,4.2c1.4,4,2.6,8.2,4.6,11.9
	c1.3,2.5,1.2,4,0.1,6.5c-1,2.2-1.5,5.4-0.6,7.5c1.5,3.4,2,6.6,1.1,10.1c-0.3,1.1-0.2,2.3-0.2,3.5c0.2,0,0.4,0,0.7,0
	c0.5-1,1.1-2,1.6-3.1c0.3,0,0.6,0.1,0.9,0.1c0,3.8,0,7.7,0,11.5c0.5,0,0.9,0.1,1.4,0.1c0.5-4.5,0.6-9.2,1.6-13.6
	c1-4.6,2.7-9,6.4-13.1c0.7,1.9,1.1,3,1.5,4.1c5.5-3.5,9.5-13.1,8.3-19.6C527.4,334.6,526.5,330.3,521,329.3z M511.1,362.7
	c-3.5-3.1-3.7-5.7-0.8-8.5C515.3,357.5,515.4,359,511.1,362.7z M517.5,349.5c-2.7,0.5-4.7,0.8-6.8,1.2c-1.8-3.1,0.9-11.2,5.2-14
	C518,341.1,519.7,345.4,517.5,349.5z"/>
<path fill="#676767" d="M537.5,317.2c-0.8,8.1-1.5,16.1-2.3,24.2c0.7,0.1,1.3,0.2,2,0.3c0.8-9.3,1.5-18.7,2.3-28
	C538.2,314.8,537.6,316,537.5,317.2z"/>
<path fill="#676767" d="M528.6,397.2c1.9-2.3,4.4-4.1,6.4-6.3c2.6-2.8,5-5.7,7.6-8.5c-0.1-0.1-0.2-0.1-0.4-0.2
	c-7,6-14.1,12.1-21.1,18.1C524.5,401.3,526.6,399.6,528.6,397.2z"/>
<path fill="#676767" d="M521.2,400.4c0,0-0.1,0-0.1,0C521,400.3,521.1,400.4,521.2,400.4C521.1,400.4,521.2,400.4,521.2,400.4z"/>
<path fill="#676767" d="M403.8,433.2c-0.2,0.9-0.1,2.2,0.4,2.7c2.1,2.1,4.5,4,6.9,5.7c0.3,0.2,1.7-1.1,2.7-1.8
	c-2.5-2.7-5-5.4-7.5-8.1C405,432.5,403.9,432.8,403.8,433.2z"/>
<path fill="#676767" d="M563.4,249.3c-0.4-0.3-0.7-0.7-1.1-1c-1.4,0.7-3.8,1.3-3.9,2c-0.2,3.6-2,7.5,1.1,12.2
	C561.1,257.3,562.2,253.3,563.4,249.3z"/>
<path fill="#676767" d="M548.2,190.7c0,4.4,0,8.8,0,13.2c2.3-4.3,5-8.7,1.4-13.2C549.2,190.6,548.7,190.7,548.2,190.7z"/>
<path fill="#676767" d="M469.8,92.6c0-2.9,0-5.8,0-8.7c-2-1.2-3.9-2.4-5.9-3.7c-0.1,0.3-0.3,0.6-0.4,0.9c1.9,3.9,3.8,7.8,5.7,11.7
	C469.5,92.8,469.7,92.7,469.8,92.6z"/>
<path fill="#676767" d="M395.9,509.9c-0.3,2.2,1.3,5.9-2.5,7.7c0,0,0.4,1.2,0.4,1.2c1.7-0.5,3.7-0.6,4.9-1.7c0.9-0.9,1.5-3.2,1-4.4
	C399.2,511.4,397.2,510.8,395.9,509.9z"/>
<path fill="#676767" d="M452.8,458.5c1.1,1.5,1.6,2.2,2.5,3.5c0.3-2.9,0.6-4.9,0.8-7.2c-7.5,1.8-8.8,4.1-5.9,9.3
	C451.1,462.3,451.9,460.7,452.8,458.5z"/>
<path fill="#676767" d="M533.3,304.3c-2.6-3.2-4.7-5.9-7.4-9.3C525.6,302,528,305,533.3,304.3z"/>
<path fill="#676767" d="M412,364.7c-5.8-1.5-10.6-2.7-15.4-3.9c-0.1,0.4-0.2,0.8-0.3,1.2C401.3,362,404.8,368.8,412,364.7z"/>
<path fill="#676767" d="M586.8,741.1c-1.4,0.4-2.5,1.7-3.7,2.7c-0.6,0.5-1.1,1.3-1.7,1.9c0.7,0.3,1.5,0.6,2.2,0.7
	c0.7,0.1,1.4-0.1,2.3-0.2c0,1.2,0,2.1,0,3c0.4,0,0.9,0,1.3,0.1c0-1.9,0-3.8,0-5.7c0.9-0.1,2-0.3,3.1-0.4c0.1-0.4,0.2-0.9,0.2-1.3
	C589.3,741.6,587.9,740.8,586.8,741.1z"/>
<path fill="#676767" d="M370.1,259.8c-0.2-0.4-2.2-0.6-2.5-0.2c-1.1,1.4-1.7,3-2.7,4.9c2.6,0.5,4.3,0.9,7.4,1.5
	C371.4,263.4,371,261.5,370.1,259.8z"/>
<path fill="#676767" d="M548,284.7c0.3,3.9,0.5,7.3,0.8,11.9C553.2,291.6,552.8,287.3,548,284.7z"/>
<path fill="#676767" d="M510.7,350.7c2.1-0.4,4.1-0.7,6.8-1.2c2.2-4.2,0.5-8.4-1.6-12.8C511.6,339.6,509,347.6,510.7,350.7z"/>
<path fill="#676767" d="M510.4,354.2c-2.9,2.8-2.7,5.4,0.8,8.5C515.4,359,515.3,357.5,510.4,354.2z"/>
</svg>
