<?xml version="1.0" encoding="utf-8"?>
<!-- Generator: Adobe Illustrator 16.0.0, SVG Export Plug-In . SVG Version: 6.00 Build 0)  -->
<!DOCTYPE svg PUBLIC "-//W3C//DTD SVG 1.1//EN" "http://www.w3.org/Graphics/SVG/1.1/DTD/svg11.dtd">
<svg version="1.1" id="Layer_1" xmlns="http://www.w3.org/2000/svg" xmlns:xlink="http://www.w3.org/1999/xlink" x="0px" y="0px"
	 width="500px" height="500px" viewBox="0 0 500 500" enable-background="new 0 0 500 500" xml:space="preserve">
<path fill="#FFFFFF" d="M104.376,296.4c5.221-10.869,11.671-21.163,19.254-30.635l1.62-2.027l9.991,7.18
	c6.266-7.426,13.203-14.16,20.701-20.139c-10.964-6.58-19.426-17.329-22.772-30.683c-1.492-5.946-1.853-11.999-1.174-17.905
	c0,0-108.369,54.793-90.876,154.666c0,0,19.395-49.672,60.585-60.181C102.6,296.576,103.489,296.486,104.376,296.4z"/>
<path fill="#FFFFFF" d="M167.141,313.936c-2.991,4.589-5.632,9.465-7.849,14.613c2.218-5.149,4.877-10.01,7.872-14.598
	L167.141,313.936L167.141,313.936z"/>
<path fill="#FFFFFF" d="M364.203,202.191c0.678,5.906,0.318,11.959-1.174,17.905c-3.373,13.462-11.949,24.272-23.043,30.839
	c7.729,6.109,14.867,12.99,21.279,20.558l10.791-7.755l1.619,2.027c7.611,9.506,14.078,19.84,19.309,30.752
	c0.502,0.052,1.006,0.104,1.51,0.159c41.193,10.509,60.584,60.181,60.584,60.181C472.572,256.984,364.203,202.191,364.203,202.191z"
	/>
<path fill="#FFFFFF" d="M390.192,126.262c0.334-0.632,0.735-1.835,1.222-2.258c-4.824,4.236-12.115,5.217-17.16,5.328
	C378.263,129.423,384.879,129.058,390.192,126.262z"/>
<path fill="#FFFFFF" d="M330.955,133.658c5.125-2.877,10.673-5.897,14.899-9.767c7.117-6.521,9.677-15.075,16.342-21.897
	c3.642-3.729,8.541-6.56,13.508-8.744c2.196-0.964,4.449-1.769,6.745-2.375c1.28-0.334,2.565-0.605,3.849-0.813
	c0.277-0.046,0.591-0.074,0.92-0.097c0.577-0.266,0.915-0.393,0.915-0.393c-1.076,0.404-2.797,0.302-3.934,0.49
	c-1.283,0.208-2.568,0.478-3.85,0.813c-2.295,0.606-4.549,1.411-6.744,2.375c-4.967,2.185-9.867,5.016-13.508,8.744
	c-6.666,6.822-9.225,15.377-16.342,21.897c-4.234,3.876-9.795,6.9-14.928,9.782C329.182,133.476,330.381,133.616,330.955,133.658z"
	/>
<path fill="#FFFFFF" d="M389.679,94.616c7.556-4.066,16.2-6.449,24.321-6.651c-8.713-0.197-18.209,2.233-26.42,6.651
	c-4.638,2.496-8.584,5.125-11.568,8.508c-0.643,1.568-1.127,3.283-1.37,5.166C377.579,102.134,382.922,98.252,389.679,94.616z"/>
<path fill="#FFFFFF" d="M349.894,136.376c-3.521-1.429-7.131-2.356-11.334-2.562c-1.75-0.087-3.514-0.137-5.289-0.146
	c-0.39-0.001-1.843-0.208-2.3-0.01c0.082,0.006,0.15,0.01,0.201,0.01c1.775,0.009,3.539,0.059,5.289,0.146
	c4.203,0.205,7.813,1.133,11.334,2.562c4.355,1.771,8.301,4.133,13.625,4.395c0.775,0.038,1.566,0.034,2.364,0.001
	c-0.087-0.003-0.178,0.003-0.265-0.001C358.194,140.509,354.249,138.146,349.894,136.376z"/>
<path fill="#1D1D1B" d="M321.541,303.841c-1.746-2.04-3.572-3.999-5.473-5.877C317.969,299.843,319.795,301.801,321.541,303.841z"/>
<polygon fill="#1D1D1B" points="167.164,313.951 185.174,325.237 167.164,313.951 "/>
<path fill="#1D1D1B" d="M180.349,297.797c-2.737,2.691-5.305,5.569-7.719,8.591C175.045,303.366,177.611,300.488,180.349,297.797z"
	/>
<path fill="#1D1D1B" d="M193.976,286.651c-2.229,1.507-4.392,3.111-6.49,4.801C189.584,289.763,191.747,288.158,193.976,286.651z"/>
<path fill="#1D1D1B" d="M463.988,322.231c2.488-56.169-55.352-133.383-115.305-148.413c-3.949-0.99-7.926,0.424-10.416,3.307
	c-0.047,0.055-0.086,0.112-0.139,0.164c-0.129,0.163-0.262,0.323-0.385,0.492c-2.725,3.625-2.85,8.744,0.02,12.534
	c5.379,7.095,7.223,16.102,5.064,24.717c-2.967,11.847-12.84,20.168-24.252,21.774c-7.818-4.249-16.02-7.808-24.506-10.607
	c-13.996-9.861-32.016-23.328-40.365-32.629c-4.602-5.125-6.524-26.285,1.98-31.246c8.51-4.963,17.479,3.357,17.479,3.357
	c23.703-14.02,43.131-6.889,43.131-6.889l1,6.448c5.16-2.099,17.969-15.844,17.969-15.844c-11.652,3.719-46.9,0.728-46.9,0.728
	l-11.883-7.797l6.262-5.007l7.547,0.962l46.531-20.116c0,0-19.479-4.89-33.668-3.991l6.207,3.729l-21.5,8.196l0.863-4.681
	c0,0-26.271,2.081-39.074,7.707l11.225,0.246c0,0-25.035,8.672-37.263,11.719c-12.231,3.046-33.876,14.727-69.06-0.249
	c0,0,22.953,18.022,43.063,16.465c20.107-1.561,55.803-17.146,77.086-1.749c0,0-24.012-10.862-58.555,2.813
	c-5.829,2.308-10.509,11.929-12.748,17.1c-3.171,7.321-5.288,14.842-5.021,22.866c0.299,9.002,1.899,21.637-3.059,30.034
	c-6.14,2.324-12.098,5.051-17.84,8.158c-10.868-1.504-21.549-11.297-24.105-21.498c-2.159-8.615-0.315-17.622,5.064-24.717
	c2.869-3.79,2.743-8.909,0.021-12.534c-0.123-0.169-0.258-0.329-0.387-0.492c-0.052-0.052-0.092-0.109-0.138-0.164
	c-2.49-2.883-6.468-4.297-10.416-3.307c-59.954,15.03-117.79,92.244-115.302,148.413c-0.026,0.006-0.055,0.013-0.081,0.019
	c0.218,9.816,1.604,28.719,8.687,40.672c0,0,16.199-28.138,40.907-46.377c6.316-4.204,12.613-7.821,18.319-10.275
	c-4.289,10.727-7.427,21.912-9.295,33.355l-0.802,4.916c0,0,28.67-12.336,31.23-13.441c2.195,1.582,17.988,12.967,17.988,12.967
	l3.372,2.43l0.894-4.06c1.254-5.729,2.999-11.345,5.179-16.79l9.429,5.803l1.251-2.9c2.217-5.148,4.857-10.024,7.849-14.613v0.001
	l0.023,0.015l0,0l18.01,11.286c13.181-20.899,36.457-34.796,62.994-34.796c26.352,0,49.488,13.705,62.717,34.365l18.074-11.092
	c3.127,4.773,5.869,9.861,8.158,15.243l1.244,2.926l2.699-1.666l7.596-4.673c2.197,5.477,3.957,11.127,5.221,16.892l0.889,4.06
	l3.373-2.43c0,0,15.793-11.385,17.986-12.967c2.563,1.105,31.236,13.441,31.236,13.441l-0.809-4.916
	c-1.832-11.232-4.895-22.217-9.063-32.763c5.348,2.427,11.158,5.804,16.984,9.683c24.709,18.239,40.904,46.377,40.904,46.377
	c7.084-11.953,8.469-30.855,8.688-40.672C464.039,322.244,464.014,322.237,463.988,322.231z M271.384,133.53l3.588-5.967
	c3.344-1.239,12.316,0.585,12.316,0.585L271.384,133.53z M41.12,356.857c-17.493-99.873,90.876-154.666,90.876-154.666
	c-0.679,5.906-0.318,11.959,1.174,17.905c3.347,13.354,11.809,24.103,22.772,30.683c-7.498,5.979-14.436,12.713-20.701,20.139
	l-9.991-7.18l-1.62,2.027c-7.583,9.472-14.033,19.766-19.254,30.635c-0.887,0.086-1.776,0.176-2.671,0.276
	C60.515,307.186,41.12,356.857,41.12,356.857z M141.201,337.283c-4.503-3.247-15.979-11.521-15.979-11.521l-1.257-0.904
	c0,0-18.18,7.828-24.742,10.648c4.114-20.803,12.537-40.6,24.665-58.03l-6.007,23.034c-0.261,0.52-0.529,1.034-0.784,1.559
	l-1.085,2.225l30.021,18.475C144.098,327.489,142.477,332.34,141.201,337.283z M172.63,306.388c2.414-3.021,4.981-5.899,7.719-8.591
	C177.611,300.488,175.045,303.366,172.63,306.388z M187.485,291.452c2.099-1.689,4.261-3.294,6.49-4.801
	C191.747,288.158,189.584,289.763,187.485,291.452z M316.068,297.964c1.9,1.878,3.727,3.837,5.473,5.877
	C319.795,301.801,317.969,299.843,316.068,297.964z M340.684,323.965c-16.689-36.141-52.693-59.352-92.69-59.352
	c-39.789,0-75.714,23.051-92.486,58.937c-4.251-2.623-30.938-19.042-34.56-21.272c24.462-48.174,72.879-78.035,127.046-78.035
	c53.532,0,103.175,30.735,127.259,78.453C371.641,304.917,344.953,321.339,340.684,323.965z M402.282,335.506
	c-6.563-2.82-24.743-10.648-24.743-10.648l-1.254,0.904c0,0-11.475,8.274-15.976,11.521c-1.287-4.979-2.924-9.863-4.879-14.616
	l29.175-17.953l-0.478-0.989l0.472,0.539l-6.979-26.783C389.747,294.91,398.167,314.705,402.282,335.506z M455.078,356.857
	c0,0-19.391-49.672-60.584-60.181c-0.504-0.056-1.008-0.107-1.51-0.159c-5.23-10.912-11.697-21.246-19.309-30.752l-1.619-2.027
	l-10.791,7.755c-6.412-7.567-13.551-14.448-21.279-20.558c11.094-6.566,19.67-17.377,23.043-30.839
	c1.492-5.946,1.852-11.999,1.174-17.905C364.203,202.191,472.572,256.984,455.078,356.857z"/>
<path fill="#BF0D0D" d="M384.6,304.264l-0.472-0.539l0.478,0.989l-29.175,17.953c1.955,4.753,3.592,9.638,4.879,14.616
	c4.501-3.247,15.976-11.521,15.976-11.521l1.254-0.904c0,0,18.181,7.828,24.743,10.648c-4.115-20.801-12.535-40.596-24.662-58.025
	L384.6,304.264z"/>
<path fill="#BF0D0D" d="M117.098,302.068c0.255-0.524,0.523-1.039,0.784-1.559l6.007-23.034
	c-12.128,17.431-20.551,37.228-24.665,58.03c6.563-2.82,24.742-10.648,24.742-10.648l1.257,0.904c0,0,11.476,8.274,15.979,11.521
	c1.275-4.943,2.896-9.794,4.832-14.516l-30.021-18.475L117.098,302.068z"/>
<path fill="#FFFFFF" d="M274.972,127.563l-3.588,5.967l15.904-5.382C287.288,128.148,278.315,126.324,274.972,127.563z"/>
<path fill="#E20613" d="M296.747,242.265c-1.61-0.643-3.186-0.968-4.681-0.968c-5.438,0-8.591,4.101-9.728,7.938
	c-1.489,5.034-0.181,11.232,6.1,13.732c1.372,0.546,2.759,0.823,4.123,0.823c0,0,0,0,0.001,0c4.093,0,7.833-2.543,10.006-6.803
	c1.388-2.718,1.613-5.94,0.604-8.621C302.146,245.638,299.924,243.528,296.747,242.265z"/>
<path fill="#E20613" d="M224.17,248.576c3.594-0.742,5.553-1.063,9.272-1.512c-1.594-2.842-2.466-4.303-4.247-7.128
	c-0.912-1.448-1.631-2.793-2.326-4.094l-0.075-0.139c-0.223,1.356-0.515,3.026-0.878,4.723
	C225.128,243.71,224.769,245.381,224.17,248.576z"/>
<path fill="#E20613" d="M204.238,245.702c-0.656-1.795-2.163-2.744-4.355-2.744c-1.482,0-3.277,0.442-5.188,1.279
	c-1.918,0.84-3.315,1.661-4.051,2.195l4.237,8.692c1.58-0.769,2.417-1.15,3.989-1.844
	C203.259,251.345,205.266,248.512,204.238,245.702z"/>
<path fill="#E20613" d="M173.968,259.145c-3.24,0-6.948,1.686-10.726,4.876c-2.028,1.714-3.327,3.13-4.088,4.062l14.569,15.762
	c0.847-0.596,1.922-1.513,3.055-2.479l0.107-0.092c6.984-5.974,8.478-11.81,4.564-17.84
	C179.629,260.627,177.041,259.145,173.968,259.145z"/>
<path fill="#E20613" d="M247.993,224.242c-54.167,0-102.584,29.861-127.046,78.035c3.622,2.23,30.309,18.649,34.56,21.272
	c16.772-35.886,52.697-58.937,92.486-58.937c39.997,0,76.001,23.211,92.69,59.352c4.27-2.626,30.957-19.048,34.568-21.27
	C351.168,254.978,301.525,224.242,247.993,224.242z M187.502,272.45c-1.086,3.688-4.04,7.587-9.03,11.921
	c-2.266,1.966-4.13,3.578-5.777,4.937l-0.175,0.144l-0.161-0.16L152.9,269.835l0.143-0.176c2.383-2.928,5.028-5.632,7.86-8.035
	c5.314-4.506,10.498-6.887,14.991-6.887c4.352,0.018,7.693,1.961,9.981,5.776C188.127,264.268,188.688,268.395,187.502,272.45z
	 M216.192,263.033c-1.512,0.472-2.282,0.724-3.866,1.288l-0.129,0.046l-0.108-0.084c-0.736-0.576-2.137-2.472-4.308-5.553
	c-1.51-2.139-2.985-3.093-4.783-3.093c-0.914,0-1.947,0.24-3.16,0.734c-1.4,0.622-2.151,0.966-3.547,1.646l5.271,10.807
	l-0.225,0.109c-1.434,0.698-2.13,1.056-3.552,1.819l-0.221,0.119l-13.134-24.556l0.174-0.129c2.143-1.583,5.384-3.419,8.457-4.79
	c4.705-2.099,8.349-2.744,11.324-2.005c2.253,0.559,3.941,1.882,4.634,4.011c0.987,3.053-0.302,6.596-3.54,8.596
	c0.023,0,0.047,0,0.07,0c2.38,0,4.431,1.473,6.097,3.95l0.713,1.171c1.813,2.705,3.124,4.713,3.925,5.434l0.326,0.321
	L216.192,263.033z M243.424,258.294c-1.687,0.072-2.502,0.123-4.157,0.26l-0.174,0.015l-0.073-0.158
	c-1.567-3.355-2.389-4.995-4.11-8.195c-4.486,0.504-6.735,0.87-11.121,1.813c-0.576,3.58-0.816,5.391-1.204,9.056l-0.019,0.174
	l-0.17,0.042c-1.614,0.401-2.394,0.614-3.917,1.052l-0.346,0.1l0.028-0.359c0.905-11.838,1.93-17.943,4.984-29.692l0.04-0.154
	l0.156-0.029c2.284-0.425,3.439-0.612,5.885-0.955l0.157-0.021l0.087,0.133c6.648,10.177,9.563,15.641,14.173,26.576l0.14,0.331
	L243.424,258.294z M274.731,233.987c-0.695,1.052-1.041,1.577-1.714,2.638l-0.127,0.2l-0.206-0.116
	c-1.563-0.876-3.868-1.948-7.861-2.461c-0.963-0.124-1.911-0.187-2.819-0.187c-7.226,0-11.952,3.938-12.041,10.035
	c-0.097,6.555,4.115,10.844,11.557,11.768c2.289,0.283,4.12,0.315,5.163,0.099l0.55-3.136c0.253-1.44,0.486-2.766,0.807-4.609
	c-2.495-0.432-3.823-0.621-6.506-0.931l-0.249-0.028l0.389-3.359l0.248,0.029c4.561,0.523,6.765,0.882,11.23,1.826l0.245,0.052
	l-0.053,0.244l-2.805,13.229l-0.181,0.02c-1.563,0.164-3.143,0.248-4.697,0.248c-1.658,0-3.285-0.096-4.836-0.284
	c-5.004-0.605-8.5-1.989-11.337-4.486c-2.893-2.543-4.602-6.368-4.688-10.495c-0.072-3.361,1.184-6.535,3.535-8.938
	c3.721-3.8,9.944-5.476,17.051-4.556c4.247,0.55,7.646,1.877,9.266,2.847l0.225,0.135L274.731,233.987z M294.079,267.5
	c-2.318,0-4.714-0.482-7.118-1.433c-7.894-3.122-11.701-10.24-9.701-18.136c1.606-6.335,6.809-10.27,13.577-10.27
	c2.413,0,4.901,0.507,7.396,1.505c5.053,2.023,8.643,5.425,10.108,9.58c1.226,3.472,0.861,7.236-1.026,10.598
	C303.531,266.085,298.029,267.5,294.079,267.5z M323.342,289.526l-0.177-0.177c-1.218-1.217-1.817-1.793-3.058-2.938l-0.093-0.086
	l0.015-0.127c0.807-6.926,0.958-10.568,0.736-17.716c-0.026-0.851-0.056-1.704-0.086-2.555c-0.099-2.839-0.2-5.767-0.162-8.427
	c-1.57,2.755-3.283,5.461-5.797,9.168l-6.805,10.018l-0.207-0.142c-1.25-0.852-1.875-1.262-3.187-2.09l-0.211-0.133l15.023-23.924
	l0.212,0.133c1.948,1.226,2.873,1.843,4.665,3.076l0.092,0.063l0.015,0.11c1,7.446,1.244,11.263,1.188,18.563
	c-0.026,3.604-0.38,6.915-1.079,10.089c1.917-2.494,3.957-4.873,6.858-8.003c3.162-3.402,4.742-5.104,7.9-8.509l0.171-0.184
	l0.183,0.17c1.459,1.356,2.165,2.036,3.601,3.467l0.177,0.177L323.342,289.526z"/>
<path fill="#FFFFFF" d="M175.941,255.237c-4.42,0-9.492,2.34-14.715,6.768c-2.753,2.336-5.326,4.958-7.653,7.796l18.979,18.976
	c1.6-1.324,3.409-2.889,5.592-4.782c4.917-4.271,7.821-8.093,8.879-11.685c1.146-3.918,0.602-7.907-1.575-11.538
	C183.255,257.116,180.057,255.254,175.941,255.237z M177.21,281.653l-0.107,0.091c-1.224,1.045-2.381,2.032-3.276,2.636l-0.178,0.12
	l-15.154-16.396l0.135-0.168c0.751-0.941,2.105-2.452,4.291-4.299c3.868-3.267,7.688-4.993,11.048-4.993
	c3.251,0,5.983,1.562,7.901,4.517C185.887,269.351,184.319,275.572,177.21,281.653z"/>
<path fill="#1D1D1B" d="M175.895,254.737c-4.493,0-9.677,2.381-14.991,6.887c-2.832,2.403-5.478,5.107-7.86,8.035l-0.143,0.176
	l19.458,19.456l0.161,0.16l0.175-0.144c1.647-1.358,3.512-2.971,5.777-4.937c4.99-4.334,7.944-8.233,9.03-11.921
	c1.187-4.056,0.625-8.183-1.626-11.937C183.588,256.698,180.246,254.755,175.895,254.737z M187.262,272.38
	c-1.124,3.819-4.247,7.715-8.954,11.803c-2.229,1.935-4.12,3.569-5.772,4.932c-7.72-7.72-11.578-11.578-19.298-19.297
	c2.048-2.517,4.669-5.322,7.828-8.003c5.729-4.856,10.824-6.843,14.877-6.827c4.098,0.017,7.409,1.804,9.719,5.655
	C187.989,264.524,188.373,268.583,187.262,272.38z"/>
<path fill="#1D1D1B" d="M163.081,263.829c-2.021,1.707-3.397,3.187-4.257,4.264c5.946,6.435,8.917,9.648,14.862,16.08
	c0.91-0.613,2.099-1.633,3.361-2.71c6.898-5.9,8.676-11.904,4.611-18.166C178.11,257.828,171.343,256.852,163.081,263.829z
	 M176.886,281.272l-0.107,0.092c-1.133,0.967-2.208,1.884-3.055,2.479l-14.569-15.762c0.761-0.932,2.06-2.348,4.088-4.062
	c3.777-3.19,7.485-4.876,10.726-4.876c3.073,0,5.661,1.482,7.482,4.288C185.363,269.463,183.87,275.299,176.886,281.272z"/>
<path fill="#1D1D1B" d="M173.968,258.645c-3.359,0-7.18,1.727-11.048,4.993c-2.186,1.847-3.54,3.357-4.291,4.299l-0.135,0.168
	l15.154,16.396l0.178-0.12c0.896-0.604,2.053-1.591,3.276-2.636l0.107-0.091c7.109-6.081,8.677-12.303,4.659-18.492
	C179.951,260.206,177.219,258.645,173.968,258.645z M177.048,281.463c-1.263,1.077-2.451,2.097-3.361,2.71
	c-5.945-6.432-8.916-9.646-14.862-16.08c0.859-1.077,2.236-2.557,4.257-4.264c8.262-6.978,15.029-6.001,18.578-0.532
	C185.724,269.559,183.946,275.563,177.048,281.463z"/>
<path fill="#1D1D1B" d="M175.942,254.987c-4.053-0.016-9.148,1.971-14.877,6.827c-3.159,2.681-5.78,5.486-7.828,8.003
	c7.72,7.719,11.578,11.577,19.298,19.297c1.652-1.362,3.543-2.997,5.772-4.932c4.707-4.088,7.83-7.983,8.954-11.803
	c1.111-3.797,0.728-7.855-1.601-11.737C183.352,256.791,180.04,255.004,175.942,254.987z M187.022,272.31
	c-1.058,3.592-3.962,7.414-8.879,11.685c-2.183,1.894-3.992,3.458-5.592,4.782l-18.979-18.976c2.327-2.838,4.9-5.46,7.653-7.796
	c5.223-4.428,10.295-6.768,14.715-6.768c4.115,0.017,7.313,1.879,9.506,5.534C187.624,264.402,188.169,268.392,187.022,272.31z"/>
<path fill="#FFFFFF" d="M204.917,252.965l-0.186,0.018l-0.167-0.414l0.137-0.168c3.407-2.5,4.808-5.644,3.844-8.625
	c-0.638-1.96-2.197-3.38-4.278-3.897c-2.863-0.711-6.406-0.071-11,1.978c-2.961,1.32-6.075,3.073-8.19,4.607l12.694,23.732
	c1.211-0.649,1.903-1.004,3.123-1.601l-5.271-10.807l0.225-0.109c1.551-0.758,2.308-1.105,3.795-1.767
	c1.281-0.522,2.377-0.774,3.356-0.774c1.978,0,3.578,1.02,5.191,3.305c1.64,2.326,3.3,4.646,4.104,5.36
	c1.362-0.484,2.124-0.737,3.354-1.123c-0.836-0.896-2.016-2.655-3.703-5.172l-0.712-1.062
	C209.519,253.896,207.419,252.729,204.917,252.965z M199.072,253.738c-1.639,0.724-2.476,1.105-4.197,1.945l-0.225,0.109
	l-4.637-9.51l0.161-0.124c0.703-0.545,2.207-1.456,4.319-2.38c2.002-0.877,3.815-1.321,5.389-1.321c2.421,0,4.09,1.063,4.825,3.072
	C205.836,248.616,203.729,251.685,199.072,253.738z"/>
<path fill="#1D1D1B" d="M212.36,257.229l-0.713-1.279c-1.666-2.478-3.717-3.95-6.097-3.95c-0.023,0-0.047,0-0.07,0
	c3.238-2,4.527-5.543,3.54-8.596c-0.692-2.129-2.381-3.561-4.634-4.119c-2.976-0.739-6.619-0.04-11.324,2.059
	c-3.073,1.371-6.314,3.234-8.457,4.817l-0.174,0.143l13.134,24.563l0.221-0.115c1.422-0.764,2.118-1.12,3.552-1.818l0.225-0.108
	l-5.271-10.806c1.396-0.681,2.146-1.024,3.547-1.646c1.213-0.494,2.246-0.734,3.16-0.734c1.798,0,3.273,0.954,4.783,3.093
	c2.171,3.081,3.571,4.977,4.308,5.553l0.108,0.084l0.129-0.046c1.584-0.564,2.354-0.816,3.866-1.288l0.419-0.13l-0.326-0.294
	C215.484,261.889,214.174,259.935,212.36,257.229z M212.242,264.086c-0.73-0.571-2.209-2.593-4.257-5.499
	c-2.264-3.208-4.52-3.964-8.242-2.446c-1.523,0.677-2.282,1.027-3.787,1.763c2.108,4.321,3.164,6.483,5.272,10.807
	c-1.435,0.699-2.147,1.064-3.561,1.824c-5.166-9.657-7.748-14.488-12.914-24.145c2.069-1.529,5.249-3.353,8.411-4.763
	c4.898-2.185,8.424-2.672,11.161-1.991c2.2,0.546,3.794,2.024,4.456,4.063c1.128,3.487-0.894,6.674-3.934,8.903
	c0.02,0.047,0.026,0.068,0.045,0.114c2.747-0.264,4.884,1.118,6.546,3.591c2.232,3.32,3.752,5.655,4.679,6.488
	C214.561,263.28,213.785,263.536,212.242,264.086z"/>
<path fill="#1D1D1B" d="M204.474,245.616c-1.23-3.362-5.137-3.685-9.88-1.607c-2.163,0.946-3.628,1.854-4.266,2.348
	c1.775,3.641,2.662,5.461,4.438,9.103c1.672-0.815,2.515-1.203,4.205-1.949C203.396,251.558,205.562,248.595,204.474,245.616z
	 M198.87,253.281c-1.572,0.693-2.409,1.075-3.989,1.844l-4.237-8.692c0.735-0.534,2.133-1.355,4.051-2.195
	c1.911-0.837,3.706-1.279,5.188-1.279c2.192,0,3.699,0.949,4.355,2.744C205.266,248.512,203.259,251.345,198.87,253.281z"/>
<path fill="#1D1D1B" d="M204.894,252.716c-0.019-0.046-0.025-0.067-0.045-0.114c3.04-2.229,5.062-5.416,3.934-8.903
	c-0.662-2.038-2.256-3.517-4.456-4.063c-2.737-0.681-6.263-0.193-11.161,1.991c-3.162,1.41-6.342,3.233-8.411,4.763
	c5.166,9.656,7.748,14.487,12.914,24.145c1.413-0.76,2.126-1.125,3.561-1.824c-2.108-4.323-3.164-6.485-5.272-10.807
	c1.505-0.735,2.264-1.086,3.787-1.763c3.723-1.518,5.979-0.762,8.242,2.446c2.048,2.906,3.526,4.928,4.257,5.499
	c1.543-0.55,2.318-0.806,3.876-1.291c-0.927-0.833-2.446-3.168-4.679-6.488C209.777,253.834,207.641,252.452,204.894,252.716z
	 M215.647,262.68c-1.23,0.386-1.992,0.639-3.354,1.123c-0.804-0.715-2.464-3.034-4.104-5.36c-1.613-2.285-3.214-3.305-5.191-3.305
	c-0.979,0-2.075,0.252-3.356,0.774c-1.487,0.661-2.244,1.009-3.795,1.767l-0.225,0.109l5.271,10.807
	c-1.22,0.597-1.912,0.951-3.123,1.601l-12.694-23.732c2.115-1.534,5.229-3.287,8.19-4.607c4.594-2.049,8.137-2.688,11-1.978
	c2.081,0.518,3.641,1.938,4.278,3.897c0.964,2.981-0.437,6.125-3.844,8.625l-0.137,0.168l0.167,0.414l0.186-0.018
	c2.502-0.235,4.602,0.932,6.315,3.481l0.712,1.062C213.632,260.024,214.812,261.783,215.647,262.68z"/>
<path fill="#1D1D1B" d="M204.708,245.53c-0.735-2.01-2.404-3.072-4.825-3.072c-1.573,0-3.387,0.444-5.389,1.321
	c-2.112,0.924-3.616,1.835-4.319,2.38l-0.161,0.124l4.637,9.51l0.225-0.109c1.722-0.84,2.559-1.222,4.197-1.945
	C203.729,251.685,205.836,248.616,204.708,245.53z M198.971,253.51c-1.69,0.746-2.533,1.134-4.205,1.949
	c-1.775-3.642-2.662-5.462-4.438-9.103c0.638-0.494,2.103-1.401,4.266-2.348c4.743-2.077,8.649-1.755,9.88,1.607
	C205.562,248.595,203.396,251.558,198.971,253.51z"/>
<path fill="#FFFFFF" d="M223.59,232.678c-2.984,11.496-4.011,17.575-4.903,29.093c1.261-0.36,2.032-0.569,3.419-0.914
	c0.384-3.616,0.628-5.433,1.216-9.078l0.027-0.168l0.167-0.036c4.571-0.984,6.83-1.353,11.506-1.875l0.168-0.02l0.08,0.149
	c1.754,3.258,2.581,4.9,4.129,8.212c1.432-0.117,2.241-0.169,3.645-0.231c-4.496-10.634-7.403-16.074-13.904-26.032
	C226.863,232.098,225.714,232.284,223.59,232.678z M234.061,247.146l0.183,0.326l-0.371,0.044c-4.074,0.487-6.03,0.807-9.966,1.626
	l-0.365,0.075l0.068-0.366c0.644-3.448,1-5.124,1.819-8.535c0.411-1.918,0.73-3.813,0.963-5.248l0.029-0.184l0.464-0.07l0.425,0.793
	c0.691,1.293,1.406,2.631,2.309,4.063C231.473,242.609,232.344,244.077,234.061,247.146z"/>
<path fill="#1D1D1B" d="M229.471,231.371l-0.087-0.133l-0.157,0.021c-2.445,0.343-3.601,0.53-5.885,0.955l-0.156,0.029l-0.04,0.154
	c-3.055,11.749-4.079,17.854-4.984,29.692l-0.028,0.359l0.346-0.1c1.523-0.438,2.303-0.65,3.917-1.052l0.17-0.042l0.019-0.174
	c0.388-3.665,0.628-5.476,1.204-9.056c4.386-0.942,6.635-1.309,11.121-1.813c1.722,3.2,2.543,4.84,4.11,8.195l0.073,0.158
	l0.174-0.015c1.655-0.137,2.471-0.188,4.157-0.26l0.359-0.016l-0.14-0.331C239.033,247.012,236.119,241.548,229.471,231.371z
	 M239.246,258.305c-1.576-3.375-2.414-5.046-4.196-8.357c-4.621,0.517-6.924,0.89-11.481,1.871c-0.598,3.7-0.843,5.549-1.233,9.238
	c-1.574,0.391-2.361,0.604-3.925,1.054c0.903-11.811,1.896-17.794,4.978-29.649c2.342-0.436,3.518-0.623,5.874-0.953
	c6.709,10.27,9.551,15.624,14.151,26.536C241.745,258.115,240.909,258.167,239.246,258.305z"/>
<path fill="#1D1D1B" d="M226.639,235.107c-0.278,1.716-0.585,3.482-0.967,5.267c-0.818,3.407-1.181,5.111-1.816,8.522
	c3.971-0.826,5.972-1.148,9.987-1.629c-1.687-3.015-2.574-4.512-4.436-7.465c-1.056-1.676-1.854-3.217-2.657-4.712
	C226.705,235.099,226.683,235.102,226.639,235.107z M226.869,235.843c0.695,1.301,1.414,2.646,2.326,4.094
	c1.781,2.825,2.653,4.286,4.247,7.128c-3.72,0.449-5.679,0.77-9.272,1.512c0.599-3.195,0.958-4.866,1.746-8.149
	c0.363-1.696,0.655-3.366,0.878-4.723L226.869,235.843z"/>
<path fill="#1D1D1B" d="M223.388,232.461c-3.082,11.855-4.074,17.839-4.978,29.649c1.563-0.449,2.351-0.663,3.925-1.054
	c0.391-3.689,0.636-5.538,1.233-9.238c4.558-0.981,6.86-1.354,11.481-1.871c1.782,3.312,2.62,4.982,4.196,8.357
	c1.663-0.138,2.499-0.189,4.167-0.261c-4.601-10.912-7.442-16.267-14.151-26.536C226.905,231.838,225.729,232.025,223.388,232.461z
	 M239.398,258.041c-1.548-3.312-2.375-4.954-4.129-8.212l-0.08-0.149l-0.168,0.02c-4.676,0.522-6.935,0.891-11.506,1.875
	l-0.167,0.036l-0.027,0.168c-0.588,3.646-0.832,5.462-1.216,9.078c-1.387,0.345-2.158,0.554-3.419,0.914
	c0.893-11.518,1.919-17.597,4.903-29.093c2.124-0.394,3.273-0.58,5.549-0.9c6.501,9.958,9.408,15.398,13.904,26.032
	C241.64,257.872,240.83,257.924,239.398,258.041z"/>
<path fill="#1D1D1B" d="M226.885,234.813l-0.464,0.07l-0.029,0.184c-0.232,1.436-0.552,3.33-0.963,5.248
	c-0.819,3.411-1.176,5.087-1.819,8.535l-0.068,0.366l0.365-0.075c3.936-0.819,5.892-1.139,9.966-1.626l0.371-0.044l-0.183-0.326
	c-1.717-3.068-2.588-4.536-4.442-7.476c-0.902-1.433-1.617-2.771-2.309-4.063L226.885,234.813z M233.843,247.268
	c-4.016,0.48-6.017,0.803-9.987,1.629c0.636-3.411,0.998-5.115,1.816-8.522c0.382-1.784,0.688-3.551,0.967-5.267
	c0.044-0.006,0.066-0.009,0.111-0.017c0.804,1.495,1.602,3.036,2.657,4.712C231.269,242.756,232.156,244.253,233.843,247.268z"/>
<path fill="#FFFFFF" d="M261.557,231.033c-5.354,0-9.922,1.655-12.864,4.661c-2.289,2.338-3.463,5.304-3.393,8.577
	c0.084,3.987,1.73,7.679,4.519,10.13c2.757,2.426,6.17,3.772,11.067,4.365c2.912,0.353,6.107,0.37,9.239,0.054l2.678-12.628
	c-4.204-0.886-6.397-1.242-10.69-1.738l-0.273,2.365c2.614,0.305,3.944,0.498,6.532,0.949l0.246,0.043l-0.043,0.246
	c-0.343,1.974-0.585,3.352-0.849,4.856l-0.606,3.459l-0.158,0.039c-1.082,0.272-3.024,0.254-5.503-0.052
	c-7.724-0.959-12.096-5.432-11.995-12.271c0.094-6.396,5.017-10.527,12.541-10.527c0.929,0,1.899,0.063,2.884,0.19
	c3.905,0.502,6.236,1.531,7.834,2.406c0.549-0.862,0.885-1.376,1.447-2.226c-1.657-0.93-4.866-2.133-8.848-2.648
	C264.037,231.118,262.771,231.033,261.557,231.033z"/>
<path fill="#1D1D1B" d="M265.386,230.788c-7.106-0.92-13.33,0.756-17.051,4.556c-2.352,2.402-3.607,5.576-3.535,8.938
	c0.087,4.127,1.796,7.952,4.688,10.495c2.837,2.497,6.333,3.881,11.337,4.486c1.551,0.188,3.178,0.284,4.836,0.284
	c1.555,0,3.135-0.084,4.697-0.248l0.181-0.02l2.805-13.229l0.053-0.244l-0.245-0.052c-4.466-0.944-6.67-1.303-11.23-1.826
	l-0.248-0.029l-0.389,3.359l0.249,0.028c2.683,0.31,4.011,0.499,6.506,0.931c-0.32,1.844-0.554,3.169-0.807,4.609l-0.55,3.136
	c-1.043,0.217-2.874,0.185-5.163-0.099c-7.441-0.924-11.653-5.213-11.557-11.768c0.089-6.097,4.815-10.035,12.041-10.035
	c0.908,0,1.856,0.063,2.819,0.187c3.993,0.513,6.299,1.585,7.861,2.461l0.206,0.116l0.127-0.2c0.673-1.061,1.019-1.586,1.714-2.638
	l0.145-0.218l-0.225-0.135C273.032,232.665,269.633,231.338,265.386,230.788z M272.807,236.491c-1.826-1.024-4.203-2.01-7.951-2.491
	c-9.027-1.161-15.041,3.137-15.143,10.093c-0.104,7.036,4.593,11.128,11.775,12.02c2.605,0.322,4.426,0.306,5.412,0.058
	c0.57-3.262,0.861-4.896,1.428-8.155c-2.697-0.47-4.051-0.662-6.767-0.976c0.133-1.144,0.201-1.718,0.331-2.862
	c4.508,0.518,6.754,0.881,11.207,1.822c-1.105,5.218-1.66,7.832-2.768,13.051c-1.859,0.196-5.428,0.457-9.477-0.035
	c-4.543-0.55-8.202-1.785-11.202-4.426c-2.653-2.332-4.513-6.003-4.604-10.313c-0.176-8.246,7.575-14.888,20.304-13.24
	c4.391,0.568,7.684,1.924,9.17,2.813C273.826,234.902,273.48,235.429,272.807,236.491z"/>
<path fill="#1D1D1B" d="M245.05,244.276c0.091,4.31,1.95,7.98,4.604,10.313c3,2.641,6.659,3.876,11.202,4.426
	c4.049,0.492,7.617,0.231,9.477,0.035c1.107-5.219,1.662-7.833,2.768-13.051c-4.453-0.941-6.699-1.305-11.207-1.822
	c-0.13,1.145-0.198,1.719-0.331,2.862c2.716,0.313,4.069,0.506,6.767,0.976c-0.566,3.26-0.857,4.894-1.428,8.155
	c-0.986,0.248-2.807,0.265-5.412-0.058c-7.183-0.892-11.879-4.983-11.775-12.02c0.102-6.956,6.115-11.254,15.143-10.093
	c3.748,0.481,6.125,1.467,7.951,2.491c0.674-1.063,1.02-1.589,1.717-2.642c-1.486-0.89-4.779-2.245-9.17-2.813
	C252.625,229.389,244.874,236.03,245.05,244.276z M272.722,236.158c-1.598-0.875-3.929-1.904-7.834-2.406
	c-0.984-0.127-1.955-0.19-2.884-0.19c-7.524,0-12.447,4.132-12.541,10.527c-0.101,6.84,4.271,11.313,11.995,12.271
	c2.479,0.306,4.421,0.324,5.503,0.052l0.158-0.039l0.606-3.459c0.264-1.505,0.506-2.883,0.849-4.856l0.043-0.246l-0.246-0.043
	c-2.588-0.451-3.918-0.645-6.532-0.949l0.273-2.365c4.293,0.496,6.486,0.853,10.69,1.738l-2.678,12.628
	c-3.132,0.316-6.327,0.299-9.239-0.054c-4.897-0.593-8.311-1.939-11.067-4.365c-2.788-2.451-4.435-6.143-4.519-10.13
	c-0.07-3.273,1.104-6.239,3.393-8.577c2.942-3.006,7.511-4.661,12.864-4.661c1.214,0,2.48,0.085,3.765,0.251
	c3.981,0.516,7.19,1.719,8.848,2.648C273.606,234.782,273.271,235.296,272.722,236.158z"/>
<path fill="#FFFFFF" d="M307.87,248.913c-1.417-4.017-4.905-7.313-9.822-9.281c-2.436-0.976-4.862-1.47-7.211-1.47
	c-6.528,0-11.545,3.791-13.093,9.893c-1.964,7.754,1.638,14.478,9.4,17.548c2.346,0.927,4.68,1.397,6.935,1.397
	c3.816,0,9.135-1.371,12.801-7.899C308.695,255.866,309.047,252.248,307.87,248.913z M303.014,257.214
	c-2.26,4.431-6.167,7.076-10.451,7.076c-0.001,0-0.001,0-0.001,0c-1.428,0-2.877-0.289-4.309-0.858
	c-5.691-2.266-8.261-8.028-6.393-14.34c1.516-5.116,5.426-8.295,10.206-8.295c1.56,0,3.196,0.338,4.866,1.003
	c3.311,1.317,5.631,3.527,6.708,6.391C304.715,251.043,304.486,254.332,303.014,257.214z"/>
<path fill="#1D1D1B" d="M308.342,248.747c-1.466-4.155-5.056-7.557-10.108-9.58c-2.495-0.998-4.983-1.505-7.396-1.505
	c-6.769,0-11.971,3.935-13.577,10.27c-2,7.896,1.808,15.014,9.701,18.136c2.404,0.95,4.8,1.433,7.118,1.433
	c3.95,0,9.452-1.415,13.236-8.155C309.203,255.983,309.567,252.219,308.342,248.747z M287.053,265.835
	c-7.506-2.969-11.613-9.7-9.551-17.842c2.166-8.54,11.01-12.448,20.639-8.594c9.84,3.939,12.988,12.642,8.957,19.823
	C302.422,267.551,294.309,268.702,287.053,265.835z"/>
<path fill="#1D1D1B" d="M296.84,242.032c-7.537-3.005-13.01,1.289-14.74,7.131c-1.682,5.684,0.318,11.677,6.246,14.036
	c5.977,2.379,11.584-0.488,14.445-6.099C305.301,252.187,304.434,245.053,296.84,242.032z M302.568,256.987
	c-2.173,4.26-5.913,6.803-10.006,6.803c-0.001,0-0.001,0-0.001,0c-1.364,0-2.751-0.277-4.123-0.823
	c-6.28-2.5-7.589-8.698-6.1-13.732c1.137-3.837,4.289-7.938,9.728-7.938c1.495,0,3.07,0.325,4.681,0.968
	c3.177,1.264,5.399,3.373,6.426,6.102C304.182,251.047,303.956,254.27,302.568,256.987z"/>
<path fill="#1D1D1B" d="M296.933,241.8c-1.67-0.665-3.307-1.003-4.866-1.003c-4.78,0-8.69,3.179-10.206,8.295
	c-1.868,6.312,0.701,12.074,6.393,14.34c1.432,0.569,2.881,0.858,4.309,0.858c0,0,0,0,0.001,0c4.284,0,8.191-2.646,10.451-7.076
	c1.473-2.882,1.701-6.171,0.627-9.023C302.563,245.327,300.243,243.117,296.933,241.8z M302.791,257.101
	c-2.861,5.61-8.469,8.478-14.445,6.099c-5.928-2.359-7.928-8.353-6.246-14.036c1.73-5.842,7.203-10.136,14.74-7.131
	C304.434,245.053,305.301,252.187,302.791,257.101z"/>
<path fill="#1D1D1B" d="M298.141,239.399c-9.629-3.854-18.473,0.054-20.639,8.594c-2.063,8.142,2.045,14.873,9.551,17.842
	c7.256,2.867,15.369,1.716,20.045-6.612C311.129,252.041,307.98,243.339,298.141,239.399z M306.88,259.101
	c-3.666,6.528-8.984,7.899-12.801,7.899c-2.255,0-4.589-0.471-6.935-1.397c-7.763-3.07-11.364-9.794-9.4-17.548
	c1.548-6.102,6.564-9.893,13.093-9.893c2.349,0,4.775,0.494,7.211,1.47c4.917,1.968,8.405,5.265,9.822,9.281
	C309.047,252.248,308.695,255.866,306.88,259.101z"/>
<path fill="#FFFFFF" d="M324.282,283.45l-0.11,0.146l-0.487-0.184l0.051-0.209c0.826-3.406,1.241-6.96,1.271-10.862
	c0.057-7.236-0.185-11.037-1.169-18.383c-1.66-1.144-2.578-1.756-4.345-2.869l-14.491,23.078c1.106,0.7,1.727,1.106,2.782,1.825
	l6.523-9.604c2.672-3.938,4.435-6.743,6.085-9.678l0.104-0.186l0.538,0.194l-0.004,0.181c-0.065,2.804,0.044,5.96,0.15,9.011
	c0.029,0.852,0.06,1.705,0.086,2.557c0.221,7.134,0.072,10.79-0.726,17.663c1.123,1.038,1.724,1.613,2.802,2.688l19.268-19.268
	c-1.255-1.248-1.954-1.921-3.228-3.106c-3.046,3.283-4.625,4.984-7.729,8.325C328.486,278.186,326.352,280.7,324.282,283.45z"/>
<path fill="#1D1D1B" d="M339.539,265.908l-0.183-0.17l-0.171,0.184c-3.158,3.404-4.738,5.106-7.9,8.509
	c-2.901,3.13-4.941,5.509-6.858,8.003c0.699-3.174,1.053-6.484,1.079-10.089c0.057-7.301-0.188-11.117-1.188-18.563l-0.015-0.11
	l-0.092-0.063c-1.792-1.233-2.717-1.851-4.665-3.076l-0.212-0.133l-15.023,23.924l0.211,0.133c1.312,0.828,1.937,1.238,3.187,2.09
	l0.207,0.142l6.805-10.018c2.514-3.707,4.227-6.413,5.797-9.168c-0.038,2.66,0.063,5.588,0.162,8.427
	c0.03,0.851,0.06,1.704,0.086,2.555c0.222,7.147,0.07,10.79-0.736,17.716l-0.015,0.127l0.093,0.086
	c1.24,1.145,1.84,1.721,3.058,2.938l0.177,0.177l19.975-19.975l-0.177-0.177C341.704,267.944,340.998,267.265,339.539,265.908z
	 M323.342,289.173c-1.207-1.206-1.82-1.796-3.064-2.944c0.807-6.927,0.963-10.499,0.738-17.753
	c-0.123-3.975-0.32-8.004-0.236-11.581c-0.068-0.024-0.105-0.038-0.17-0.062c-1.723,3.064-3.508,5.881-6.096,9.696
	c-2.666,3.925-3.998,5.885-6.664,9.811c-1.266-0.863-1.904-1.281-3.193-2.095c5.902-9.401,8.854-14.1,14.758-23.501
	c1.885,1.186,2.811,1.8,4.656,3.07c1.01,7.517,1.242,11.244,1.186,18.528c-0.031,4.22-0.508,7.745-1.277,10.919
	c0.041,0.017,0.064,0.024,0.104,0.038c2.242-2.979,4.449-5.53,7.387-8.699c3.162-3.402,4.742-5.104,7.9-8.509
	c1.455,1.353,2.174,2.045,3.594,3.46C335.115,277.4,331.191,281.323,323.342,289.173z"/>
<path fill="#1D1D1B" d="M331.469,274.601c-2.938,3.169-5.145,5.72-7.387,8.699c-0.039-0.014-0.063-0.021-0.104-0.038
	c0.77-3.174,1.246-6.699,1.277-10.919c0.057-7.284-0.176-11.012-1.186-18.528c-1.846-1.271-2.771-1.885-4.656-3.07
	c-5.904,9.401-8.855,14.1-14.758,23.501c1.289,0.813,1.928,1.231,3.193,2.095c2.666-3.926,3.998-5.886,6.664-9.811
	c2.588-3.815,4.373-6.632,6.096-9.696c0.064,0.023,0.102,0.037,0.17,0.062c-0.084,3.577,0.113,7.606,0.236,11.581
	c0.225,7.254,0.068,10.826-0.738,17.753c1.244,1.148,1.857,1.738,3.064,2.944c7.85-7.85,11.773-11.772,19.621-19.621
	c-1.42-1.415-2.139-2.107-3.594-3.46C336.211,269.496,334.631,271.198,331.469,274.601z M342.609,269.552l-19.268,19.268
	c-1.078-1.075-1.679-1.65-2.802-2.688c0.798-6.873,0.946-10.529,0.726-17.663c-0.026-0.852-0.057-1.705-0.086-2.557
	c-0.106-3.051-0.216-6.207-0.15-9.011l0.004-0.181l-0.538-0.194l-0.104,0.186c-1.65,2.935-3.413,5.739-6.085,9.678l-6.523,9.604
	c-1.056-0.719-1.676-1.125-2.782-1.825l14.491-23.078c1.767,1.113,2.685,1.726,4.345,2.869c0.984,7.346,1.226,11.146,1.169,18.383
	c-0.029,3.902-0.444,7.456-1.271,10.862l-0.051,0.209l0.487,0.184l0.11-0.146c2.069-2.75,4.204-5.265,7.37-8.68
	c3.104-3.341,4.684-5.042,7.729-8.325C340.655,267.631,341.354,268.304,342.609,269.552z"/>
<path fill="#E20613" d="M330.927,133.674c0.011-0.006,0.031-0.009,0.044-0.015c-0.004,0-0.011-0.001-0.016-0.001
	C330.945,133.663,330.936,133.668,330.927,133.674z"/>
<path fill="#E20613" d="M379.314,136.548c-4.826,2.411-10.367,4.018-15.53,4.224c5.729,0.217,12.142-1.483,17.629-4.224
	c4.848-2.418,8.26-6.096,10.785-10.118c0.352-0.561,0.784-1.963,1.314-2.426c-1.013,0.889-2.134,1.634-3.32,2.258
	c-0.031,0.059-0.063,0.12-0.093,0.167C387.574,130.452,384.162,134.13,379.314,136.548z"/>
<path fill="#E20613" d="M372.543,108.289c0.922-1.931,2.104-3.619,3.469-5.166c3.972-9.694,14.22-13.551,14.22-13.551
	c-0.813,0.305-1.994,0.322-3.014,0.393C384.102,91.401,374.02,96.883,372.543,108.289z"/>
<path fill="#E20613" d="M421.074,88.717c0.893,0.142,2.656,0.73,3.631,0.498c-4.736,1.129-9.99,2.603-14.27,5.086
	c-5.463,3.169-8.494,8.314-11.051,12.986c-4.311,7.886-9.654,14.604-19.521,18.596c-2.959,1.197-8.27,3.616-11.305,3.215
	c0,0,2.356,0.307,5.695,0.234c-2.185-0.049-3.597-0.234-3.597-0.234c3.035,0.401,8.346-2.018,11.306-3.215
	c9.866-3.991,15.211-10.71,19.521-18.596c2.557-4.672,5.588-9.816,11.051-12.986c4.28-2.484,9.534-3.957,14.27-5.086
	c-0.974,0.232-2.737-0.356-3.63-0.498c-1.332-0.212-2.651-0.445-4.023-0.58c-1.682-0.164-3.404-0.216-5.15-0.172
	c1.028,0.023,2.048,0.075,3.051,0.172C418.424,88.271,419.742,88.505,421.074,88.717z"/>
<path fill="#E20613" d="M382.449,90.875c-2.296,0.606-4.549,1.411-6.745,2.375c-4.967,2.185-9.866,5.016-13.508,8.744
	c-6.665,6.822-9.225,15.548-16.342,22.068c-4.227,3.869-9.774,6.938-14.899,9.938c0.005,0,0.012,0,0.016,0
	c0.457-1,1.91-0.162,2.3-0.161c1.775,0.009,3.539-0.027,5.289,0.06c4.203,0.205,7.813,1.09,11.334,2.519
	c4.355,1.771,8.301,4.112,13.626,4.374c0.087,0.004,0.178-0.013,0.265-0.009c5.163-0.207,10.704-1.819,15.53-4.229
	c4.848-2.418,8.26-6.099,10.785-10.121c0.03-0.048,0.062-0.11,0.093-0.168c-5.313,2.796-11.93,3.16-15.938,3.068
	c-3.339,0.073-5.695-0.234-5.695-0.234c3.035,0.401,8.346-2.018,11.305-3.215c9.867-3.991,15.211-10.71,19.521-18.596
	c2.557-4.672,5.588-9.816,11.051-12.986c4.279-2.484,9.533-3.957,14.27-5.086c-0.975,0.232-2.738-0.356-3.631-0.498
	c-1.332-0.212-2.65-0.445-4.023-0.58c-1.003-0.098-2.022-0.149-3.051-0.172c-8.121,0.202-16.766,2.585-24.321,6.651
	c-6.757,3.636-12.1,7.518-15.037,13.673c0.243-1.882,0.728-3.598,1.37-5.166c-1.364,1.546-2.547,3.234-3.469,5.166
	c1.477-11.406,11.559-16.888,14.675-18.323c-0.329,0.022-0.643,0.051-0.92,0.097C385.015,90.27,383.729,90.541,382.449,90.875z"/>
<g>
	<g>
		<path fill="#FFFFFF" d="M193.417,297.052c-1.869,1.549-2.783,2.362-4.564,4.063c1.208,1.267,1.81,1.9,3.018,3.167
			c1.885-1.799,2.857-2.655,4.844-4.275c0.332,0.408,0.497,0.611,0.829,1.02c-2.538,2.069-3.769,3.18-6.135,5.545
			c-3.433-3.433-5.148-5.147-8.581-8.58c2.614-2.614,3.971-3.841,6.768-6.141c0.333,0.406,0.501,0.61,0.834,1.017
			c-2.099,1.726-3.125,2.634-5.12,4.538c1.059,1.11,1.589,1.662,2.648,2.772c1.808-1.726,2.735-2.552,4.632-4.124
			C192.92,296.452,193.086,296.652,193.417,297.052z"/>
		<path fill="#FFFFFF" d="M204.061,296.237c-0.292-0.334-0.438-0.504-0.73-0.837c-0.021,0.015-0.032,0.022-0.053,0.037
			c-0.106,0.893-0.678,2.01-1.871,2.871c-1.695,1.224-3.295,0.927-4.072-0.066c-1.298-1.659-0.155-4.111,3.39-6.451
			c-0.04-0.06-0.059-0.09-0.099-0.149c-0.399-0.601-1.343-1.564-3.233-0.225c-0.859,0.609-1.599,1.47-1.992,2.266
			c-0.401-0.22-0.603-0.328-1.007-0.544c0.465-0.948,1.393-2.023,2.574-2.855c2.868-2.019,4.583-0.875,5.517,0.603
			c0.697,1.103,1.045,1.651,1.742,2.754c0.404,0.639,0.835,1.24,1.259,1.676C204.913,295.677,204.628,295.862,204.061,296.237z
			 M201.369,292.683c-1.813,1.162-3.61,2.878-2.599,4.234c0.614,0.824,1.565,0.718,2.357,0.153c1.109-0.791,1.425-1.868,1.268-2.648
			c-0.034-0.171-0.099-0.346-0.189-0.48C201.872,293.438,201.704,293.187,201.369,292.683z"/>
		<path fill="#FFFFFF" d="M204.395,282.946c0.48,0.879,0.72,1.32,1.2,2.199c1.029-0.563,1.548-0.836,2.592-1.362
			c0.217,0.431,0.325,0.646,0.542,1.076c-1.029,0.52-1.542,0.789-2.557,1.344c0.901,1.65,1.354,2.479,2.255,4.129
			c0.518,0.948,1.126,1.303,2.049,0.819c0.434-0.228,0.729-0.437,0.913-0.591c0.246,0.408,0.368,0.611,0.612,1.021
			c-0.261,0.273-0.72,0.609-1.349,0.944c-0.758,0.403-1.487,0.518-2.075,0.377c-0.67-0.16-1.244-0.719-1.756-1.608
			c-0.949-1.648-1.424-2.474-2.373-4.122c-0.598,0.345-0.896,0.519-1.488,0.876c-0.249-0.413-0.374-0.619-0.623-1.032
			c0.601-0.362,0.903-0.54,1.51-0.89c-0.417-0.725-0.625-1.086-1.042-1.811C203.434,283.762,203.751,283.486,204.395,282.946z"/>
		<path fill="#FFFFFF" d="M213.111,290.029c-0.289-0.601-0.011-1.256,0.669-1.569s1.339-0.093,1.609,0.517
			c0.263,0.593,0.022,1.23-0.677,1.553C214.052,290.835,213.392,290.614,213.111,290.029z"/>
		<path fill="#FFFFFF" d="M216.951,287.253c0.932,0.084,2.177-0.023,3.359-0.456c1.755-0.642,2.533-1.768,2.153-2.933
			c-0.352-1.079-1.32-1.497-3.404-1.382c-2.503,0.138-4.342-0.172-4.998-1.752c-0.725-1.747,0.654-3.87,3.603-4.902
			c1.553-0.544,2.779-0.625,3.547-0.54c-0.066,0.556-0.098,0.833-0.158,1.388c-0.554-0.052-1.673-0.074-3.026,0.4
			c-2.041,0.717-2.445,1.958-2.146,2.73c0.411,1.057,1.49,1.217,3.674,1.141c2.676-0.094,4.18,0.52,4.694,2.227
			c0.54,1.794-0.524,3.752-3.607,4.885c-1.261,0.463-2.751,0.694-3.614,0.586C216.994,288.088,216.979,287.811,216.951,287.253z"/>
		<path fill="#FFFFFF" d="M224.181,273.346c0.811-0.218,1.217-0.319,2.032-0.519c1.216,4.968,1.824,7.451,3.042,12.419
			c-0.703,0.172-1.054,0.261-1.754,0.448C226.171,280.756,225.508,278.285,224.181,273.346z"/>
		<path fill="#FFFFFF" d="M232.438,280.389c0.447,2.096,2.164,2.662,3.971,2.395c1.294-0.191,2.051-0.482,2.706-0.812
			c0.176,0.437,0.264,0.658,0.437,1.096c-0.606,0.32-1.647,0.728-3.204,0.963c-3.013,0.456-5.164-0.853-5.716-3.423
			c-0.552-2.569,0.927-5.04,4.1-5.529c3.555-0.548,4.771,1.911,4.936,3.505c0.033,0.322,0.017,0.576,0.012,0.739
			C236.77,279.624,235.318,279.837,232.438,280.389z M237.785,278.396c-0.104-1.003-0.837-2.517-3.035-2.174
			c-1.977,0.309-2.561,1.942-2.504,3.049C234.452,278.85,235.561,278.674,237.785,278.396z"/>
		<path fill="#FFFFFF" d="M243.124,279.037c0.177,2.136,1.804,2.913,3.626,2.875c1.305-0.027,2.092-0.216,2.783-0.46
			c0.119,0.455,0.178,0.681,0.293,1.137c-0.641,0.241-1.723,0.516-3.293,0.553c-3.041,0.072-5-1.498-5.222-4.118
			c-0.222-2.619,1.551-4.88,4.753-4.965c3.587-0.095,4.482,2.496,4.444,4.099c-0.008,0.324-0.057,0.574-0.082,0.735
			C247.504,278.825,246.041,278.854,243.124,279.037z M248.667,277.736c0.024-1.008-0.509-2.604-2.729-2.541
			c-1.995,0.057-2.781,1.604-2.864,2.709C245.309,277.765,246.429,277.731,248.667,277.736z"/>
		<path fill="#FFFFFF" d="M252.92,277.186c0.059-1.115,0.061-2.016,0.057-2.846c0.716,0.036,1.072,0.056,1.787,0.105
			c-0.006,0.6-0.009,0.899-0.016,1.498c0.018,0.001,0.027,0.001,0.045,0.002c0.876-1.002,2.229-1.53,4.014-1.324
			c2.645,0.306,4.322,2.413,3.88,5.023c-0.523,3.09-2.919,4.251-5.233,3.992c-1.299-0.146-2.395-0.739-2.932-1.646
			c-0.017-0.001-0.023-0.001-0.04-0.002c-0.14,1.89-0.207,2.835-0.347,4.725c-0.68-0.05-1.021-0.072-1.7-0.107
			C252.629,282.837,252.726,280.955,252.92,277.186z M254.655,279.619c-0.018,0.232,0.003,0.461,0.038,0.65
			c0.198,1.082,1.287,1.96,2.586,2.1c1.918,0.207,3.227-0.97,3.516-2.947c0.253-1.729-0.661-3.389-2.734-3.614
			c-1.337-0.146-2.651,0.536-3.117,1.683c-0.078,0.192-0.163,0.423-0.179,0.638C254.721,278.725,254.699,279.022,254.655,279.619z"
			/>
		<path fill="#FFFFFF" d="M263.439,283.381c0.122-0.654,0.724-1.021,1.447-0.875s1.117,0.713,0.976,1.363
			c-0.139,0.634-0.704,1.005-1.446,0.855C263.713,284.583,263.32,284.019,263.439,283.381z"/>
		<path fill="#FFFFFF" d="M277.319,287.83c-0.726,0.031-2.063-0.16-3.669-0.688c-3.722-1.223-6.089-3.96-5.17-7.832
			c0.877-3.696,4.79-5.49,9.514-3.913c1.897,0.634,2.968,1.393,3.401,1.788c-0.369,0.407-0.551,0.611-0.915,1.021
			c-0.622-0.541-1.59-1.122-2.838-1.54c-3.519-1.178-6.365-0.001-7.174,3.082c-0.754,2.875,0.688,5.178,3.949,6.266
			c1.053,0.351,2.185,0.547,2.985,0.521C277.371,287.055,277.356,287.313,277.319,287.83z"/>
		<path fill="#FFFFFF" d="M289.389,288.974c-1.55,2.827-4.506,2.809-6.711,1.773c-2.468-1.159-3.777-3.517-2.758-6.077
			c1.08-2.711,3.994-3.418,6.803-2.092C289.635,283.953,290.671,286.635,289.389,288.974z M281.742,285.358
			c-0.747,1.757-0.126,3.576,1.519,4.351c1.604,0.756,3.445,0.114,4.349-1.629c0.679-1.311,0.713-3.431-1.438-4.444
			C284.021,282.621,282.391,283.834,281.742,285.358z"/>
		<path fill="#FFFFFF" d="M304.326,288.672c-2.518,3.378-3.779,5.066-6.297,8.445c-0.463,0.621-0.972,1.341-1.275,1.856
			c-0.543-0.406-0.814-0.607-1.363-1.001c0.324-0.513,0.485-0.769,0.809-1.281c-0.015-0.01-0.021-0.015-0.035-0.024
			c-1.043,0.45-2.488,0.333-3.891-0.579c-2.076-1.35-2.82-3.829-1.517-6.121c1.429-2.51,4.348-2.918,6.675-1.396
			c1.461,0.955,2.068,2.162,2.08,3.032c0.016,0.011,0.023,0.017,0.039,0.027c1.205-1.698,1.808-2.547,3.013-4.244
			C303.272,287.891,303.626,288.148,304.326,288.672z M298.156,293.599c0.115-0.162,0.247-0.4,0.309-0.596
			c0.311-0.98-0.1-2.328-1.381-3.174c-1.767-1.167-3.59-0.566-4.588,1.081c-0.915,1.511-0.783,3.272,0.923,4.398
			c1.061,0.699,2.416,0.789,3.393,0.03c0.178-0.138,0.321-0.303,0.467-0.508C297.628,294.338,297.807,294.092,298.156,293.599z"/>
		<path fill="#FFFFFF" d="M302.579,298.388c-1.333,1.679-0.617,3.42,0.822,4.729c1.031,0.938,1.776,1.383,2.482,1.72
			c-0.221,0.419-0.334,0.627-0.558,1.044c-0.666-0.303-1.694-0.908-2.938-2.032c-2.407-2.175-2.83-4.715-1.197-6.775
			c1.632-2.061,4.549-2.439,7.089-0.158c2.848,2.558,1.767,5.124,0.634,6.257c-0.229,0.229-0.439,0.373-0.571,0.471
			C306.111,301.416,304.956,300.364,302.579,298.388z M307.771,301.496c0.713-0.713,1.392-2.27-0.371-3.847
			c-1.587-1.42-3.252-0.86-4.078-0.119C305.143,299.045,306.033,299.836,307.771,301.496z"/>
	</g>
</g>
<g>
	<g>
		<path fill="none" d="M262.729,396.14c-1.506,0-2.729,0.122-2.729,0.203V404h2.28c3.094,0,4.966-1.59,4.966-3.992
			C267.246,397.484,265.578,396.181,262.729,396.14z"/>
		<g>
			<path fill="#1D1D1B" d="M156,397.538c0,4.845-1.784,7.125-5.041,7.125c-3.176,0-4.959-2.402-4.959-7.125V382h-7v15.05
				c0,8.753,4.355,12.58,11.276,12.58c7.165,0,11.724-4.031,11.724-12.498V382h-6V397.538z"/>
			<path fill="#1D1D1B" d="M184,389.763c0,4.111,0.642,8.237,1.049,11.237h-0.122c-1.222-3-2.85-6.284-4.479-9.175L174.749,382H167
				v27h6v-8.083c0-4.478,0.021-8.346-0.143-11.969l0.172-0.04c1.344,3.216,3.16,6.667,4.788,9.598L183.705,409H190v-27h-6V389.763z"
				/>
			<rect x="195" y="382" fill="#1D1D1B" width="6" height="27"/>
			<path fill="#1D1D1B" d="M220.057,393.518c-0.937,3.135-1.791,6.482-2.483,9.482h-0.122c-0.651-3-1.507-6.348-2.442-9.604
				L211.67,382h-6.799l8.794,27h7.246l9.241-27h-6.595L220.057,393.518z"/>
			<polygon fill="#1D1D1B" points="239,398 249,398 249,393 239,393 239,387 250,387 250,382 233,382 233,409 250,409 250,404 
				239,404 			"/>
			<path fill="#1D1D1B" d="M269,396.317v-0.122c3-0.855,5.166-3.257,5.166-6.758c0-2.524-0.739-4.438-2.367-5.74
				c-1.954-1.548-5.133-2.158-9.203-2.158c-3.299,0-6.596,0.244-8.596,0.57V409h7v-11h1.84c2.524,0,3.704,1.082,4.438,4.502
				c0.813,3.379,1.466,5.498,1.913,6.498h6.352c-0.529-1-1.702-4.55-2.558-7.645C272.293,398.832,271,397.091,269,396.317z
				 M263.409,394H261v-7.657c0-0.081,1.287-0.203,2.793-0.203c2.85,0.041,4.55,1.345,4.55,3.868
				C268.343,392.41,266.503,394,263.409,394z"/>
			<path fill="#1D1D1B" d="M289.625,392.897c-3.542-1.344-5.089-2.117-5.089-3.867c0-1.425,1.303-2.646,3.99-2.646
				c2.687,0,4.641,0.773,5.74,1.303l1.384-5.008c-1.629-0.732-3.908-1.384-7.003-1.384c-6.473,0-10.381,3.583-10.381,8.265
				c0,3.989,2.973,6.514,7.531,8.101c3.298,1.181,4.601,2.158,4.601,3.868c0,1.791-1.507,2.972-4.356,2.972
				c-2.646,0-5.211-0.854-6.879-1.71l-1.263,5.13c1.547,0.854,4.642,1.669,7.776,1.669c7.531,0,11.072-3.908,11.072-8.509
				C296.749,397.213,294.47,394.688,289.625,392.897z"/>
			<rect x="301" y="382" fill="#1D1D1B" width="6" height="27"/>
			<polygon fill="#1D1D1B" points="310,387 317,387 317,409 324,409 324,387 331,387 331,382 310,382 			"/>
			<path fill="#1D1D1B" d="M346.98,388.672c-0.813,1.953-1.466,3.328-2.075,5.328h-0.082c-0.691-2-1.262-3.334-2.117-5.328
				L339.897,382h-7.084L341,397.945V409h6v-11.258L356.711,382h-6.962L346.98,388.672z"/>
		</g>
	</g>
	<g>
		<path fill="#1D1D1B" d="M207.971,346.267l-11.032,25.874h-5.231l-10.88-25.874h7.317L194.38,362l6.293-15.733H207.971z"/>
		<path fill="#1D1D1B" d="M217.41,372.141h-6.729v-25.874h6.729V372.141z"/>
		<path fill="#1D1D1B" d="M248.687,372.141h-6.729l-12.378-15.847v15.847h-6.729v-25.874h6.729l12.378,15.828v-15.828h6.729V372.141
			z"/>
		<path fill="#1D1D1B" d="M278.275,372.141h-8.7l-8.739-11.222v11.222h-6.729v-25.874h6.729v10.672l8.209-10.672h8.283
			l-10.256,12.245L278.275,372.141z"/>
		<path fill="#1D1D1B" d="M295.999,372.141h-14.729v-25.874h14.729v5.611H288v4.416h7.563v5.611H288v4.625h7.999V372.141z"/>
		<path fill="#1D1D1B" d="M315.067,372.141h-14.803v-25.874h6.729v20.264h8.074V372.141z"/>
	</g>
</g>
</svg>
