<?xml version="1.0" encoding="utf-8"?>
<!-- Generator: Adobe Illustrator 18.0.0, SVG Export Plug-In . SVG Version: 6.00 Build 0)  -->
<!DOCTYPE svg PUBLIC "-//W3C//DTD SVG 1.1//EN" "http://www.w3.org/Graphics/SVG/1.1/DTD/svg11.dtd">
<svg version="1.1" id="Layer_1" xmlns="http://www.w3.org/2000/svg" xmlns:xlink="http://www.w3.org/1999/xlink" x="0px" y="0px"
	 viewBox="0 0 612 792" enable-background="new 0 0 612 792" xml:space="preserve">
<path fill="#1D1D1B" d="M344.6,455.2c-2.6-1.6-5.3-3.1-8.1-4.4c-3.1-1.4-5.1-0.7-6.4,2.4c-0.3,0.6,0.3,1.7,0.5,2.4
	c2.9-0.5,5-1.4,6.9-1.1c1.9,0.3,3.6,1.8,5.4,2.8c0.1,0.1,0.2,0.2,0.3,0.2c0.8-0.1,1.6-0.3,2.4-0.4
	C345.3,456.4,345.2,455.5,344.6,455.2z"/>
<path fill="#1D1D1B" d="M264.6,133.1c5-0.1,6.5-1.4,5.3-3.5c-1.4-2.5-2.8-4.9-4.5-7.2c-0.4-0.6-2.6-0.8-2.8-0.4
	c-1.3,2.1-3.6,4.9-3,6.5C260.2,130.7,263.3,132.1,264.6,133.1z"/>
<path fill="#1D1D1B" d="M461.6,377.2c0,0.3,0,0.7,0,1c0-0.3,0.1-0.6,0.1-1C461.7,377.2,461.6,377.2,461.6,377.2z"/>
<path fill="#1D1D1B" d="M168.3,430.4c-0.2,0-0.4,0-0.6,0c0-1.2,0.1-2.4,0-3.5c-0.1-0.5-0.7-0.9-1-1.4c-0.3,0.4-0.7,0.7-0.8,1.2
	c-1.3,7.2-2.5,14.3-1.3,21.6c0.3,2.1,0.7,4.1,1.2,6.1c0.2,0.6,1,1,1.5,1.4c0.4-0.6,1.1-1.1,1.2-1.7c0.2-0.9-0.1-1.8-0.1-2.7
	C168.3,444.4,168.3,437.4,168.3,430.4z"/>
<path fill="#1D1D1B" d="M164.4,194c-1.1,1.4-2.1,3-3,4.5c-0.1,0.1,0.2,0.6,0.5,0.9c1-1.7,2.1-3.4,3.1-5.1
	C164.7,194.1,164.4,194,164.4,194z"/>
<path fill="#1D1D1B" d="M461.6,378.2c-0.4,2.7-0.7,5.3-1.1,8c0.5-0.8,1-1.7,1.1-2.5C461.7,381.9,461.7,380,461.6,378.2z"/>
<path fill="#1D1D1B" d="M461.7,377.2c0,0.3-0.1,0.6-0.1,1c0.1,1.8,0.1,3.7,0,5.5c0,0.8-0.5,1.7-1.1,2.5c-0.1,0.5-0.1,1.1-0.2,1.6
	c0.1,0,0.3,0,0.4-0.1c3-4.9,2-10.3,1.6-15.5c0-0.2-0.2-0.5-0.4-0.7c-0.2-0.2-0.4-0.4-0.6-0.5c0.1,2.1,0.2,4.1,0.2,6.2
	C461.6,377.2,461.7,377.2,461.7,377.2z"/>
<path fill="#1D1D1B" d="M490.1,236.2c-0.6,0.1-1.3,0-1.8,0.3c-0.6,0.4-1,1.2-1.5,1.7c-0.6,0.6-1.3,1-2,1.5c-0.3-0.7-0.8-1.3-1-2
	c-3.5-11.9-3.6-24.2-4.3-36.4c-0.3-5.2-0.3-10.3-1.9-15.3c-0.5-1.4-1.4-2.7-2.2-4.1c-1,1.6-2.1,3.1-3,4.7c-0.3,0.5,0,1.3,0,1.9
	c0.4,3.3,0.7,6.7,1.2,10c1.8,13.5,2.9,26.9,1.7,41c-4-4-0.3-9.8-3.4-13.1c-0.1,0.1-0.3,0.1-0.4,0.2c-8.2,4.4-6.4,13.9-10.3,20.6
	c-0.6-2.6,0-5.4-1.1-7.3c-2.3-3.8-2.1-7.7-2.1-11.7c0-3.6,0-7.3,0.2-10.9c0.2-3.3,0.8-6.5,4.8-7.7c0.9-0.3,2.1-2,1.9-2.9
	c-1.1-5.7-2.4-11.4-3.7-17.1c-0.9-3.9-2.4-7.8-2.7-11.7c-0.5-6.3-0.4-12.7-0.2-19c0.1-2.6,1-5.2,1.4-7.8c0.1-0.9,0.1-1.8,0-2.6
	c-0.2-2.1-0.6-4.1-0.8-6.2c-0.4-3.4-0.5-6.7-1-10.1c-0.3-2-1.6-3.5-3.8-2.8c-0.7,0.2-1.4,2.2-1.3,3.3c0.2,3.9,0.9,7.8,1.2,11.7
	c0.1,1.3-0.5,2.6-0.8,4c-0.6-1.1-1.5-2.1-1.9-3.3c-0.9-2.8-1.5-5.7-2.4-8.4c-1.6-4.6-2.4-9,0.4-13.5c0.5-0.9,0.6-2,0.9-3
	c1.6-5.7,3-11.6,6.6-16.5c0.4-0.6,0.7-1.3,1-1.9c-0.6,0.3-1.1,0.6-1.6,0.9c-3.6,2.4-5.3,6.2-6.3,10.3c-0.4,1.6-0.4,3-2.8,2.5
	c-2.8-0.5-3.8,1.1-3.3,3.7c0.2,1,0.3,2.1,0.5,3.1c1,4.8-0.4,8.4-4.6,11c-0.9,0.6-1.3,2.3-1.3,3.5c0,0.8,1.1,1.5,1.7,2.3
	c0.8-0.9,1.7-1.8,2.5-2.7c1-1.2,2-2.6,3-3.8c0.4,1.6,1,3.1,1.2,4.7c0.6,6.3,0.7,12.7,1.6,19c0.8,5.5,2.4,10.9,3.4,16.4
	c0.2,1.1-0.5,2.4-0.8,3.6c-0.9-0.7-2.2-1.2-2.8-2.1c-1.8-3-3.5-6-5-9.1c-0.8-1.7-1.7-3.5-1.9-5.3c-0.6-4.4-4.5-7.8-9-7.2
	c-0.6,0.1-1.7,1.1-1.7,1.6c0.2,2.7,0.5,5.3,1,7.9c0.8,3.8,2.2,7.4,2.7,11.3c0.8,6.4,1.2,12.9,1.7,19.4c0.1,1.4,0.2,2.9,0,4.2
	c-0.1,0.7-1,1.4-1.5,2c-0.5-0.5-1.2-0.9-1.6-1.5c-4.2-5.9-5.6-12.7-5.8-19.9c0-0.7-0.1-1.4-0.2-2c-0.1-0.7-0.3-1.4-0.5-2
	c-1.3-3.8-2.6-7.5-4.1-11.2c-0.4-1.1-1.3-2.1-2.2-3c-0.9-0.9-2.3-1.5-2.8-2.5c-2.9-5.6-5.6-11.3-8.2-17.1c-0.7-1.5-0.9-3.1-1.4-4.7
	c-0.1,0-0.3,0.1-0.4,0.1c-0.1,0-0.2,0.1-0.4,0.1c0.4,2.1,0.8,4.2,1.3,6.3c1.1,4.7,1.1,4.7-3.9,4.9c-0.8,0-1.7-0.1-2.3,0.2
	c-0.7,0.3-1.7,1.3-1.6,1.6c0.6,2,1.5,3.9,2.3,5.8c0.3,0.8,1,1.8,0.9,2.5c-0.4,1.5-0.6,3.7-3.1,3c-2.3-0.6-5.8-0.1-5.5-4.1
	c0.1-1.6,0.8-3.3,1.3-4.9c1.2-3.6,2.6-7.1,3.8-10.7c0.2-0.6-0.1-1.9-0.6-2.1c-3.4-1.6-6.7-0.1-7.9,3.6c-1.1,3.5-1.9,7-3,10.5
	c-0.3,1-1.2,1.7-1.8,2.6c-0.5-1.1-0.9-2.1-1.4-3.2c0-0.1,0-0.3,0-0.4c1-8.1,2.1-16.2,3.1-24.3c0.3-1.9,0.8-3.8,1-5.7
	c0.4-3.3,0.9-6.6,0.8-9.9c0-2.3-3.8-4.3-6-3.6c-2.6,0.9-2.2,3-1.9,5.2c0.3,2.7,0.6,5.5,0,8.1c-0.9,3.6-1.1,6.8,0.7,10.2
	c0.4,0.7,0.1,2.8-0.3,2.9c-3.5,1-2.6,3.6-2.4,6.1c0.1,1.1,0.4,2.4,0,3.3c-1,2.1-0.6,3.2,1.4,4.5c2.3,1.4,2.2,6.4,0,7.8
	c-0.4,0.2-1.6-0.1-1.8-0.5c-0.9-1.8-1.7-2.3-2.4-2.1c-0.7,0.2-1.3,1.3-1.9,2.5c-1.4,3.4-3.4,4.5-6.9,2.6c-1.8-1-4.1-0.3-4.1,2
	c0,3.9-1.5,6.7-4.4,9.2c-1.5,1.3-2.1,2-2.8-0.4c-0.2-0.5-0.7-0.9-1.1-1.3c-0.4,0.5-1,0.9-1,1.4c0.1,2.6,0.4,5.2,0.7,8.3
	c0.2-0.2,0.3-0.3,0.4-0.5c0.3-0.3,0.4-0.4,0.4-0.6c0.3-1.8,0.9-3.6,3.1-2.7c0.6,0.3,0.2,2.5,0.4,3.9c0.1,1.3,0,2.8,0.6,3.9
	c0.8,1.4,0.9,2.3-0.6,3.2c-0.6,0.4-1.5,1.6-1.4,1.8c0.9,1.6,2.1,4.2,3.2,4.3c4.4,0.2,3.5,2.4,2.6,5c-0.4,1.1-0.5,2.3-0.7,3.4
	c-0.8,3.6-1.6,7.3-2.6,10.9c-0.3,1.3-2.1,2.5,0.1,3.5c1.6,0.8,2.9,0.5,3.6-1.6c0.2-0.7,1.6-1.5,2.3-1.5c0.6,0.1,0.9,1.5,1.6,2.2
	c1,1,2.2,2.5,3.3,2.4c1.4-0.1,2.9-1.4,4.3-2.2c0.5-0.3,1-0.7,1.4-1.1c0.2,0.7,0.5,1.4,0.5,2.1c0,0.6-0.5,1.2-0.6,1.8
	c-0.2,1-0.5,2.9-0.2,3c2.2,1,4.5,1.6,6.9,2.4c0.1-0.6,0.4-1.3,0.2-1.7c-2-2.7,0.1-4.4,1-6.2c1.3,2.9,2.7,5.6,3.8,8.5
	c0.4,1,0.9,2.6,0.4,3.3c-2.7,3.9-1,7.4,0.5,11c0.4,0.9,0.3,2.6-0.3,3.1c-2.4,2.1-2.2,4.5-1.7,7.2c0.2,0.8-0.2,1.7-0.5,2.5
	c0,0.1-1.2,0.1-1.3-0.1c-0.5-0.8-1.2-1.8-1.1-2.6c0.1-3,0.5-6.1,0.8-9.6c-1.2,0.6-1.9,1.3-2.5,1.2c-4.2-0.5-3.6,2.1-3,4.6
	c0.2,0.8,0.3,1.5,0.6,2.3c1.3,3,1.9,5.9,0.5,9.1c-0.3,0.7,0,2.4,0.6,2.7c5,2.9,3,7.2,2.6,11.3c-1.7-2.2-2.9-4.6-4.5-6.8
	c-1.2-1.6-2.7-3.4-4.4-4.3c-0.7-0.4-2.5,1.4-3.8,2c-1.3,0.6-2.9,0.7-4,1.4c-1.2,0.8-2.2,2-3,3.2c-0.2,0.3,0.2,1.6,0.4,1.6
	c2.9,0,6,0.5,8.5-0.4c2.8-1,3.3-0.1,3.4,2.1c0.1,2.2,0.1,4.4,0.1,6.6c0,2.8-1.8,4-4.6,3.9c-2.2-0.1-4.7,0.2-6.7,1.1
	c-3.8,1.8-7.3,4.2-10.8,6.5c-1.5,0.9-2.5,0.8-3.1-0.8c-0.9-2.1-1.6-4.3-2.4-6.5c-0.5-1.3-0.9-3.1-2.9-1.7c-3.6,2.4-7,5.1-10.8,7.2
	c-1.7,0.9-4.1,1.2-6,0.8c-1.9-0.4-3.6-1.9-4.4,1.2c-0.6-0.2-1.5-0.2-1.8-0.7c-0.6-1-0.6-2.3-1.2-3.3c-0.4-0.6-1.4-0.8-2.1-1.1
	c-0.5,1.7-2,2.8-3,3.9c-0.2,0.2-0.4,0.4-0.5,0.7c-2.9,4.8-4.2,5.6-9.8,4.3c-1.8-0.4-3.8,0.4-5.7,0.6c0.2,1.6,0.3,3.2,0.7,4.7
	c0.4,1.4,1.5,2.5,1.8,3.9c0.5,2.1,1.4,4.7,0.6,6.4c-1.9,4.2-0.3,7.6,1.3,11.2c3.7,8.1,5.6,16.3,1.7,24.9c-0.3,0.7-0.2,1.5-0.2,2.3
	c0,2.3,0,4.6,0.1,7c0,0.9-0.5,2.4,0.5,2.5c0.3,0,0.8-0.1,1.5-0.5c0.3,1,1.2,2.7,0.9,2.9c-5.2,3.6-2.8,9.2-3.5,13.9
	c0,0.3,0.5,0.9,0.9,1.2c0.2,0.2,0.5,0.3,0.6,0.3c1.6-0.3,3.1-0.8,4.6-1.3c0.3-0.1,0.5-0.2,0.8-0.3c0.8-0.3,1.7-0.5,2.5-0.8
	c-0.3,0.9-0.3,2.1-0.8,2.7c-3.4,3.4-3.1,7.1-1.3,11.1c1.1,2.6,2.5,2.7,4.5,1.4c2.6-1.8,5.1-3.6,7.5-5.6c2.8-2.2,5.5-4.4,9.4-3.7
	c0.7,0.1,2-0.5,2.2-1.1c1-3.5,1.7-7,2.4-10.5c0.2-1,0.4-2,0.7-3.8c1,1.9,1.5,2.8,2,3.8c0.4-1.1,0.9-2.2,1.1-3.4
	c0.3-2.6,1.3-4.1,4.3-3.6c1,0.2,2.8-0.5,3-1.1c0.9-3.2,3-2.4,5.2-2.1c1.8,0.3,3.6,0.4,5.5,0.4c1,0,2-0.2,2.9-0.7
	c1.9-1.2,3.6-2.8,5.6-3.8c1.3-0.6,3.1-0.1,4.6-0.5c2.7-0.8,5.4-2,8-2.9c2.9-1,7.2-4.2,8.6-6.6c0.6-1,1.2-3.2,1-3.3
	c-1.4-0.8-3.6-2-4.4-1.5c-3.3,2.3-6.8,1-10.2,1.3c-0.9,0.1-1.9-0.3-2.8-0.5c0.3-1,0.4-2.5,1.1-3c1.3-0.8,3-1.5,4.6-1.5
	c4.5,0,8.6-1.1,11.8-4.3c2.3-2.3,4.1-5.2,6.4-7.6c1.1-1.1,3.2-2.8,3.9-2.4c2.2,1.1,4.2,3,5.8,4.9c0.3,0.4-0.9,2.4-1.7,3.4
	c-1.2,1.5-3,2.6-4.1,4.1c-0.6,0.8-0.3,2.1-0.5,3.2c1,0,2.2,0.4,3.1,0c1.9-0.8,3.7-1.8,5.5-2.9c2.3-1.4,3.8-0.6,5.3,1.3
	c3.6,4.9,2.7,11.1-2.5,15.7c-6.7,6-13.1,12.3-20,18c-4.5,3.7-6.8,7.4-3.9,13.2c0.6,1.2,0.4,3.4-0.4,4.4c-0.3,0.5-0.6,0.8-0.8,1.1
	c-0.7,1-0.5,1,1.1,2c0.7,0.4,1.3,1.2,1.9,1.7c-0.4,0.4-0.8,1.2-1.3,1.2c-1,0-2.1-0.1-2.8-0.6c-0.8-0.6-1.1-1.8-1.8-2.5
	c-0.3-0.3-0.9-0.4-1.4-0.6c-0.2,0-0.4-0.1-0.5-0.1c0.1,0.6-0.1,1.3,0.2,1.8c2.1,3.9,1.4,7.6,0,11.6c-1.2,3.3-1.3,7-1.7,10.5
	c-0.1,0.8,0.6,1.6,0.9,2.5c-1.1-0.2-2.2-0.4-3.2-0.7c-2.5-0.8-5-1.7-7.5-2.6c-0.3,0.4-0.5,0.8-0.8,1.3c3.7,1.2,7.1,2.7,7,7.2
	c0,1.4,0.6,2.9,0.6,4.3c0,1.5-0.2,3.1-0.5,4.6c-0.5,2.9-0.2,6.7-2,8.4c-2.8,2.8-2.8,5.5-2,8.6c0.3,1.2,1.3,3.4,1.6,3.3
	c1.7-0.3,3.6,2.1,5.2-0.6c2-3.2,1.6,1.6,3,1.1c1.2-0.5,2.4-0.9,3.7-1.4c0,0,0.1,0.2,0.2,0.3c1.5,2.1,3.6,4.1,4.3,6.5
	c1.2,4,3.6,5.2,7.4,5.2c2.9,0,5.5-2.7,4.6-5.4c-1-3.2-0.9-4.1,0.2-7c0.1-0.2,0.1-0.4,0.2-0.6c0.4-1-0.9-2.8-0.4-3.7
	c2.4-4.2,0.9-8.3,0.7-12.5c-0.1-1.4,0.8-3.2,1.8-4.2c0.9-0.9,1.3-1.2,1.3-1.6c0-0.3-0.2-0.7-0.6-1.5c-0.2-0.3-0.2-0.9,0-1
	c3.5-3.3,2.1-7.8,3-11.7c0.5-1.9,0.4-3.8,3.3-4c1.1-0.1,2.6-1.9,3.1-3.2c1.1-3.1,1.7-6.4,2.6-9.6c0.2-0.9,0.7-2.2,1.4-2.4
	c6.6-1.7,6.4-2.4,8.4-8.8c1.6-4.8,0.6-10.7,6.1-14.5c2.8-2,4-6.9,4.8-10.7c0.8-4,2.9-5.7,6.4-6.9c4.2-1.4,4.8-2.7,2.5-6.5
	c-1.5-2.5-1.8-4.8,0.1-7.2c3-3.8,3-3.8-1.1-6.5c-0.3-0.2-0.6-0.5-0.9-0.7c-2.2-1.9-3.5-1.4-3.8,1.5c-0.2,2.3-0.9,3.5-3.5,2.2
	c-0.9-0.4-2.1-0.2-3.2-0.3c4.7-2.1,3.2-7.4,5.2-11.2c0.5,0.9,0.6,1.1,0.7,1.4c0.1,0.8,0.3,1.7,0.4,2.5c0,0.3,0.1,0.6,0.1,0.8
	c0.5-1.1,1.1-2.2,1.6-3.3c0.2-0.3,0.4-0.6,0.7-0.9c1.1,1.2,1.8,5.1,3.6,0.8c0.9-2.2,2.4-2.5,3.9-1.6c1.1,0.6,2.1,2.2,2.2,3.4
	c0.3,2.6,0,5.2-0.2,7.8c-0.8,9.5-2,19.1-2.6,28.6c-0.4,6.1,0.3,12.2,0.1,18.2c-0.3,8.8-1,17.6-1.6,26.5c-0.1,1.6-0.3,3.1-0.6,4.6
	c-1.6,6.4-3.7,12.6-5,19.1c-2.4,12.2-4.1,24.6-6.4,36.9c-1.3,6.9-3.3,13.6-4.4,20.5c-0.7,4.6-0.9,9.3-3.4,13.5
	c-2,3.4-3.9,6.9-5.9,10.2c-1.6,2.7-3.3,5.2-5.1,7.8c-0.3,0.5-0.7,1-1.1,1.4c-1,1.2-2,2.3-2.9,3.6c-1.3,1.8-2,4-3.5,5.5
	c-8.1,8.1-16.4,16-24.6,24c-0.7,0.7-1.7,1-2.7,1.4c-5.1,1.9-10.4,3.4-13.1,8.9c-0.2,0.4-0.7,0.6-1,0.9c1.4-4.1,2.9-7.9,1.3-13
	c-0.1,0.2-0.2,0.5-0.3,0.7c-2.2,5.2-4.1,9.9-6.4,15.3c-1.1-2.8-1.3-4.9-2.4-6c-1.5-1.4-0.8-2-0.1-3.2c1.2-1.9,2-4,3.2-5.9
	c1.3-2.1,1-5.5,4.6-6.1c0.2,0,0.6-1.9,0.3-2.2c-4.2-3.2-3.8-8.1-4.5-12.5c-0.2-1.2-2.1-4,1.8-2.8c0-0.1,0.1-0.3,0.1-0.4
	c0.2-0.6,0.5-1.3,0.3-1.7c-0.5-1.4-1.3-2.8-2.1-4.1c-0.2-0.4-0.7-0.9-1.1-0.9c-0.3,0-0.9,0.6-0.9,0.9c-0.6,4.6-4.9,4-7.7,5.4
	c-0.5,0.2-2.3-1-2.5-1.9c-0.4-1.4,0-2.5,2.1-1.9c0.4,0.1,1.6-2.1,2.4-3.2c-0.2-0.1-0.4-0.2-0.6-0.2c-0.7-0.3-1.3-0.7-2-0.6
	c-3.1,0.4-3.5-0.5-2.8-3.5c0.5-2-0.5-4.3-0.8-6.5c-0.2-1.1-0.6-2.2-0.4-3.2c0.5-1.7,1.2-3.5,2.2-4.9c0.9-1.4,2.2-3.2,4.1-0.9
	c0.2,0.3,1,0.5,1.2,0.4c0.3-0.3,0.7-1,0.5-1.3c-0.5-1-1-2.1-1.8-2.8c-2.8-2.5-2.6-5,0.8-6.4c2.5-1.1,5.2-1.9,7.3-3.6
	c2.5-2.1,6.4-2.6,7.2-6.6c0.6-3.1,2.5-4.7,5.6-5c1.3-0.1,2.6-0.3,3.8-0.7c3.1-1,6.1-2.2,7.3-5.6c0.1-0.3,0.2-0.5,0.3-0.8
	c-3.1,2.8-6.4,2.7-9.9,1.4c-0.5-0.2-1-0.1-1.5-0.2c-5.2-1.1-10.6-1.5-15.5-3.3c-9.5-3.5-18.8-7.5-28-11.7c-2.9-1.3-4.9-2.4-7.4,0.7
	c-0.8,0.9-3.9,0.9-5.2,0.1c-1.5-1-2.2-3.3-3.3-5c1.4-0.6,2.8-1.5,4.3-1.6c2.8-0.3,5.1-0.5,5.8-4c0.2-0.8,1.7-2.1,2.5-2
	c2.6,0.4,3.4-1.5,4.6-2.9c0.7-0.9,1.7-1.6,2.6-2.5c0.3,1.1,0.5,2.3,0.8,3.4c0.2,0.8,0.4,1.6,0.7,2.4c0.8-0.2,1.6-0.5,2.4-0.7
	c1.8-0.6,3.6-1.7,5.4-1.7c5.1,0,5.7-0.7,5.5-5.7c-0.2-4.3,0-8.6,2.9-12.2c2-2.4,2.2-5.2,0.1-7.6c-0.7-0.8-1.9-1.2-2.3-2.1
	c-1.5-3.1-3.7-1.7-5.9-1.3c-2.6,0.4-2.6,2.4-3.2,4.3c-1,3.3-2.1,6.7-3.9,9.7c-0.9,1.4-3.2,2.4-5,2.6c-0.7,0.1-2.2-2.1-2.7-3.5
	c-0.9-2.5-2.3-3.9-4.9-5c-2.5-1.1-6-3.5-6.2-5.6c-0.8-6.1-5.7-10.1-6.9-15.8c-0.1-0.3-0.4-0.6-0.8-0.8c-0.2-0.2-0.5-0.3-0.7-0.5
	c-0.2,0.7-0.5,1.4-0.5,2.1c0.1,2.4,0.3,4.8,0.5,7.2c-0.4,0-0.8,0-1.2,0v-4.3c-0.3,0.5-0.6,1.1-0.9,1.6c-0.9,1.8-1.6,3.6-2.5,5.4
	c-0.4,0.8-1.7,1.9-2.4,1.8c-0.6-0.1-1-0.2-1.4-0.2c-1.7,0.2-1.9,1.9-2.2,3.4c-0.2,1.1,0.2,2.4-0.2,3.5c-0.4,1-1.4,1.7-2.1,2.5
	c-0.2-0.9-0.4-1.9-0.6-2.8c0-0.1-0.3-0.2-0.4-0.3c0,0,0,0,0,0c-0.6,0.7-1.1,1.6-1.8,1.9c-3.6,1.8-6.6,3.6-6.3,8.6
	c0.2,2.9-3.1,4-5.3,1.9c-1.5-1.4-2.6-3.2-3.9-4.8c-0.9-1.2-2.4-2.1-2.9-0.3c-0.9,3.5-2.4,1.9-3.7,0.7c-2-2-3.8-4.1-7.2-3.5
	c-0.8,0.1-2-1.1-2.7-2c-2.5-2.9-2.3-6.1-1-9.5c0.7-1.9,1.4-4,1.6-6c0.2-1.6-0.7-2.4-2.5-1.6c-2.1,0.9-4.3,1.4-6.4,2.3
	c-0.8,0.3-1.5,1.1-2.3,1.7c0.7,0.9,1.2,1.9,2.1,2.5c0.7,0.4,1.9-0.1,2.6,0.2c0.9,0.4,2.2,1.4,2.1,2c-0.1,1.1-0.9,2.5-1.8,3.1
	c-2.4,1.6-5,1.3-7.3-0.5c-0.5-0.4-0.3-1.8-0.5-2.7c-0.3-1.5-0.6-3.1-1.3-4.4c0-0.1-0.3-0.1-0.6,0c-0.7,0.1-2,0.5-2.8,0.8
	c-5.9,2.3-8.2,8-11.4,12.8c-0.3,0.4-0.3,1.1-0.2,1.5c0.3,0.8,0.7,1.6,1.1,2.4c0.2-0.1,0.4-0.2,0.6-0.3c0.6-0.3,1.2-0.5,1.5-1
	c0.7-0.9,1-2.2,1.8-3c0.6-0.6,1.8-1,2.7-1c0.4,0,1.3,1,1.3,1.6c0.1,3.5,0.6,7.2-0.2,10.5c-1.4,5.7-3.6,11.2-5.8,16.7
	c-2,5.1-3.1,10.8-8.1,14.3c-0.5,0.4-0.7,1.4-0.8,2.1c-0.7,4.5-1.4,9-1.9,13.5c-0.1,1.2,0.8,2.5,1.3,3.7c0.1-0.2,0.2-0.3,0.3-0.5
	c0.6-0.9,1.2-1.8,1.5-2.8c1.3-4.6,1-9.6,4.4-13.5c2.6-3.1,5.6-5.9,7.5-9.4c3.1-5.6,7.3-7.8,13.7-7.1c2.5,0.3,5.9-0.9,7.6-2.6
	c2.4-2.5,4.9-3.2,8-2.9c2,0.2,3.9,0.5,5.1-1.8c0.1-0.3,1.7-0.3,2.1,0.1c0.7,0.7,1.6,2.3,1.3,2.6c-3.5,3.6,0.3,3.4,2.1,4.2
	c1.6,0.6,3.5,0.2,3.8,3c0.3,3.8,2.8,5.4,6.7,5.4c1.5,0,3.1,0.7,4.6,0.6c1.4-0.1,2.7-0.9,3.9-1.4c-1,7.2-5.7,7-10.7,6.4
	c-0.6-0.1-1.2-0.1-1.8-0.2c0.8,0.7,1.3,1,2,1.1c2.6,0.3,5.2,0.4,7.7,1c1,0.2,1.8,1.5,2.8,2.4c-0.7,0.6-1.4,1.4-2.2,1.8
	c-4.3,2.1-8.6,0.2-12.9-0.1c-0.3,0-0.7-1.6-0.8-2.5c-0.1-0.7,0.4-1.5,0.6-2.3c-0.9,0.1-1.8,0-2.6,0.2c-1.5,0.4-2.9,1-4.4,1.5
	c-3.5,1.1-7,2.2-10.6,3.3c3.8-2.5,7.9-4.2,11.8-6.1c0.5-0.2,0.8-0.8,1.1-1.3c0.1-0.2,0.2-0.4,0.4-0.6c-0.7,0-1.6-0.3-2.2-0.1
	c-7.4,3.1-14.8,6.4-22.3,9.5c-4.9,2-9.9,3.8-14.8,5.8c-1.9,0.8-3.8,1.8-5.3,3.1c-3.1,2.6-6,5.5-8.9,8.4c-0.4,0.5-0.6,1.7-0.3,2.3
	c1.1,2.2,2.4,4.3,3.8,6.3c0.2,0.3,1.1,0.2,1.7,0.2c0.2-2.8,2.2-2.2,4-2.2c3.6,0,4.2-1.1,3.7-4.5c-0.2-1.4,0.4-3.8,1.3-4.2
	c3.4-1.4,7.1-2.4,10.8-3.1c5.6-0.9,11.4-1.4,17.1-2c3.3-0.4,6.3-0.1,8.9,2.7c1,1.1,3.6,1.2,5.3,0.8c1.9-0.5,3.4-2.2,4.9,0.6
	c0.1,0.2,1.7,0,2.4-0.3c5.2-3,11.3-3,15.8-0.8c4.6,2.2,8.7,0.9,12.8,1c6.4,0.2,12.9-1,19.3-1.6c0.8-0.1,2.1-0.5,2.2-1
	c0.6-3.7,2.7-3.4,5.5-2.6c1.2,0.3,2.6-0.1,3.9-0.1c4.2-0.2,8.5-0.4,12.7-0.5c0.5,0,1.1,0.5,1.6,0.8c-0.3,0.5-0.5,1.2-0.9,1.5
	c-3.1,2.1-6.3,4.2-9.5,6.2c-8,5.1-16.9,7.6-26.1,9.5c-1,0.2-2.1,0-3.1,0.1c-3.5,0.1-6.9,0.1-10.4,0.2c-2,0.1-4.1,0.6-6.1,0.4
	c-2.8-0.4-5.3-2-8.1-2.5c-1.4-0.2-2.9-0.2-4.6,0.5c-0.5,0.2-1.7-0.2-2.1-0.7c-2.8-3.3-6.7-4.6-10.6-6.3c-5.8-2.5-10.4-1.9-14.8,2.5
	c-1.1,1.1-2.8,1.6-4.2,2.4c-0.9,0.5-1.8,1.2-2.7,1.7c0.7,1,1.2,2.2,2.1,2.9c0.9,0.7,2.1,1.1,3.2,1.4c4.4,1.2,8.8,2.1,13.1,3.4
	c1.7,0.5,3.1,1.7,4.6,2.7c0.9,0.6,1.6,1.4,2.4,1.9c1.2,0.8,2.5,1.5,3.8,2.2c-1.3,1.2-2.5,2.6-3.9,3.6c-0.8,0.6-2,0.5-2.9,1
	c-1.2,0.6-2.2,1.5-3.4,2.2c-1.5,0.9-3,1.9-4.6,2.3c-1.7,0.4-3.6,0-5.4,0.3c-0.7,0.1-1.2,1-1.8,1.6c0.6,0.6,1.2,1.7,1.7,1.6
	c1.3,0,2.7-1,4-0.9c2.9,0.4,6-4.6,8.8,0.3c0.1,0.2,0.9,0,1.4-0.2c2.7-1,5.2-3.5,8.4-1c0,0,0.1,0,0.1,0c0.3-0.1,0.8-0.5,1.1-0.7
	c2.4-1.7,4.8-1.2,7.1,0.2c0.8,0.5,2,1.2,2.7,1c2.7-0.9,5.2-2.1,7.8-3.2c0.4-0.2,0.8-0.5,1.1-0.5c1.6,0.4,3.3,0.9,4.9,1.4
	c1.2,0.4,2.3,1,3.5,1.5c-0.8,1.3-1.4,2.7-2.3,3.9c-0.4,0.4-1.2,0.5-1.9,0.7c-0.1,0-0.2,0-0.3,0.1l0,0.9c2.1,0.6,4.1,1.4,6.2,1.7
	c3.4,0.5,6.8,0.7,10.3,1c2.2,0.2,4.4,0.3,6.5,0.2c2.1-0.1,3.9-0.3,4.6,2.3c0.1,0.5,1,0.9,1.5,1.3c2.4-3.6,5.4,0.2,8.1-0.7
	c1.3-0.4,3,0.1,4.5,0.2c-0.4,1.4-0.8,2.8-1.1,4.2c-0.1,0.4,0.1,0.8,0,1.2c-0.9,5.2-4.1,9.6-4.6,15c-0.2,1.6-1.5,3.1-1.8,4.8
	c-0.4,2.2-1.8,2.4-3,1.4c-4.2-3.6-9.8-2.2-14.6-4.7c0.4,1.8,0.7,3,0.9,4.1c-1.2,0-2.4,0.2-3.6,0.1c-4.9-0.4-6.5-4.2-8.2-7.9
	c-0.4-0.9-1.2-1.7-1.9-2.6c-0.7,0.7-1.3,1.5-2,2.2c-0.8,0.9-1.7,2.5-2.3,2.4c-1.2-0.1-2.5-1.1-3.2-2.1c-1.1-1.7-1.9-1.7-3.7-0.8
	c-2.1,1-4.6,1.1-7,1.3c-2.9,0.2-6.4-0.9-8.8,0.3c-4.1,2-7.9,3.4-12.4,1.9c-0.6-0.2-1.4,0.4-2.1,0.6c-2,0.6-4.1,1.2-6.1,1.8
	c-1.1,0.3-2.4,0.3-3.2,0.9c-3.4,2.4-6.6,5.3-10.2,7.5c-2.5,1.6-4.5,2.9-4.8,6.3c-0.1,2-1.5,2.8-3.6,1.3c-4.8-3.5-9.8-6.9-14.7-10.2
	c-0.6-0.4-1.5-0.7-2.1-0.5c-3.9,1.6-6.6-0.5-9.6-2.5c-3-2-3.9-5.5-7.9-7.2c-5.7-2.3-10.4-7.1-15.4-10.9c-1.4-1.1-2.4-2.7-3.5-4.1
	c-0.6-0.8-1.2-1.6-1.9-2.3c-2.1-2.2-4.7-4.2-6.3-6.7c-6.1-10.1-10.1-20.9-11.2-32.9c-1.3-14.3-4.2-28.5-6.3-42.8
	c-0.4-2.4-0.7-4.8-1-7.2c-0.1,0-0.2,0-0.3,0l-1,0.2c1,9,2,18.1,3.1,27.1c0.6,4.8,1.4,9.5,1.9,14.3c0.1,0.6-0.6,1.3-0.9,1.9
	c-0.4-0.5-1.1-1-1.3-1.7c-0.9-2.3-1.8-4.6-2.5-7c-1-3.4-2.4-6.7-2.6-10.1c-0.6-8.4-0.8-16.9-0.9-25.3c0-2.8-0.4-6.5,1.1-8.3
	c1.8-2.1,1.5-3.9,1.4-5.9c-0.4-8.5-0.9-17.1-1.4-25.6c-0.1-1.5-0.8-2.9-1.3-4.4c-0.8-2.4-2.1-4.7-2.4-7.1c-0.8-7.8-1-15.6-1.8-23.3
	c-0.3-2.8-0.9-5.3,1.9-7.3c0.7-0.5,0.5-2.3,0.7-3.5c-0.9-0.1-1.8-0.1-2.6-0.4c-0.7-0.3-1.9-1-1.9-1.4c0.1-0.8,1.2-2.2,1.4-2.1
	c4.2,1.8,3-1.8,2.9-3.2c-0.6-7.2-1.6-14.5-2.4-21.7c-0.8-7.2,0.7-13.7,5.5-19.3c2.1-2.4,4.4-4.8,6.5-7.1c1.8-2,3.4-4.5,5.6-5.9
	c3-1.9,4-4.3,3.8-7.5c-0.3-4.4-1.1-8.8-1-13.2c0.1-5.9-1.3-12.1,3-17.5c1.3-1.7,2.5-4.6-1.1-6.2c-0.6-0.3-1.1-1.6-1-2.3
	c0.5-3,1.4-6,2.1-9c0.6-2.6,1.1-5.3,1.6-7.9c0-0.1-0.5-0.4-0.9-0.6c-0.2-0.1-0.4-0.2-0.4-0.1c-2.7,3.3-2.5-0.3-2.8-1.3
	c-0.5-2.4,0.8-4.1,3.1-4.6c4.2-0.9,5.2-3.5,5.2-7.5c0-2.5,0.8-5,1.2-7.6c0.2-0.9,0.2-1.9,0.3-2.9c-1,0.3-2.3,0.2-3,0.8
	c-2,1.8-4,2.5-6.4,1.1c-2.5-1.4-3.9-0.8-4.5,2c-0.4,2.1-1.7,3.4-3.9,2.4c-0.7-0.3-1.2-0.4-1.6-0.4c-1.2,0.1-1,1.5-1,2.8
	c0,1.2,0.2,2.7-0.3,3.7c-1.9,3.9-4.7,7.5-6.1,11.5c-2.6,7.8-4.6,15.7-6.5,23.7c-0.8,3.5-0.7,7.3-1.1,10.9c0.2,0,0.5,0.1,0.7,0.1
	c0,0,0.1,0,0.1,0c0.2-0.7,0.2-1.5,0.6-2.1c0.5-1.1,1.2-2.1,1.8-3.1c0.6,1.2,1.8,2.6,1.5,3.5c-1,3.5-2.5,6.8-3.9,10.1
	c-0.1,0.3-0.8,0.6-0.9,0.5c-0.4-0.4-0.8-0.7-1.1-0.9c-2.1-1.4-1.3,1.9-1.7,2.7c-1.8,3.1-3,6.6-5.2,9.5c-1.7,2.2-4.6,2.5-7.1,1.2
	c-2.7-1.5-1.7-3.9-1.1-6.2c0.4-1.4,0.4-3,0.4-4.6c-0.2-8.4-1.6-16.9,2.3-24.9c0.6-1.2,1-2.4,0.7-3.7c-0.1-0.6-0.4-1.2-0.8-1.8
	c-0.6-0.9-0.3-2.9,0.3-4c1.4-2.7,3.2-5.3,4.8-7.9c3.1-4.9,6.2-9.8,9.2-14.9c1.3-2.2,0.6-3.5-2.2-3.1c-0.6,0.1-1.3,0.2-1.9,0.2
	c-3.4,0-4-1.1-2.3-4c0.7-1.3,1.4-2.7,2.3-4.5c-0.3,0.1-0.5,0.2-0.8,0.3c-1.7,0.7-2.9,1.2-4.1,1.7c0-1.6,0-3.3,0-4.9
	c0-0.3,0.1-0.5,0.2-0.8c2.3-5,2.6-9.9,0.4-15.1c-0.6-1.5,0.4-3.7,0.9-5.5c0.1-0.2,2,0.3,3,0.1c0.1,0,0.2-0.1,0.3-0.1
	c0.6-0.3,1.3-0.8,1.6-1.4c3.1-4.7,6.1-9.5,9.7-15c0,1.5-0.2,2.1,0,2.5c0.7,1.4,1.3,3,2.4,4c0.3,0.3,2.4-0.8,3.3-1.7
	c3-2.9,5.8-6,8.7-8.9c0.6-0.6,2-1.4,2.5-1.1c0.7,0.4,1.2,1.6,1.4,2.6c0.2,1.1-0.2,2.5,0.2,3.4c0.4,1,1.5,1.7,2.5,2.3
	c0.2,0.1,1.2-0.4,1.4-0.9c1.5-3,3.1-5.9,4.4-9c1.7-3.9,2.7-8.2,4.9-11.7c2.8-4.4,6.6-8.2,10-12.2c2.1-2.6,4.1-5.3,6.4-7.9
	c2.5-2.9,5.2-5.7,7.9-8.4c1.2-1.2,2.6-2.1,4.1-3c0.5-0.3,1.4-0.1,2.1-0.2c-0.1,0.7,0.1,1.6-0.3,2.2c-2,3.2-4,6.4-6.3,9.4
	c-4.3,5.7-7,12-8.5,18.9c-0.7,3.2-0.6,6.5-1.1,9.6c-0.5,2.7-1.9,4.7-5,5.3c-2.9,0.6-4.2,2.9-4.4,5.7c-0.1,2.4,0.1,4.4-2.9,1.7
	c0,0-0.1-0.1-0.2-0.1c-0.5,0-1.4,0.3-1.8,0.7c-2.9,2.7-5.8,5.4-8.4,8.4c-1.9,2.1-3.6,4.1-6.8,3.9c-4.6-0.2-7.7,2.8-10.8,5.6
	c-0.4,0.4-0.4,1.3-0.6,2c0.6-0.2,1.2-0.2,1.7-0.5c1.9-1.4,3.6-3,5.6-4.1c1-0.6,2.6-0.3,3.9-0.4c-0.4,1.3-0.7,2.6-1.2,3.9
	c-0.1,0.3-0.5,0.6-0.8,0.8c-3,2.3-6,4.5-8.9,6.9c-2.4,2-4.7,4.2-7.1,6.1c-2.4,1.9-3.1,1.5-3.7-1.5c-0.1-0.3-0.7-0.7-1.1-0.9
	c-1,1.7-2.1,3.4-3.1,5.1c0.1,0.1,0.3,0.2,0.4,0.3c3.2,0.9,4.7,2.9,4.5,5.8c-0.1,1.1,0.4,2.2,0.6,3.3c1.2-0.5,2.8-0.8,3.6-1.7
	c1.9-2.1,3.3-4.6,5-6.9c0.6-0.8,1.6-2,2.2-1.9c3.9,0.5,5.3-2,7.4-4.8c4.4-5.9,9.6-11.2,14.6-16.6c3.8-4.1,7.8-8.1,11.7-12
	c0.5-0.5,1.5-1,2-0.8c0.5,0.2,1,1.2,1,1.9c-0.1,1.2-0.1,2.8-0.9,3.7c-3.4,3.7-7.4,6.9-10.5,10.8c-2.5,3.3-4,7.3-5.9,11.1
	c-0.2,0.4,0.5,1.4,1,1.9c0,0,0,0,0.1,0c0.3,0.1,1.2-0.3,1.5-0.7c1.2-1.8,2.4-3.7,3.4-5.6c2-3.7,4.1-7.3,8.4-8.7
	c0.6-0.2,1.4,0.3,2.1,0.4c-0.2,0.6-0.1,1.4-0.5,1.8c-3.1,3.1-2.7,6.9-2.3,10.6c0.1,0.9,1.1,2.5,1.5,2.5c1.3-0.1,2.6-0.7,3.7-1.5
	c1.6-1.3,2.8-3.4,4.5-4.2c5.3-2.6,10.3-5.4,14.2-10c1.5-1.7,4.1-2.8,6.4-3.4c1-0.3,2.1-0.5,3.2-0.7c2.6-0.5,5.2-1.2,6.6-4.1
	c0.2-0.4,0.9-0.4,1.3-0.7c0.4-0.2,0.8-0.4,1.2-0.6c1.5-0.7,3.2-1.4,4.3-2.6c2.5-2.4,4.5-5.3,6.8-8.1c0.2,0.9,0.3,1.6,0.6,2
	c0.4,0.7,1,0.5,2.3-1.3c1.2-1.7,3.6-2.7,5.5-4c0.9-0.6,1.7-1.4,2.5-2.1c-0.8-0.8-1.6-1.5-2.5-2.2c-0.8-0.7-1.6-1.3-2.5-1.9
	c0.9-0.9,1.6-2.1,2.6-2.6c2.2-1.1,4.2-0.9,5.8,1.3c3.7,5,7.5,10,11.5,14.8c5.4,6.6,11.8,10.4,20.8,7.7c1.8-0.5,2.5-1.1,1.9-2.9
	c-0.7-1.8-1.7-3.7,1.9-3c0.5,0.1,1.5-0.9,2-1.6c1.8-2.6,1.3-6.5-1.7-9.1c-2.3-1.9-1.4-3,0.4-4.1c1-0.6,2.4-0.7,3.5-1
	c0.5-0.2,1.4-0.6,1.4-0.9c-0.3-8,1.8-16.2-2.3-23.8c-0.3-0.5-0.1-1.2-0.2-1.8l0.8-0.4c1.2,2,2.8,3.9,3.5,6.1
	c0.4,1.3,0.7,2.6,0.9,3.9c0.6,2.7,1,5.5,1.4,8.2c1.1,6.7,2.2,13.4,3.3,20c0.5,3.3,3,4.3,5.7,4.1c2.9-0.2,3.6-2.6,3.5-5.1
	c0-1.3-0.2-2.6-0.2-3.9c0.2-6.3,0.5-12.5,0.7-18.8c0.2-4.6,0.2-9.2,0.4-13.8c0.1-4.5,0.3-9,0.5-13.5c0-0.8,0.7-1.7,1.2-2.4
	c0.4-0.4,1.2-0.8,1.6-0.7c0.4,0.1,0.9,0.9,1,1.4c0.2,0.7,0,1.5,0,1.8c1.4,0,3.4-0.6,4,0.1c4.3,5,8.1,10.3,5.4,17.6
	c-0.5,1.3-0.7,3.6,0.1,4.3c2,1.8,1.5,3.7,1.4,5.7c-0.2,2.8-0.4,5.6-0.4,8.4c0,0.7,0.4,1.4,0.7,2.1c0.7-0.4,1.5-0.7,2.2-1.2
	c1-0.8,2-1.6,2.9-2.6c1.4-1.6,2.3-1.4,3.1-0.2c0.2,0.4,0.5,0.8,0.7,1.4c0-2.8-0.3-5.2-0.6-7.6c-0.1-0.7,0.1-1.4,0.2-2.1
	c0.6,0.5,1.7,1,1.8,1.6c0.3,2.4,0.4,4.9,0.5,7.3c0,1.3-0.2,2.6-0.4,4.7c0.3-0.2,0.6-0.5,0.8-0.7c3.5-3.1,4.2-6.6,4.5-10.4
	c0.3-3.4,1-6.8,1.6-10.2c1.2-6.7,2.7-13.5,3.4-20.3c0.2-1.5-2-3.7-3.7-5c-2-1.5-3,0.4-4.3,1.9c-0.7,0.8-2.5,1.1-3.8,1
	c-3.8-0.3-4.6-3.1-4.6-6.6c-0.2,0.2-0.3,0.3-0.5,0.5c-4.1,3.9-6.1,3.9-11.2,1c-0.7-0.4-1.9-0.2-2.6-0.7c-1.4-0.9-3.4-1.9-3.8-3.3
	c-1-2.9-2.2-2.6-4.2-1.3c-0.8,0.5-2.1,0.7-3,0.5c-2.9-0.6-5.7-1.6-8.6-2.2c-0.5-0.1-1.8,0.9-1.8,1.4c0,3,0,6,0.5,8.9
	c0.8,5.3-1,7.7-6.4,7.4c-1.4-0.1-3.4-1-3.9-2.1c-1-2.1,0.3-3.9,2.4-5.1c1.3-0.8,2.4-1.8,3.5-2.7c0,0,0.1,0,0.1-0.1
	c-1.6,0.3-3.1,0.6-4.7,1c-0.4,0.1-0.8,0.2-1,0.5c-1.6,2.1-2.6,3.9-6.4,2.5c-1.4-0.5-3.1-0.6-4.6-0.1c-1.9,0.7-3.7,2.2-4.5,4.9
	c-0.5,1.5-2.1,2.6-3.3,3.7c-2,1.8-4.4,1.9-6.4,0.3c-2.1-1.7-0.6-3.1,0.8-4.4c0.4-0.3,0.4-1.8,0.2-1.9c-3.4-1.3-3.3-2.8-0.5-4.8
	c0.5-0.4,0.5-1.7,0.4-2.6c-0.3-2.3-0.9-4.6-1.1-6.9c-0.1-1.5,0.1-3.5,0.9-4.6c2.2-2.6,4.8-4.3,4.2-8.6c-0.4-3.2,3.3-3.3,5.7-4
	c3.8-1.2,4.6-0.8,5.1,3.1c0.2,1.7,0.2,3.4,0.2,5.1c0,3,0,6,0,8.9c0.4,0,0.7,0,1.1,0c0.1,0,0.2,0,0.3,0c0-1.3,0.1-2.5,0-3.8
	c-0.3-6.2-0.7-12.4-1-18.7c0-0.8-0.3-1.6-0.4-2.5c-0.9,0.4-1.9,0.6-2.7,1.1c-3.1,2.1-6.1,4.3-9.1,6.6c-0.6,0.5-1.1,1.1-1.8,1.5
	c-3,2-5.9,4.6-9.2,5.7c-2.3,0.8-3.8,1.8-5.1,3.7c-1.9,2.6-4,5.1-5.9,7.6c-2.2,2.8-4.3,5.8-6.4,8.6c-0.7,0.8-1.7,2.2-2.3,2.1
	c-1.3-0.3-2.6-1.2-3.4-2.3c-0.4-0.6,0-2.3,0.6-3c3.3-4.3,3.4-5.7-0.6-9c-2.2-1.9-2.1-3.4-0.9-5.7c2.5-5,4.9-10,7.1-15.1
	c0.4-0.9-0.4-2.3-0.6-3.5c-0.8,0.6-1.7,1.1-2.5,1.7c-1.2,0.9-2.3,2.6-3.4,2.5c-2.4-0.1-3,1.1-3.9,2.9c-2.7,5.3-5.2,10.8-8.6,15.7
	c-3.7,5.5-8.3,10.3-12.4,15.5c-3.3,4.1-3.2,4.1-6.9,0.3c-1.5-1.5-3.3-3.8-5.4-1c-3,3.9-5.5,8.2-8.3,12.3c-1.9,2.9-3.8,5.8-5.8,8.6
	c-1.9,2.8-3.9,5.4-5.8,8.2c-1.7,2.5-2.9,5.5-4.9,7.7c-3.4,3.9-7.3,7.3-11,11c-1.5,1.6-2.8,2-4.6,0.3c-3.9-3.5-5.5-3.1-8.3,1.4
	c-2,3.2-3.8,6.5-5.9,9.6c-0.7,1-2.1,1.6-3.2,2.3c0-1.2-0.1-2.5,0.1-3.6c1.9-7.4,4.1-14.7,5.7-22.2c0.4-1.8-0.7-4.3-1.8-6.1
	c-1.1-1.8-2.6-1.5-3.2,0.8c-0.4,1.8-0.5,3.6-1,5.4c-2.2,8-4.3,16.1-6.8,24c-1.7,5.3-1.3,11.5-6.5,15.3c-0.3,0.3-0.4,0.9-0.5,1.4
	c-1.5,8-3.1,15.9-4.4,23.9c-1.2,7.4-2,14.9-3.1,22.3c-0.3,2-0.6,4.2-1.6,6c-1.7,3.2-1,6.3-0.3,9.5c0.4,2,0.7,4,0.7,6
	c-0.2,7-0.4,14-0.9,21c-0.1,2-1.2,3.8-1.7,5.8c-0.3,1.5-0.6,3.2-0.4,4.7c0.2,1.6,1,3.2,1.6,4.8c4,11.8,1.3,24.7,5.9,36.4
	c0,0.1,0,0.3,0,0.4c1.2,7.3,2.2,14.6,3.7,21.9c0.3,1.5,2.4,2.7,3.6,4.1c0.9,1.1,2,2.1,2.7,3.4c0.6,1.2,0.6,2.8,1.1,4.1
	c2.6,7.9,5.5,15.7,7.7,23.7c1.1,3.8,1.7,8,1.1,11.9c-1.4,10.2-3.5,20.3-5.3,30.4c-0.5,2.7-1.1,5.4,1.5,7.6c0.6,0.5,0.5,1.9,0.5,2.9
	c0.3,9.5,0.4,19,0.7,28.5c0.2,5.2,2.5,9.7,5.4,14c2.5,3.7,4.9,7.7,6.7,11.8c5.6,12.6,10.8,25.4,16.3,38c1,2.3,2.7,4.4,4.2,6.5
	c1.8,2.5,4.1,4.7,5.6,7.4c2.3,4.2,4.7,8.5,5.8,13.1c2.6,10.9,4.9,21.8,6.6,32.9c0.8,5-0.3,10.3-0.6,15.5c-0.1,0.8-0.7,1.5-1.1,2.3
	c-0.7-0.5-1.5-0.9-2.1-1.5c-3.1-2.5-6.1-5.1-9.2-7.5c-3.3-2.6-8-3.2-9.9-7.7c-0.3-0.7-2.8-0.8-4.2-0.7c-0.4,0-0.6,2.1-0.7,3.2
	c-0.2,2.7,0.4,5.7-0.6,7.9c-7.7,16.9-15.8,33.7-23.8,50.5c-0.6,1.3-2,2.4-3.3,3.1c-14.5,8.1-29.3,15.9-43.6,24.3
	c-7.8,4.6-16.2,8.1-23.3,13.7c-1.3,1-2.6,1.9-4,2.7c1.3,0.7,2.1,2,2.3,3.4c3.8-2.6,7.6-5.2,11.4-7.7c2-1.4,4.1-2.7,6.3-3.9
	c0.9-0.5,2.1-0.3,3.1-0.4c-0.3,0.9-0.5,1.9-1,2.7c-1.1,1.6-2.6,3-3.4,4.8c-0.8,1.9-1.3,4.2-1.2,6.3c0,1,1.6,2,2.5,3c0,0,0-0.1,0-0.1
	c0.3-1.1,1-2.4,0.7-3.4c-0.9-3.6,0.1-6.3,3-8.6c4.2-3.3,7.9-7.2,12.4-10.1c8.8-5.7,18-10.9,27-16.3c2.2-1.3,4.3-2.8,7.1-4.6
	c-4.6,10.5-8.8,20.3-13.1,30.1c-2.1,4.9-5,9.5-6.6,14.5c-3.7,11.6-7,23.4-10.3,35.1c-0.4,1.3-0.1,2.9-0.1,4.4
	c1.6-0.1,3.4,0.1,4.7-0.5c5.5-2.4,10.8-5.2,16.2-7.7c13.4-6.3,27.3-10.9,41.6-14.5c3-0.8,5.2-2.2,6.8-4.8
	c4.1-6.8,8.2-13.5,12.4-20.2c0.9,0.7,1.9,2.1,3.1,2.4c5.9,1.5,9.7,5.6,13.7,9.8c4,4.2,8.2,8.3,12.9,11.8c8.4,6.3,17.3,12,25.9,18.1
	c4.6,3.3,9.1,6.7,13.6,10.1c0.1-0.1,0.2-0.2,0.3-0.3c0.1-0.1,0.2-0.2,0.3-0.4c-2-1.8-3.8-3.7-5.9-5.4c-4.5-3.6-9-7-13.5-10.6
	c-0.7-0.6-1-1.6-1.5-2.4c1-0.1,2.1-0.6,3-0.4c1.5,0.4,2.8,1.3,4.3,1.8c0.1,0.1,0.5-0.2,0.7-0.4c0.3-0.2,0.5-0.5,0.5-0.5
	c-1.3-1.9-0.8-4.8-3.7-5.8c-1.7-0.6-2.5-2-1-3.7c2.2-2.4,2-4.6-0.2-6.9c-1.6-1.7-1.3-4,0.5-4.6c2-0.7,3-5.3,6.1-1.8c0,0,0,0,0-0.1
	c0.3-0.5,1-1.2,0.9-1.6c-0.8-2.3-2.5-1.7-4.2-1.1c-0.5,0.2-1.2,0-1.8,0c0.1-0.6-0.1-1.4,0.2-1.8c1.1-1.6,2.4-3.1,3.5-4.7
	c0.8-1.1,3.5-2.8-0.7-2.8c-0.2,0-0.8-1.4-0.6-2c0.6-2.5,1.6-4.9,2.3-7.4c0.1-0.4,0-0.8-0.1-1.2c0-0.1,0-0.3-0.1-0.4
	c-0.5,0.2-1.2,0.2-1.4,0.5c-0.6,1.1-1.2,2.3-1.6,3.5c-0.7,2.2-1.1,4.6-1.9,6.8c-2.7,7.1-3.4,6.2-8,2.3c-2-1.6-3.7-3.6-5.7-5.3
	c-0.6-0.5-1.8-0.4-2.7-0.6c0.1,0.3,0.2,0.5,0.3,0.8c0.2,0.5,0.3,1,0.7,1.3c1.5,1.4,3.3,2.6,4.7,4c1.8,1.7,3.4,3.6,5,5.5
	c0.4,0.4,0.1,1.4,0.1,2.1c-0.5,0-1.1,0.2-1.4,0c-2.2-1.6-4.4-3.3-6.3-5.1c-2.9-2.7-5.5-5.6-8.4-8.4c-0.3-0.3-1.4-0.4-1.6-0.1
	c-0.3,0.3-0.5,1.3-0.2,1.7c0.7,0.9,1.6,1.7,2.5,2.5c3.8,3.6,7.6,7.1,11.3,10.7c0.6,0.6,0.7,1.7,1,2.6c-0.9-0.1-2.1,0-2.7-0.5
	c-3.7-3.4-7.4-6.9-10.9-10.5c-2.5-2.6-4.8-5.5-7.2-8.2c-0.5-0.5-1.5-1.2-2-1c-0.1,0-0.1,0-0.2,0.1c-1.3,0.5-2.5,1.5-3.1-0.7
	c-0.4-1.3-1.3-2.9-1-4c1.2-3.8,0.1-7.2-1.1-10.7c-3.2-8.8-6.5-17.6-9.8-26.4c-1.8-4.9-1.7-5.5,3.1-7.6c0.7-0.3,1.5-0.4,2.2-0.7
	c2.3-1.2,4.5-2.5,6.7-3.8c0-0.1-0.1-0.2-0.1-0.2l-0.3-0.6c-1,0.4-2,0.9-3.1,1.2c-3.1,0.9-6.2,2-9.4,2.4c-4,0.6-4.3-2.9-5.3-5.5
	c-0.9-2.5-0.2-4.2,2.5-5.2c4-1.4,6.2-4.3,7.3-8.4c1.6-6,2-12,1.5-18.1c-0.8-9.7-1.4-19.5-2.3-29.2c-0.4-3.9-1.4-7.7-2-11.5
	c-0.1-0.7,0.2-1.4,0.4-2.2c0.6,0.4,1.4,0.6,1.8,1.1c2.8,4.4,7.2,8.2,5.6,14.3c-0.1,0.6,0.1,1.4,0.5,1.8c0.4,0.4,1.7,0.6,1.7,0.5
	c1.6-2.8,2.6-0.6,3.2,0.5c5.7,9.6,13.6,17.5,18.7,27.7c5.1,10.2,9.9,19.9,10.1,31.5c0.1,3.2,0.9,6.3,1.3,9.4c0.1,0,0.3,0,0.4-0.1
	c0.2,0,0.4-0.1,0.5-0.1c-0.3-5.6-0.7-11.2-1-16.7c0.4-0.1,0.7-0.1,1.1-0.2c0.3,0.8,0.7,1.5,0.9,2.3c1.5,5.6,2.9,11.3,4.5,16.8
	c0.3,0.9,2.1,2.3,2.5,2c2.4-1.3,2.2,0.6,2.7,1.8c0.9,2.7,1.6,5.5,2.9,8c0.5,1,2.4,1.4,3.7,2c0.3-1.4,1-2.9,0.7-4.2
	c-0.7-3.3-2.2-6.5-2.7-9.8c-0.8-4.9-1-9.9-1.6-14.9c-0.1-0.9-1-1.6-1.3-2.5c-1.2-3.8-2.6-7.6-3.1-11.4c-0.2-1.6,1.4-3.5,2.4-5.1
	c0.2-0.4,1.5-0.5,2-0.2c4.2,2.3,6.4,1.6,7.6-3.1c0.6-2.4,1.7-2.6,3.9-2.5c5.4,0.2,9.1,3.6,13.1,6.4c5.4,3.7,13.8,2.1,17.4-3.1
	c0.6-0.8,1.4-1.8,2.3-2c4.4-1,8.8-1.8,13.2-2.5c1-0.2,2.3,0,3,0.5c2.1,1.6,3.8,0.8,5.8,0c1-0.4,2.6,0.1,3.6,0.7
	c1.1,0.6,2.1,1.6,2.7,2.7c0.6,1.2,1.2,2.9,0.9,4.1c-1.4,5.4-5.9,8.7-9.3,12.7c-1,1.2-2.2,2.6-2.6,4.1c-1.1,4.3-1.8,8.8-2.6,13.2
	c-0.1,0.4,0.5,1,0.9,1.3c4.5,2.9,4.9,4,3.3,9.2c-1.5,5-3.5,9.9-4.5,14.9c-0.6,3.3-0.7,7.3,0.6,10.2c1.7,3.7,2.1,7.2,1.2,11
	c-1,4.4-2.3,8.8-3.4,13.2c-0.2,0.8,0,1.6,0.1,2.5c0.8-0.4,1.8-0.6,2.2-1.3c1.2-1.9,1.9-4,3.1-5.8c0.5-0.7,1.6-1.1,2.5-1.6
	c0.3,0.9,0.9,1.9,0.7,2.6c-0.5,2.1-1.2,4.2-2.3,6c-1.3,2.1-3.2,3.7-4.8,5.6c-3.2,4.1-6,8.6-9.6,12.2c-8.9,8.7-18.3,16.9-27.5,25.4
	c-0.5,0.5-0.7,1.3-1,1.9c0.7,0.3,1.4,0.9,2,0.8c1.9-0.2,3.9-0.3,5.8-0.9c4.2-1.4,8.3-3.1,12.9-1.3c0.9,0.4,2.4-0.1,3.4-0.6
	c1.3-0.7,2.2-2.2,3.5-2.6c1-0.3,2.4,0.6,3.6,1c0.2,0.1,0.5-0.1,0.7-0.2c8-2.7,15.9-5.4,23.9-7.9c3.8-1.2,7.7-1.9,11.8-0.2
	c1.8,0.7,4.4,0.4,6.4-0.3c3.4-1.2,6.6-2.9,9.8-4.6c3-1.6,5.4-0.5,7.2,1.8c1.3,1.7,2,4,3.5,5.5c3.4,3.4,7.1,6.7,10.9,9.8
	c2.1,1.8,4.6,3.1,6.5,4.3c-0.6-0.6-1.1-1.2-1.7-1.9c-3.3-3.6-6.8-7.3-9.9-11.3c-1.3-1.6-2.2-4.4-1.8-6.3c2.3-10.1,5.1-20.2,7.8-30.3
	c0.9-3.3,2.2-6.4,2.9-9.7c1.6-7.9,2.8-15.9,4.5-23.7c1.2-5.8,2.3-11.3,1.4-17.4c-0.8-5.8-0.4-11.8-0.6-17.8c0-0.7-0.1-1.9-0.5-2.1
	c-3.2-1.5-1.7-3.8-1.2-6c0.8-4,2.7-7.7,0.9-12.1c-1.1-2.6-0.5-5.9-0.4-8.8c0.2-3.1,1.1-6.1,1.3-9.2c0.6-12.2,1-24.4,1.4-36.6
	c0-0.8,0-2.2-0.5-2.5c-2.6-1.7-1.8-4.4-2-6.8c-0.1-2.7-0.1-5.5,0.1-8.2c0.2-2.3,0.1-5.3,1.4-6.7c3.1-3.4,7-6.1,10.6-9.2
	c0.9-0.8,2-1.8,2.3-2.9c1.7-6.6,5.1-12.2,9.6-17.1c1-1.1,2-2.4,2.8-3.7c2.5-3.8,5.3-7.4,5.7-12.2c0.1-0.7,1-1.9,1.6-1.9
	c0.4,0,0.8,0.3,1.2,0.6c0.3,0.3,0.7,0.6,1.1,0.9c1.6-17.1,3-34.3,4.7-51.5c0.5-4.8,1.6-9.5,2.3-14.3c0.6-3.6,2.1-6.8,2.5-10.5
	c0.1-1.3,0.1-2.7-0.2-4.1c-0.8-4.3,0.3-9.1,0.7-13.6c0.1-1,0.5-2.6,1.1-2.7c4.1-1.1,3.7-4.4,4.2-7.4c0.3-1.8,0.9-3.6,1.3-5.4
	c0.4,0.1,0.9,0.2,1.3,0.3c-0.1-2.1-0.2-4.1-0.2-6.2c-0.8-0.7-0.7-0.9-0.4-2.1c0.2-0.9,0.3-1.8,0.4-2.7c0.6-3.5,1.3-7,1.9-10.6
	c0.3-1.6,0.3-3.2,0.4-4.8c-1.2,0.6-2.5,1.2-3.7,1.8c-0.5,0.2-1.1,0.8-1.3,0.7c-0.8-0.5-2.2-1.4-2.1-1.9c0.7-2.7,1.4-5.5,2.7-8
	c0.7-1.4,2.6-3.3,3.6-3.1c2.4,0.5,5.6,0.6,5.7,4.6c0.1,2.7,0.8,5.5,1.3,8.2c0.1-0.3,0.2-0.5,0.2-0.8c0.9-3,1.5-5.9,1.9-8.8
	c0.1-0.7-0.3-1.5-0.6-2.2c-0.8-2.2-1.8-4.3-2.6-6.5c-2-5.5-3.2-6-8.5-2.9c-0.5,0.3-1.1,0.4-1.7,0.6c-0.1-0.6-0.4-1.3-0.3-1.8
	c0.7-2.7,1.1-5.8,4.6-6.5c5.6-1.1,9.2,0.2,11,4.1c4.2,9.2,3.3,18.3-1.3,27c-1.5,2.8-1.7,5.5-2.1,8.4c-1,7.7-0.3,15.7-4.5,22.7
	c-0.5,0.9-1.2,2.2-0.9,2.9c1.2,2.8,0.7,5-1.3,7.1c-0.1,0.1-0.1,0.4,0.1,0.8c0.2,0.5,0.4,1,0.5,1.5c0.5-0.4,1.2-0.8,1.5-1.3
	c0.9-1.9,1.6-3.8,2.4-5.8c2.3-6.1,4.1-12.4,6.8-18.2c5.4-11.6,7.7-23.7,7.7-36.3c0-1.1-0.9-3.2-1.3-3.2c-2.5,0.1-2.3-1.7-2.5-3.1
	c-0.7-3.9-2.3-7.1-6.7-7.9c-0.7-0.1-1.7-0.4-2.1-0.9c-1.7-2.8-3.9-1.9-6-0.8c-1.1,0.6-2.1,1.4-3.2,2.1c-0.6,0.4-1.3,0.7-1.9,1.1
	c-0.2-0.7-0.7-1.4-0.6-2c0.7-2.7,1.4-5.4,2.3-8.1c0.3-0.8,0.9-1.5,1.4-2.2c0.8,0.6,1.7,1.1,2.4,1.8c0.4,0.4,0.5,1.2,0.9,1.7
	c0.4,0.5,0.9,0.7,1.4,1.1c0.4-0.6,1.3-1.3,1.2-1.7c-0.9-3.8,2-5.6,4-7.9c1-1.1,2.2-2.4,2.5-3.7c1.3-5.3,2.1-10.7,3.4-16
	c0.5-1.8,1.8-4,3.3-4.8c2.7-1.5,3.6-3.3,3.5-6.2c-0.2-5.8-0.6-11.7,0-17.5c0.6-6,2.3-11.9,3.7-17.8c0.2-1.1,1.1-2,1.5-3.1
	C490,237.3,490,236.7,490.1,236.2C490.1,236.2,490.1,236.2,490.1,236.2z M320.5,363.9c0.1-0.7,0.8-1.2,1.2-1.8
	c0.2,0,0.5,0.1,0.7,0.1c0.1,1.5,0.1,3,0.3,4.4c0.3,1.7,0.7,3.5,1.5,5c1.2,2.5,0.1,5.4-2.5,6.1c-2,0.6-3.3-0.4-3.2-2.2
	C318.9,371.7,319.7,367.8,320.5,363.9z M396.5,396.3c-2.6,2.8-0.9,6.1-1.2,9.2c-0.1,0.8-0.5,1.6-0.8,2.4c-0.5-0.5-0.9-1.1-1.4-1.4
	c-0.2-0.1-0.4-0.1-0.7,0c-0.3,0.1-0.6,0.2-0.8,0.4c-0.6,0.6-1.1,1.3-2,2.6c-0.5-1.6-1.3-2.7-1.1-3.7c0.2-1.2,1.1-3.1,1.8-3.2
	c0.9,0,1.5-0.1,1.9-0.3c1.3-0.5,0.6-1.8-0.1-3.6c-0.5-1.5,0.5-3.6,1-5.4c0-0.2,2-0.1,2.6,0.4C396.2,394.3,396.8,396,396.5,396.3z
	 M408,384.3c-1.5,0.5-2.5,2.6-3.7,4.1c-0.7,0.8-1,1.8-1.7,2.6c-0.5,0.5-1.3,1-1.9,0.9c-0.5-0.1-1.1-1.3-0.9-1.8
	c1.4-4.4-0.5-6.9-4.6-8.3c-0.6-0.2-1.4-2.4-1.1-2.6c1.9-1.7,4-4.3,6.1-4.4c2.8-0.2,2.5-1.3,2.6-3c0.1-1.2,0.6-2.5,1-3.7
	c1.1,1.2,2.2,2.3,3.2,3.6c0.2,0.2,0.1,0.8,0.1,1.1c0.2,1.4-1.9,3.7,0.9,4.1c2.3,0.4,5.1,0.5,5.7-3.1c0-0.2,0.3-0.4,0.8-1
	C415.7,378.4,412.5,382.8,408,384.3z M424.2,194.1c-0.3,2.9-0.5,5.9-1,8.8c-0.2,1.2-1.1,2.2-1.7,3.3c-1-0.7-2.1-1.3-3-2.1
	c-0.8-0.6-1.3-1.6-2-2.2c-1.6-1.2-4.1-2.1-0.2-3.7c0.5-0.2,0.7-3.1,0.1-4c-2.5-3.6-6.4-5.5-10.6-6.2c-1.7-0.2-3.4-0.5-5.1-0.4
	c-0.1,0-0.1,0-0.2,0.1c-0.4,0.3-0.8,1.2-1.3,1.7c-0.5,0.6-1.1,1.1-1.7,1.6c-0.5-0.8-1.5-1.7-1.4-2.4c0.2-2.6,1.7-3.9,4.4-3.9
	c0.8,0,1.8-0.6,2.5-1.1c1.4-1.2,2.5-2.8,4.1-3.8c2.4-1.6,3.1,1,4.1,2.2c2.2,2.5,4.1,5.2,6.4,7.7c0.7,0.7,2,1.5,2.9,1.3
	C423.2,190.4,424.5,191.3,424.2,194.1z M448.2,180.6c0.4-0.2,1.7,0.4,2.2,1c1.3,1.5,2.4,3.2,3.1,4.2c0,6.4,0.1,11.8-0.1,17.2
	c-0.1,1.5-1,3-1.5,4.5c-1.3-1.3-2.7-2.5-3.9-3.8c-0.4-0.4-0.5-1.2-0.6-1.8c-0.3-6.3-0.6-12.6-0.7-18.9
	C446.7,182.2,447.4,181.1,448.2,180.6z M437.9,220.8c0.7-1.6,0.9-3.3,1.4-4.9c0.2-0.8,0.4-1.8,1-2.2c0.4-0.3,1.7,0,2,0.5
	c0.4,0.6,0.5,1.7,0.4,2.5c-0.2,1-0.6,2-1,3c1.1-0.1,2.2-0.2,3.3-0.5c3-0.7,4.6,1,4.6,4.9c-0.1,4.9-3.7,9.6-7.3,9.4
	c-0.8-0.1-1.6-0.2-2.2-0.6C438.7,231.9,437.3,222.3,437.9,220.8z M432.7,327.9c0.4-3.4,1.8-6.7,0.9-9.2c-1.5-4.2-0.6-8-0.1-12
	c0.2-1.2-0.8-2.5-0.9-3.7c-0.1-0.8,0.5-1.6,0.8-2.4c0.8,0.3,1.8,0.5,2.3,1.1c0.7,0.9,0.9,2.1,1.4,3.1c0.4,1.1,0.6,2.5,1.4,3.1
	c3.2,2.5,2.2,4.7,0,7.1c-1.1,1.2-1.7,2.9-2.5,4.4c0.3,0.2,0.6,0.3,0.9,0.5c0.2-0.3,0.4-0.6,0.5-0.8c0.1-0.2,0.3-0.4,0.5-0.5
	c0.4-0.3,1.1-0.4,1.6-0.6c0.1,0.5,0.3,1,0.2,1.4c-0.8,2.2-0.9,4.9-3.8,5.9C434.6,325.6,433.9,326.8,432.7,327.9z M452.6,272.7
	c-0.9-0.7-1.7-1.4-2.6-2c-0.4-0.3-0.8-0.5-1.2-0.8c-0.2-0.1-0.4-0.2-0.5-0.3c-0.2,0.8-0.7,1.8-0.5,2.5c0.9,3.6,2.2,7.2,3,10.9
	c0.6,2.9,1,5.9,0.9,8.8c-0.1,1.3-1.4,3.2-2.6,3.5c-2,0.6-5.9-2.6-5.5-4.4c1.4-6.2-0.8-11.8-2-17.7c-0.1-0.7,0-1.9,0.4-2.1
	c3.7-2,2.6-5.2,1.8-7.9c-1.8-6.7,0.7-12.9,1.5-19.2c0.1-0.9,1.3-1.7,2-2.5c0.7,0.8,1.9,1.6,2.1,2.6c1.2,4.5,2.3,9.1,3,13.7
	c0.2,1.7-0.9,3.6-1.3,5.5c-0.2,0.9-0.2,1.9-0.3,2.9c0.4-0.4,0.8-0.8,1.2-1.2c0.2-0.2,0.5-0.5,0.7-0.7c0.3-0.4,0.5-0.8,0.8-1.3
	c0.5,2.1,1.3,4,1.2,5.8C454.6,269.9,453.4,271.3,452.6,272.7z M343.2,457.4c-0.1,0-0.2-0.1-0.3-0.2c-1.8-1-3.5-2.5-5.4-2.8
	c-1.9-0.3-4,0.6-6.9,1.1c-0.2-0.7-0.8-1.7-0.5-2.4c1.4-3.1,3.3-3.8,6.4-2.4c2.8,1.3,5.5,2.8,8.1,4.4c0.5,0.3,0.7,1.2,1,1.8
	C344.8,457.2,344,457.3,343.2,457.4z M360.8,108.6c0-0.8,1.7-2.2,2.7-2.2c1.9,0,4,0.6,3.4,3.5c-0.9,4.4-1.9,8.9-2.8,13.3
	c-0.5,2.2-0.8,4.3-1.3,6.5c-0.2,0.7-0.6,1.3-1,1.9c-0.4-0.7-1-1.4-1.1-2.1c-0.3-1.3-0.3-2.6-0.4-3.9c0.1,0,0.3,0,0.4,0
	C360.7,119.9,360.5,114.3,360.8,108.6z M281.6,114.2c0.7-0.5,1.4-1.1,1.5-1.2c1,0.8,1.9,1.4,2.8,2.1c0.5,0.4,1,0.8,1.4,1.3
	c1.2,1.6,2.3,3.5,2.9,5.4c2.2,6.5,4.3,13.1,6.2,19.7c0.4,1.6-0.1,3.4-0.1,5.1c-1-1.1-2.4-2-2.9-3.3c-1.2-2.8-1.8-5.9-2.9-8.7
	c-2.2-5.2-5.1-10-9.3-13.9C278,118,278.1,116.6,281.6,114.2z M262.5,121.9c0.2-0.3,2.4-0.1,2.8,0.4c1.7,2.3,3.2,4.7,4.5,7.2
	c1.2,2.1-0.3,3.4-5.3,3.5c-1.2-1-4.3-2.4-5.1-4.6C258.9,126.8,261.2,124,262.5,121.9z M168.4,454.2c-0.1,0.6-0.8,1.2-1.2,1.7
	c-0.5-0.5-1.4-0.9-1.5-1.4c-0.5-2-0.9-4.1-1.2-6.1c-1.1-7.3,0.1-14.5,1.3-21.6c0.1-0.4,0.5-0.8,0.8-1.2c0.4,0.5,1,0.9,1,1.4
	c0.2,1.1,0,2.3,0,3.5l0.6,0c0,7,0,14,0,21C168.3,452.4,168.6,453.3,168.4,454.2z M190.7,616.9c2.6,12.6,5.1,25.2,7.5,37.9
	c0.5,2.6,1.2,5.4-1.5,7.6c-0.5,0.4-0.2,2.6,0.4,3.4c2.7,3.2,3.3,7,3.3,11c0,1.5-0.5,3.9,2.6,2.7c0.3-0.1,1.1,0.6,1.3,1.1
	c1.2,3.5,2,7.1,0,10.6c-3.6,6-7.1,12.1-11.2,17.8c-1.4,2-4.4,3.1-6.9,3.8c-10.7,3.3-21.5,6.1-32.1,9.7c-5.9,2-11.4,5-17.1,7.6
	c-2,0.9-3.9,1.9-6.8,3.2c2.5-8.4,4.2-16.1,7-23.5c5.2-13.9,10.4-27.8,16.5-41.3c9.8-21.8,20.2-43.4,30.3-65.1
	c0.7-1.4,1.4-2.7,2.6-4.9C188,605.1,189.5,611,190.7,616.9z M325.6,571.1c-0.5,0-1.1,0-1.6,0.1c-0.5-4.9-1.1-9.8-1.3-14.8
	c-0.1-1.1,1.2-2.3,1.8-3.5c0.7,1.1,1.7,2.1,2,3.2C327.9,561.2,327.5,566.3,325.6,571.1z M338.5,562.6c-0.7,3.9-1.5,7.8-2.3,11.6
	c-0.4,0-0.8,0-1.2,0c-0.6-4.3-1.5-8.5-1.8-12.8c-0.2-2.3,0.3-4.6-2-6.3c-0.5-0.4-0.5-1.6-0.7-2.4c0.8,0,1.8-0.2,2.5,0.1
	C337.3,554.4,339.3,558,338.5,562.6z M340.4,637.4c-0.3,0.5-1.2,0.7-1.9,1c-0.4-0.9-0.9-1.7-1.6-3.2c1.2-2.1,2.5-4.2,3.8-6.3
	c0.7-1.1,1.3-2.2,2-3.3c1.7-2.9,3.3-5.7,5-8.5c0.1-0.2,1.7,0.2,1.7,0.5c0.3,1.1,0.6,2.5,0.2,3.3 M375.6,640.3
	c-1,1.8-1.8,3.7-2.5,5.6c-2.2,6.2-4.2,12.5-6.5,18.7c-0.4,1.2-1.8,2.1-2.7,3.1c-0.5-1.2-1.1-2.5-1.6-3.7c-0.2-0.6-0.3-1.3-0.7-2.8
	c1.8-6.1,3.6-13.1,5.9-19.9c1.9-5.6,3.2-11.5,7.9-15.8c0.8-0.7,1.4-1.5,2.3-2.1c0.7-0.4,1.6-0.6,2.4-0.8c0.2,0.7,0.4,1.4,0.5,2.1
	C381.8,630.7,378.3,635.3,375.6,640.3z M390.1,587.1c0-0.4,0.4-0.9,0.7-1.3c0.5,0.3,1.2,0.5,1.4,1c0.4,1.2,0.7,2.5,0.9,3.8
	c1.3,7.9,2.7,15.7,3.7,23.6c0.3,2.1-0.4,4.3-1,6.4c-0.3,1.1-1.5,1.9-2.2,2.8c-0.5-1.1-1.1-2.2-1.6-3.4c-0.1-0.3-0.2-0.6-0.3-1.2
	c0-0.1,0-0.2-0.1-0.3c-1.6,4,1.7,8.3-2.7,11.5c-0.2-4.6-0.6-9.3-0.6-13.9c0-4.3,1.4-8.9,0.1-12.7
	C386.3,597.3,390.6,592.6,390.1,587.1z M386.9,728.2c-1.2-1.5-4.5-3.3,0.3-4.4c0.3-0.1,0.6-0.7,0.5-0.9c-1.1-3.1,0.3-5.1,3-6.5
	c0.5-0.3,0.9-1.8,0.7-2.4c-2-5,1.5-8,3.5-11.6c0.4,0.1,0.7,0.2,1.1,0.3c-0.6,2.6-1.2,5.2-1.8,7.9c-1.3,5.6-2.5,11.2-3.8,16.7
	c-0.2,1-0.8,1.9-1.2,2.8C388.4,729.3,387.5,728.9,386.9,728.2z"/>
<path fill="#1D1D1B" d="M446.5,131.4c1,5.5,2.1,11,3.1,16.4C448.5,142.4,447.5,136.9,446.5,131.4z"/>
<path fill="#1D1D1B" d="M342.4,355.5c0.4,1.8,0.8,3.7,1.2,5.5C343.2,359.2,342.8,357.4,342.4,355.5z"/>
<path fill="#1D1D1B" d="M363.5,280.1c0.3,1.6,0.5,3.1,0.8,4.7C364.1,283.2,363.8,281.6,363.5,280.1z"/>
<path fill="#1D1D1B" d="M396.4,141.4c-0.6-0.7-1.2-1.4-1.8-2.2C395.2,140,395.8,140.7,396.4,141.4z"/>
<path fill="#1D1D1B" d="M354.5,431.2c-0.4,0.1-0.8,0.1-1.2,0.2C353.8,431.4,354.2,431.3,354.5,431.2z"/>
<path fill="#1D1D1B" d="M236.4,489.3c0-2,0-3.9,0-5.9C236.4,485.4,236.4,487.3,236.4,489.3z"/>
<path fill="#1D1D1B" d="M368.2,124.8c0.7-0.1,1.3-0.1,2-0.2C369.5,124.7,368.9,124.7,368.2,124.8z"/>
<path fill="#1D1D1B" d="M370.6,105.6c-0.3-1-0.7-2.1-1-3.1C369.9,103.6,370.3,104.6,370.6,105.6z"/>
<path fill="#1D1D1B" d="M372.1,106.4c-4.6-0.4-9.1-0.8-13.7-1.2C363,105.6,367.6,106,372.1,106.4z"/>
<path fill="#1D1D1B" d="M364.3,132.6c-2,0.3-3.9,0.5-5.9,0.8C360.4,133.1,362.4,132.9,364.3,132.6z"/>
<path fill="#1D1D1B" d="M170.3,158.8c-2,2.7-3.9,5.5-5.9,8.2C166.4,164.3,168.4,161.6,170.3,158.8z"/>
<path fill="#1D1D1B" d="M155.9,190.3c-0.9,0.1-1.8,0.1-2.7,0.2C154.1,190.4,155,190.4,155.9,190.3z"/>
<path fill="#1D1D1B" d="M148.8,200.3c-1-0.2-2.1-0.4-3.1-0.6C146.8,199.9,147.8,200.1,148.8,200.3z"/>
<path fill="#1D1D1B" d="M166.8,390c-0.1-3.1-0.1-6.3-0.2-9.4C166.7,383.7,166.8,386.8,166.8,390z"/>
<path fill="#1D1D1B" d="M170.3,456.8c0.1-1.7,0.1-3.4,0.2-5.1C170.5,453.4,170.4,455.1,170.3,456.8z"/>
<path fill="#1D1D1B" d="M266.9,689.5c-2.6,2.2-5.2,4.4-7.8,6.6C261.7,694,264.3,691.8,266.9,689.5z"/>
<path fill="#1D1D1B" d="M216.9,576.7c-0.4,0.1-0.8,0.1-1.2,0.2C216.1,576.8,216.5,576.8,216.9,576.7z"/>
<path fill="#1D1D1B" d="M328,550.3c3.5,1.2,7,2.3,10.6,3.5C335,552.7,331.5,551.5,328,550.3z"/>
<path fill="#1D1D1B" d="M330.3,699.3c1.3-3,2.6-6,3.9-9C332.9,693.3,331.6,696.3,330.3,699.3z"/>
<path fill="#1D1D1B" d="M336.2,732.2c0.3,1.6,0.5,3.1,0.8,4.7C336.7,735.3,336.4,733.7,336.2,732.2z"/>
<path fill="#1D1D1B" d="M386.6,618.2c-0.8,0.1-1.6,0.1-2.3,0.2C385.1,618.3,385.8,618.2,386.6,618.2z"/>
<path fill="#1D1D1B" d="M365.5,547.8c-0.9-0.1-1.8-0.1-2.7-0.2C363.7,547.6,364.6,547.7,365.5,547.8z"/>
<path fill="#1D1D1B" d="M381.5,725.1c2.7,2.9,5.5,5.7,8.2,8.6C387,730.9,384.3,728,381.5,725.1z"/>
<path fill="#1D1D1B" d="M478.5,231.2c-0.4-0.1-0.8-0.1-1.2-0.2C477.7,231,478.1,231.1,478.5,231.2z"/>
<path fill="#1D1D1B" d="M477.4,236.5c0.7,0.1,1.3,0.1,2,0.2C478.7,236.6,478,236.5,477.4,236.5z"/>
<path fill="#1D1D1B" d="M476.8,744c-2.8-12-5.9-24-9.5-35.8c-2.8-9.4-6.2-18.7-9.9-27.9c-3.5-8.9-7.8-17.5-11.6-26.3
	c-0.7-1.6-0.8-3.3-1.2-5c1.5,0.4,3.1,0.7,4.5,1.4c4.4,2.1,8.7,4.3,13,6.5c0.1-0.3,0.3-0.6,0.4-0.9c-5-2.5-10-5.1-15-7.4
	c-1.5-0.7-3.4-0.8-5.1-1.2c1.7,0.4,3.5,0.5,5.1,1.2c5.1,2.4,10,4.9,15,7.4c0-0.1,0.1-0.1,0.1-0.2c-5.3-2.8-10.5-6-16-8.4
	c-4-1.8-6.4-4.7-8.3-8.3c-5.6-11-11.3-21.9-16.9-32.9c-0.9-1.7-1.9-3.4-2.8-5c-0.1,0.1-0.3,0.2-0.4,0.2c3,6.3,5.8,12.7,9,19
	c1.6,3.1,3.8,5.9,5.4,9c1.6,3.2,2.8,6.5,4.4,9.7c0.9,1.9,2,3.7,3.1,5.5c0.6,1.1,1.4,2,1.9,3.1c3.6,8.3,7.1,16.6,10.6,25
	c3.2,7.9,6.6,15.8,9.3,23.9c3.5,10.6,6.7,21.3,9.4,32.1c3.5,14.2,7.6,28.4,9.6,43c0.9,7,3,13.8,4.6,20.7c-1.6-6.9-3.6-13.7-4.6-20.7
	c-2-14.6-6-28.7-9.6-43c-2.7-10.8-5.9-21.5-9.4-32.1c-2.7-8.1-6.1-16-9.3-23.9c-3.4-8.4-7-16.7-10.6-25c-0.5-1.1-1.3-2.1-1.9-3.1
	c-1.1-1.8-2.2-3.6-3.1-5.5c-1.5-3.2-2.7-6.6-4.4-9.7c-1.6-3.1-3.8-5.9-5.4-9c-3.1-6.3-6-12.7-9-19c-0.2,0.1-0.4,0.2-0.6,0.3
	c2,4.2,3.8,8.4,5.9,12.6c3.6,7.3,7.4,14.6,11,21.9c0.5,1.1,0.4,2.4,0.6,3.7c-1-0.1-1.9-0.3-2.9-0.4c-0.5,0-0.9,0.1-1.4,0.3
	c2,0.6,4.1,1.2,6.1,1.8c-2-0.6-4.1-1.2-6.1-1.8c-0.1,0-0.2,0-0.3,0.1c0.3,0.5,0.5,1.2,0.9,1.5c0.5,0.4,1.2,0.5,1.8,0.8
	c3.9,1.3,6.2,4.1,7.7,7.8c1.2,2.9,2.5,5.7,3.7,8.6c5.2,12.9,10.5,25.8,15.6,38.7c7.8,19.7,11.6,40.5,16.5,61
	c2.8,11.5,4.8,23.2,7.1,34.8c1,0,2.1,0,3.1,0c-0.1-0.9-0.2-1.8-0.4-2.7C483.5,774.7,480.4,759.3,476.8,744z"/>
<path fill="#1D1D1B" d="M283.9,398c0,0.5,0.8,1,1.3,1.6c0.3-0.6,0.8-1.2,1-1.9c0.3-1.4,0.5-2.8,0.7-4.2c0.7-4.7,1.3-9.4,1.9-14.1
	c1-8.1,1.2-16.4,3.3-24.3c1.5-5.5,2.5-11.1,3.4-16.7c0.3-1.6,0.8-3.2,1.7-4.5c2-2.9,2-5.5-1-6.9c-3.5-1.6-3.8-4.4-4.6-7.4
	c-0.6-2.3,0.5-6-2.8-7c-0.1,0.7-0.2,1.5-0.2,2.2c0.1-0.7,0.2-1.5,0.2-2.2c-0.4-0.1-0.8-0.2-1.4-0.2c-0.2,0-0.5-0.8-0.6-1.3
	c-0.5-4.8-1-9.7,1.5-14.1c1-1.8,0.6-3.2-1-3.8c-0.7-0.3-2.2,0.6-2.9,1.3c-2.4,2.6-2.5,2.7-4.1-0.3c-0.3-0.6-0.9-1.7-1.4-1.7
	c-3.3,0-5.1-2.4-7.2-4.2c-1.6-1.4-2.8-1.2-3.5,0.9c-0.8,2.2-1.9,1.8-3.5,0.7c-4.9-3.3-10-5.5-16-2.5c-1.1,0.5-3.2-0.4-4.6-1.1
	c-1.1-0.5-1.9-1.8-2.9-2.5c-0.4-0.3-1.9-0.1-1.9,0.1c-1.1,5.5-5.8,4.7-9.5,5.6c-2.9,0.7-5.9,1.1-8.8,1.7c-1.7,0.4-3.1,1.4-2.2,3.3
	c1.3,2.9-0.2,3.7-2.6,4.3c-1.1,0.3-2.2,0.9-3.1,1.5c-7.3,5.2-14.6,10.5-21.9,15.6c-2,1.4-4.2,2.6-6.4,3.7c-4.9,2.4-5.5,3.6-4.1,8.9
	c0.8,3.1,1.4,6.4,2.2,9.5c0.6,2.4,1.4,4.7,2.2,7c0.4,1.2,0.8,2.1,1.7,2.2c0.2-0.9,0.4-1.7,0.6-2.6c-0.2,0.9-0.4,1.7-0.6,2.6
	c0.5,0.1,1.1-0.1,1.8-0.5c0.8-0.4,2.5,0.7,3.7,1.3c4.5,2.4,8.8,4.9,13.3,7.2c0.8,0.4,1.9,0.1,2.9,0.1c-0.2-1.2-0.1-2.6-0.6-3.6
	c-0.3-0.7-1.4-1.1-2.2-1.5c-3.8-1.6-7.7-3-11.6-4.6c-3.5-1.4-3.6-2.6-0.9-5.2c1.9-1.8,3.3-1.2,5.1,0.1c3.6,2.4,7.3,4.5,11,6.8
	c0.1-0.1,0.2-0.2,0.3-0.3c-2.7-2.2-5.5-4.4-8.2-6.6c2.7,2.2,5.5,4.4,8.2,6.6c0.3-0.3,0.6-0.6,0.8-1c-1.7-1.3-3.5-2.5-5-4.1
	c-2.3-2.4-2.1-3.8,0.7-5.6c1.2-0.8,3.2-1.5,3.4-2.4c0.1-0.7,0.2-1.3,0.4-1.8c-1.5-0.1-3-0.2-4.6-0.3c1.5,0.1,3,0.2,4.6,0.3
	c1.2-3.8,4.1-3.1,7.8-2.2c2,0.5,3.1,1,4.3,2.5c1.3,1.6,3.1,2.8,5,3.9c1.3,0.8,3,0.9,4.5,1.4c0.5,0.2,1,0.7,1.5,1.1
	c-0.5,0.4-0.9,1.1-1.4,1.1c-2.2,0.4-4.4,0.4-6.6,0.8c-2.3,0.5-4.5,1.3-6.7,2c-0.1,0,0,1.3,0.2,1.4c3.4,1.9,6.6,3.8,11,2.8
	c5.8-1.4,11.8-2.1,17.7-3c0.7-0.1,1.6,0.5,2.3,0.8c-0.5,0.5-0.9,1.2-1.5,1.5c-6.2,3.8-12.4,7.5-18.6,11.4c-0.4,0.2-0.7,0.6-0.9,1.1
	c2.1-0.7,4.1-1.4,6.2-2.1c-2.1,0.7-4.1,1.4-6.2,2.1c-0.2,0.3-0.3,0.6-0.5,0.8c0.7,0.1,1.5,0.3,2.2,0.3c4.3-0.3,8.5-0.8,12.8-0.9
	c1,0,2.1,1,3.2,1.6c-0.6,0.8-1.1,2.1-1.9,2.4c-7.2,2.9-14.4,5.6-21.6,8.6c-3.3,1.4-6.6,2.8-9.6,4.8c-3.6,2.3-8.5,1-9.7-3.1
	c-1.4-4.9-6-5.6-9.6-7.6c0.1,0.2,0.2,0.4,0.3,0.6c2.2,1.6,4.3,3.1,6.4,4.8c0.8,0.7,1.7,1.7,1.9,2.7c0.6,2.3,1.6,3.5,3.8,4.9
	c2.5,1.6,4.6,0.8,6.8,0.9c0.5,0,1,0.2,1.6,0.4c-0.5-0.1-1-0.3-1.6-0.4c-2.3-0.1-4.3,0.7-6.8-0.9c-2.2-1.4-3.3-2.6-3.8-4.9
	c-0.2-1-1.1-2-1.9-2.7c-2.1-1.7-4.2-3.2-6.4-4.8c0.5,1.1,1.1,1.9,1.9,2.6c2.6,2.7,5.3,5,6.8,8.8c1.7,4.6,10.6,6.2,14.6,3.3
	c3.5-2.6,4.5-2.5,7.1,1.1c1.3,1.7,2.4,1.8,3.7,0.1c0.6-0.8,1.5-1.5,2-2.4c1.1-2,1.5-5.6,4.7-1.6c0.3,0.4,1.3,0.1,1.9,0.3
	c4.2,1,7.8-3.9,12.2-1.3c0.1,0,0.3-0.1,0.3-0.2c2.8-3.9,6.9-5.2,11.4-5.4c0.4,0,0.8-0.6,1.3-0.9c2.7-1.8,4.8-1.3,6.6,2.4
	c0.4,0.7-1.6,2.8-2.8,4.1c-0.5,0.6-1.8,0.4-2.6,0.7c-1.9,0.9-3.6,1.9-5.5,2.8c-0.8,0.4-1.6,1-2.4,1c-8.1-0.7-14.6,2.6-20.1,8.1
	c-0.9,0.9-1.7,2.5-1.5,3.6c0.4,2.4,8.4,5.8,9.6,4.1c2.2-3.2,4.2-2.7,7.5-2.4c2.6,0.2,5.7-2.1,8.2-3.9c1.6-1.2,2.5-2.3,4.6-0.9
	c2.3,1.5,3.9,0.5,4.6-2.1c0.3-1.1,0.8-2.7,1.6-2.9c1.3-0.5,3.9-0.6,4.3,0.1c1.9,3.2,3.2,6.8,4.9,10.2c0.3,0.6,1,0.9,1.6,1.3
	c0.7-2.2,1.4-4.4,2.1-6.5c-0.7,2.2-1.4,4.4-2.1,6.5c0.2,0.1,0.4,0.2,0.5,0.4C283.2,393.1,283.7,394.8,283.9,398z M284.9,399
	c-0.1-2-0.3-3.9-0.4-5.9C284.7,395,284.8,397,284.9,399z M182.9,328.6c-1.1-4-0.1-6.2,3.5-7.8c1.3-0.6,2.6-1.1,3.9-1.6
	c-1.3,0.5-2.6,1-3.9,1.6C182.7,322.4,181.8,324.6,182.9,328.6z M197.7,348.9c-2.7-1.4-5.5-2.9-8.2-4.3
	C192.2,346,195,347.5,197.7,348.9z M229.4,315.5c-8.8,0.2-16.3,4.1-23.6,8.4c-2.9,1.7-5.7,3.4-9.4,2c-0.8-0.3-2.2,0.6-3.3,0.9
	c-1.5,0.4-3,1.3-4.4,1.2c-1.3-0.1-2.6-1.1-3.9-1.7c0.8-1.4,1.5-3.6,2.6-3.9c8-2,13.5-8.2,20.2-12.2c3-1.8,6.4-3.1,8.3-4.1
	c5.5,0.7,9.5,0.6,11.8,4.8c0.4,0.8,1.7,1.2,2.4,1.9c0.6,0.5,1.1,1.3,1.6,1.9C231.1,314.9,230.2,315.5,229.4,315.5z M235.7,338.7
	c-2.3,1.2-4.7,2.3-7,3.5C231,341.1,233.3,339.9,235.7,338.7z M228.2,345c7.4,0.5,14.4-1.9,21.5-3.1C242.6,343,235.6,345.5,228.2,345
	z M231.2,343.6c6.9-5,14.2-8.9,23.5-6.9C247.5,342.1,239.2,342.3,231.2,343.6z"/>
<path fill="#1D1D1B" d="M366,255.7c0.7-1.4,2.8-2.7,0.7-4.2c-1.7-1.3-3.7-2.4-6-0.6c-3.3,2.5-5.1,2-5.9-2.1
	c-0.7-3.6-0.6-7.4-0.8-11.2c0.4-0.2,0.7-0.4,1.1-0.5c-0.9-1.1-1.7-2.1-2.6-3.2c-0.9,1-2,2-2.8,3.1c-0.4,0.6,0,1.5-0.2,2.3
	c-1,4.4,1.2,10.2-5.7,11.9c-0.7,0.2-1,2.4-1.2,3.7c-0.1,0.4,0.7,0.9,1.1,1.4c2.2-2.1,5.1-0.2,7.2-1c2.9-1,5.1-1.2,7.9,0.1
	c2.3,1.1,3.5,2.9,1.8,5c-2.9,3.7-1.7,8.5-3.9,12.4c-0.4,0.8,0.2,2.3,0.7,3.3c0.2,0.4,1.2,1,1.4,0.9c1.8-1.3,3.9-2.5,5.2-4.2
	c1.5-1.9,2.2-4.3-1.2-5.5c-0.6-0.2-1.2-1.6-1-2.2C363,261.9,364.5,258.8,366,255.7z M361.2,270.7c-0.3-2.3-1.5-5.4-0.6-6.9
	c1.7-2.6,2.1-5.2,2.5-8c0.1-0.8,0.3-1.6,0.4-2.3c-1-0.1-2.1-0.4-3.1-0.3c-1.1,0.1-2.2,0.9-3.1,0.7c-1.8-0.5-3.4-1.5-5.1-2.3
	c1.7,0.8,3.3,1.8,5.1,2.3c0.9,0.2,2.1-0.6,3.1-0.7c1-0.1,2.1,0.2,3.1,0.3c-0.1,0.8-0.3,1.6-0.4,2.3c-0.4,2.8-0.8,5.4-2.5,8
	C359.7,265.3,360.9,268.3,361.2,270.7z"/>
<path fill="#1D1D1B" d="M306.5,205.9c2.3-1.6,3.6,0.8,4.5,2.8c0.9,2.1,2,3.7,4,0.8c1.6-2.3,2.4-1.1,3.1,0.7c1.5,4.2,1.5,4.1,5.5,2
	c0.9-0.5,1.9-0.8,2.9-1.1c2.7-1.1,3.6-3.6,3.2-5.9c-0.7,0.2-1.4,0.4-2.1,0.6c0.7-0.2,1.4-0.4,2.1-0.6c0,0,0-0.1,0-0.1
	c-0.5-2.4-2.3-4.4-5.5-3.5c-1.2,0.3-2.5,0.1-3.8,0c-5.9-0.5-11.6-0.1-17.2,2.4c-4,1.7-8.2,3-12.3,4.5c-0.6,0.2-1.6,0.7-2,1.2
	c2.1,0.8,4.1,1.3,6.3-0.3c1.5-1.1,3.3-0.9,4.2,1.1c0.7,1.4,1.2,2.9,1.8,4.4c0.3-1.3,0.3-2.1,0.7-2.7
	C303.3,210,304.5,207.3,306.5,205.9z M314.3,204.2c-0.1-0.5-0.1-1-0.2-1.6C314.1,203.1,314.2,203.7,314.3,204.2z M313.5,205
	c-3.5-0.7-7.2-3.1-10.2,1.2C306.3,201.9,310,204.3,313.5,205z"/>
<path fill="#1D1D1B" d="M295.1,209.3c-2.2,1.6-4.2,1.1-6.3,0.3c-0.2,0.2-0.3,0.4-0.3,0.5c0.1,1.7,1.3,3.2,3.2,2.3
	c3.7-1.7,6.7-1.1,9.5,2.5c0,0,0,0,0,0c-0.6-1.5-1.2-3-1.8-4.4C298.4,208.5,296.6,208.3,295.1,209.3z"/>
<path fill="#1D1D1B" d="M354.9,223c-1.5-2-3.3-1.7-5.2-0.6c-1.7,0.9-3.5,1.7-5.2,2.7c-2.5,1.5-5,1.6-7.8,0.7
	c-1.3-0.4-3.1,0.1-4.5,0.7c-2.9,1.2-5.5,3.2-9,1.6c-1.2-0.5-3,0.5-4.6,0.8c0.1,0.4,0.3,0.8,0.4,1.2c0,0,0,0,0,0
	c1.2-2.5,2.6-1.5,4.2-0.2c0.8,0.7,1.8,1.1,2.7,1.6c-0.9-0.5-1.9-0.9-2.7-1.6c-1.6-1.3-3.1-2.3-4.2,0.2c5.1,0.3,6.2,2.4,4.6,8.3
	c-0.2,0.8,0.1,1.8,0.2,2.8c0.4-0.8,1.2-1.5,1.3-2.4c1-6.1,1.5-6.5,7.9-6.2c3.8,0.2,7.8,0.9,10.5-3.3c0.9-1.4,2.9-2.9,4.8,0
	c1.3,2,3.7,3,6,0.8c2.3-2.1,4.7-2.2,7.3-0.6c0.2,0.1,0.7,0.2,1,0.2c-0.7-2.8-1.2-5.8-5.4-3.3c-0.7,0.4-1.8,0.1-2.7,0.1
	c0.9,0,2,0.3,2.7-0.1c4.2-2.5,4.7,0.6,5.4,3.3c0.3,0,0.5,0,0.5,0c0.4-2.4,0.7-4.7,1-7.1c-1.9,0.2-4,0-5.7,0.8
	C357,224.2,356,224.5,354.9,223z M325.2,235.5c0,1-0.5,2.1-0.7,3.1C324.7,237.6,325.2,236.5,325.2,235.5c-0.2-4.2,2.2-5.5,5.9-5.5
	C327.4,230,325,231.3,325.2,235.5z M334.4,226.9c0.2,0.7,0.4,1.3,0.6,2C334.8,228.2,334.6,227.5,334.4,226.9z M340.5,228.8
	c2.6-1.2,5.2-2.3,7.8-3.5C345.7,226.5,343.1,227.7,340.5,228.8z M362.8,224.1c-0.4,0.5-0.8,0.9-1.2,1.4
	C362,225.1,362.4,224.6,362.8,224.1z"/>
<path fill="#1D1D1B" d="M387.8,93.6c0.8,1.5,1.1,3.2,2,4.6c3.8,5.8,8.3,11.2,9.4,18.4c0.2,1,0.9,1.9,1.4,2.9
	c0.1-0.1,0.3-0.1,0.4-0.2c-1.2-3.8-1.5-7.9-4.1-11.4c-1.3-1.7-1.3-4.3-1.9-6.6c0.6,2.2,0.6,4.8,1.9,6.6c2.5,3.5,2.9,7.5,4.1,11.4
	c0.3-0.2,0.7-0.3,1-0.5c-1.1-3-2.3-5.9-3.1-8.9c-0.7-2.5-1.3-5-1.5-7.6c-0.1-0.9,0.7-2.4,1.5-2.8c0.7-0.3,2.3,0.2,3,0.8
	c4.7,4.4,9,9.1,9.9,15.9c0.1,0.7,0.4,1.8,0.9,2.1c1.2,0.7,2.6,1.3,4,1.4c0.8,0.1,1.7-0.9,2.6-1.3c-0.9-1-1.8-1.9-2.6-2.9
	c-1.5-1.8-2.9-3.6-4.3-5.4c-4.4-5.6-8.7-11.3-13.1-16.9c-0.1-0.2-0.5-0.2-0.9-0.3c0.1,1.1,0.2,2.2,0.3,3.3c-0.1-1.1-0.2-2.2-0.3-3.3
	c-0.5,0-0.9,0-1,0.2c-1.3,2.5-2.1,0.9-2.8-0.4c-0.9-1.4-1.6-3-2.6-4.3c-1.8-2.6-4.3-3.1-6.7-1.4c-0.4,0.3-0.6,1.6-0.3,2.1
	C385.7,90.7,386.9,92,387.8,93.6z M413.1,113.9c1.2,2.8,2.3,4.7,5.6,4.3C415.4,118.6,414.3,116.7,413.1,113.9c-3-7-7.6-12.9-14-17.3
	C405.5,101,410.1,106.9,413.1,113.9z"/>
<path fill="#1D1D1B" d="M366.3,70c1,1.7,0.8,2.7-1.1,3.6c-4.1,2-4.1,3.1-0.3,5.5c1.2,0.8,2.5,1.5,3.9,1.7c1.5,0.2,3.1-0.3,4.6-0.5
	c-0.5-1.9-0.7-3.9-1.5-5.6c-1-1.9-2.8-3.4-3.9-5.2c-3.3-5.3-6.4-10.6-9.6-15.9c-0.3,0.2-0.6,0.3-0.9,0.5c3.6,5.7,7.3,11.4,10.7,17.2
	c0.7,1.3,0.1,3.3,0.1,5c0-1.7,0.6-3.8-0.1-5c-3.4-5.8-7.1-11.5-10.7-17.2c0,0,0,0,0,0C360.4,59.4,363.3,64.7,366.3,70z"/>
<path fill="#1D1D1B" d="M411.2,750.8c0.5,0.6,1.2,1.4,2,2.2c3.5,2.3,7.1,4.6,10.2,7.4c8.3,7.5,17.4,13.6,27,19.1
	c2.2,1.3,4.3,2.8,6.4,4.3c0,0,0.1,0,0.1,0C441.7,772.9,426.5,761.9,411.2,750.8z"/>
<path fill="#1D1D1B" d="M423.3,760.4c-3.1-2.8-6.7-5.1-10.2-7.4c9.6,9.7,39.3,30.4,43.6,30.8c-2.1-1.5-4.2-3-6.4-4.3
	C440.7,774,431.6,767.9,423.3,760.4z"/>
<path fill="#1D1D1B" d="M242.4,496.8c0.6,1.4,1,3,1.8,4.3c0.4,0.6,1.3,0.9,2,1.3c0.3-0.6,0.9-1.3,1-1.9c0.3-2.2,0.4-4.4,0.8-6.5
	c0.5-3.1-0.4-4.3-4.5-4.4c-1.1,0.6-3,1.7-4.9,2.7c1,0.8,2.1,1.5,2.9,2.4C242.1,495.2,242.2,496.1,242.4,496.8z"/>
<path fill="#1D1D1B" d="M274.8,680.4c-0.1-2.8-0.2-5.6-0.8-8.4c-0.5-2.7-1.6-5.4-2.5-8c-0.1-0.3-0.6-0.6-1-0.8
	c0.1,0.7,0.2,1.4,0.3,2.1c0.2,1,0.4,2.1,0.6,3.1c-0.2-1-0.4-2.1-0.6-3.1c-0.1-0.7-0.2-1.4-0.3-2.1c-0.1-0.1-0.3-0.2-0.4-0.3
	c-0.3,0.6-0.7,1.3-0.9,1.9c-0.1,0.5,0.1,1,0.1,1.5c-0.1,0-0.1,0-0.2,0c0.1,1.1-0.1,2.4,0.2,3.4c1.2,3.8,0.6,8.2,3.8,11.3
	c0.4,0.4,0.6,1,0.7,1.5c1.5-1.7-0.7-3.2-1.1-4.8c0.4,1.6,2.6,3.1,1.1,4.8c0.1,0.3,0.2,0.6,0.3,0.9
	C274.4,682.5,274.8,681.4,274.8,680.4z M272.4,672.3c-0.1,1.6-0.2,3.1-0.4,4.7C272.2,675.5,272.3,673.9,272.4,672.3
	c0.1-1.7,0.2-3.5-2.3-3.5C272.6,668.8,272.5,670.6,272.4,672.3z"/>
<path fill="#1D1D1B" d="M352,62.5c1-0.3,1.1-1.5,1.3-3.2c-1.7-3.8-3.7-8.1-5.6-12.2c-0.1-0.3-0.6-0.5-1-0.6
	c-0.6-0.1-1.2-0.2-1.8-0.3c2.8,4,5.4,8,6.5,12.9C351.7,60.2,351.9,61.4,352,62.5z"/>
<path fill="#1D1D1B" d="M350.2,62.4c0.8,0.2,1.4,0.2,1.8,0.1c-0.2-1.1-0.4-2.3-0.6-3.4c-1.1-4.8-3.7-8.9-6.5-12.9
	c-0.1,0-0.3,0-0.4-0.1c0.1,0.7,0.1,1.5,0.4,2.1c0.9,1.8,2.1,3.6,3.1,5.4c2.5,4.6,2.2,5.5-2.8,6.7c-0.4,0.1-0.8,0.1-1.1,0.4
	c-0.3,0.3-0.6,0.7-0.8,1.1c0.4,0.2,0.9,0.5,1.3,0.5C346.5,62.4,348.5,61.9,350.2,62.4z M351,60.3c-2.3,0.5-4.7,1-7,1.6
	C346.3,61.3,348.7,60.8,351,60.3z"/>
<g>
	<path fill="#FFFFFF" d="M342.4,321.6c1.5,0.1,3-0.7,4.5-1.1c1.1-0.3,2.5-1.2,3.3-0.8c3.6,1.5,6.4-0.1,9.4-1.8
		c7.4-4.2,15-7.9,23.8-7.9c0.8,0,1.7-0.5,2.5-0.8c-0.5-0.7-0.9-1.4-1.5-2c-0.8-0.7-2-1.1-2.4-1.9c-2.1-4.2-6.2-4.3-11.7-5.1
		c-2,0.9-5.3,2.1-8.4,3.9c-6.8,3.9-12.4,9.9-20.5,11.7"/>
	<path fill="#FFFFFF" d="M408.1,331.9c-9.3-2.2-16.7,1.5-23.7,6.4C392.5,337.1,400.8,337.1,408.1,331.9"/>
	<path fill="#FFFFFF" d="M387.5,351.2c-2.1,0.7-4.1,1.3-6.2,2"/>
	<path fill="#FFFFFF" d="M381.3,353.2c2.1-0.7,4.1-1.3,6.2-2"/>
	<path fill="#FFFFFF" d="M401,341.2c-6.3,3.7-12.6,7.3-18.8,11c-0.4,0.2-0.7,0.6-0.9,1"/>
	<path fill="#FFFFFF" d="M341.7,340.3c0.8-0.4,2.5,0.7,3.7,1.4c4.4,2.5,8.7,5.1,13.1,7.5c0.8,0.4,1.9,0.1,2.9,0.1
		c-0.1-1.2,0-2.6-0.5-3.6c-0.3-0.7-1.4-1.2-2.2-1.5c-3.8-1.6-7.7-3.2-11.5-4.8c-3.5-1.5-3.6-2.7-0.8-5.2c1.9-1.7,3.3-1.1,5.1,0.2
		c3.5,2.5,7.2,4.7,10.9,7c0.1-0.1,0.2-0.2,0.3-0.3c-2.7-2.3-5.4-4.5-8-6.8c2.7,2.3,5.4,4.5,8,6.8c0.3-0.3,0.6-0.6,0.9-0.9
		c-1.6-1.4-3.5-2.6-4.9-4.2c-2.3-2.4-2-3.9,0.8-5.6c1.2-0.7,3.3-1.4,3.4-2.4c0.1-0.7,0.3-1.3,0.4-1.8c-1.5-0.1-3-0.3-4.6-0.4
		c1.5,0.1,3,0.3,4.6,0.4c1.2-3.7,4.2-3,7.8-2c2,0.5,3,1.1,4.2,2.6c1.3,1.6,3.1,2.9,4.9,4c1.3,0.8,3,0.9,4.4,1.5
		c0.5,0.2,1,0.7,1.4,1.1c-0.5,0.4-0.9,1-1.4,1.1c-2.2,0.3-4.4,0.3-6.6,0.7c-2.3,0.4-4.5,1.2-6.8,1.8c-0.1,0-0.1,1.3,0.2,1.5
		c3.4,1.9,6.5,4,10.9,3.1c5.8-1.2,11.8-1.9,17.8-2.6"/>
	<path fill="#FFFFFF" d="M372.9,288.9c1.2,2.9-0.3,3.7-2.7,4.3c-1.1,0.3-2.2,0.8-3.2,1.5c-7.4,5-14.8,10.1-22.2,15.1"/>
	<path fill="#FFFFFF" d="M342.8,338.3c2.7,1.5,5.4,3,8.1,4.5C348.2,341.3,345.5,339.8,342.8,338.3"/>
	<path fill="#FFFFFF" d="M341.3,316c8.1-1.8,13.7-7.9,20.5-11.7c3.1-1.8,6.5-3,8.4-3.9c5.5,0.8,9.5,0.8,11.7,5.1
		c0.4,0.8,1.7,1.2,2.4,1.9c0.6,0.6,1,1.3,1.5,2c-0.8,0.3-1.7,0.8-2.5,0.8c-8.8,0-16.4,3.7-23.8,7.9c-3,1.7-5.8,3.3-9.4,1.8
		c-0.8-0.4-2.2,0.5-3.3,0.8c-1.5,0.4-3,1.2-4.5,1.1"/>
	<path fill="#FFFFFF" d="M389.1,333.4c-2.4,1.1-4.7,2.2-7.1,3.4C384.3,335.7,386.7,334.6,389.1,333.4"/>
	<path fill="#FFFFFF" d="M403.1,336.9c-7.2,1-14.2,3.3-21.6,2.6C388.9,340.2,395.9,337.9,403.1,336.9"/>
	<path fill="#FFFFFF" d="M408.1,331.9c-7.3,5.2-15.7,5.3-23.7,6.4C391.5,333.4,398.8,329.7,408.1,331.9"/>
</g>
</svg>
